<svg width="61" height="5" viewBox="0 0 61 5" fill="none" xmlns="http://www.w3.org/2000/svg">
<path d="M60.6595 2.65284C60.5859 2.78246 60.5467 2.91499 60.4592 2.99388C60.1358 3.28544 59.987 3.81166 59.4216 3.78485C59.0253 4.2948 58.5801 4.51883 57.9938 4.05352C57.9547 4.02251 57.8255 4.11045 57.7362 4.13616C57.5863 4.17932 57.3835 4.29959 57.2924 4.24313C56.7925 3.93346 56.2615 4.10029 55.7685 4.15609C55.0485 4.23761 54.3657 4.01767 53.661 4.02664C53.5504 4.02807 53.4193 3.94332 53.3311 3.86208C53.1359 3.68237 53.0173 3.65918 52.979 3.96856C52.9778 3.97813 52.8781 3.99437 52.8374 3.97688C52.6625 3.90175 52.498 3.76916 52.3189 3.748C52.1836 3.73194 51.9953 3.94119 51.8938 3.89878C51.2602 3.63397 50.6175 3.80919 49.9809 3.81393C48.4773 3.82506 46.9805 3.70697 45.4829 3.60133C45.2346 3.3013 45.0348 3.66575 44.8035 3.67376C44.5664 3.68197 44.3707 3.56278 44.1053 3.59845C43.4584 3.68533 42.7861 3.58295 42.124 3.55678C41.8147 3.03675 41.3798 3.5323 41.0316 3.41948C40.6897 3.30873 40.3537 3.3803 40.031 3.40996C39.3963 3.46836 38.7795 3.65572 38.1416 3.37605C37.8804 3.26154 37.6178 3.55668 37.2713 3.42469C36.9239 3.29235 36.44 3.26657 36.1071 3.4083C35.6397 3.60721 35.3004 3.25151 34.8924 3.30886C34.6351 3.34505 34.3325 3.26733 34.123 3.37822C33.9065 3.49288 33.8136 3.47219 33.6411 3.34052C33.5422 3.26492 33.3453 3.23294 33.2306 3.27814C32.8558 3.42594 32.5251 3.40978 32.1222 3.30711C31.6675 3.19118 31.1498 3.34646 30.673 3.28273C30.4099 3.24756 30.2361 3.16429 30.0426 3.42973C29.838 3.71044 29.9515 2.95423 29.5967 3.27063C29.4216 3.4267 29.0291 3.41889 28.7568 3.36811C28.2875 3.28059 27.8339 3.0676 27.3957 3.43908C26.685 3.11422 25.9184 3.48195 25.2138 3.27157C24.9463 3.19169 24.6676 3.6121 24.4479 3.2137C24.4421 3.20322 24.2305 3.2553 24.2121 3.31058C24.0419 3.8224 23.6249 3.61232 23.319 3.58886C22.9816 3.56298 22.6556 3.40843 22.3204 3.32704C22.2008 3.29798 22.0641 3.29611 21.9437 3.32159C21.5846 3.39743 20.6645 3.44439 20.3786 3.42439C20.1625 3.40929 19.9411 3.44468 19.7242 3.47397C19.3456 3.52508 18.97 3.60016 18.5906 3.64341C18.3345 3.67262 18.0729 3.29286 17.8154 3.64958C17.5638 3.41214 17.257 3.52102 16.9758 3.5361C16.6931 3.55125 16.4136 3.62646 16.1333 3.67863C16.1058 3.68373 16.0825 3.71174 16.0573 3.7291C15.7047 3.18723 15.2623 3.6113 14.8638 3.62903C14.4491 3.64748 14.0375 3.75016 13.6231 3.76123C13.1282 3.77448 12.5683 3.86308 12.1567 3.66685C11.8375 3.51474 11.6355 3.84221 11.3793 3.64317C11.115 3.43781 10.915 3.75495 10.6796 3.79359C10.559 3.81338 10.4113 3.70833 10.2864 3.6403C10.2394 3.61473 10.2222 3.53433 10.1914 3.47894C9.85345 3.94801 9.34372 3.2651 8.97152 3.65885C8.90702 3.72708 8.67368 3.6418 8.51987 3.61776C8.39597 3.59839 8.25647 3.51186 8.15506 3.54648C7.81666 3.66207 7.46927 3.99151 7.23501 3.41488C6.78578 3.87964 6.33185 3.27073 5.86072 3.422C5.56025 3.51842 5.21161 3.45433 4.88935 3.49777C4.72286 3.5202 4.30543 3.35196 4.54357 3.82623C4.30868 4.00375 4.00806 3.59118 3.78891 3.9102C3.40437 3.64377 2.97227 3.76485 2.56511 3.79124C2.14115 3.81868 1.73901 3.78905 1.34239 3.6437C1.28428 3.62239 1.2191 3.62064 1.15715 3.60983C1.3732 3.17952 1.1315 2.90208 0.834193 2.64321C1.10829 2.20137 1.15033 1.63497 1.72672 1.35616C2.29893 1.07937 2.92486 1.00774 3.45811 1.12633C3.91167 1.2272 4.30077 0.877382 4.70502 1.1196C4.90154 0.721096 5.12484 0.857789 5.36394 1.07857C5.40186 1.11359 5.51558 1.12897 5.545 1.10123C5.92692 0.741177 6.45644 1.20135 6.84385 0.855397C7.16436 0.569175 7.58455 0.956141 7.89791 0.748108C8.27952 0.494746 8.6026 0.624963 8.98449 0.732022C9.28317 0.815717 9.64959 0.785936 9.95163 0.693974C10.2642 0.598815 10.5393 0.984807 10.8416 0.707446C10.8705 0.680936 11.0298 0.792455 11.1259 0.844577C11.1874 0.877914 11.2916 0.958375 11.2964 0.952496C11.6889 0.469687 12.2372 0.853773 12.7088 0.725841C13.1266 0.612504 13.6822 0.682693 14.1456 0.90878C14.4692 1.06665 14.8235 0.959419 15.1103 0.842737C15.8641 0.536078 16.5939 0.523777 17.3384 0.826836C17.3976 0.850948 17.448 0.897149 17.5024 0.933078C17.7602 0.211601 18.3656 0.902074 18.7443 0.630518C18.8639 0.544783 19.0985 0.453306 19.1814 0.509801C19.6645 0.839045 20.1295 0.585299 20.574 0.475366C21.0613 0.354866 21.6107 0.650568 22.0434 0.240206C22.5142 0.518044 23.0532 0.391819 23.5449 0.418784C24.2858 0.459342 25.0331 0.670613 25.7988 0.412062C26.1206 0.303447 26.5759 0.579164 26.8908 0.463468C27.2446 0.333464 27.6151 0.231284 27.9202 0.323901C28.4142 0.473856 28.964 0.212359 29.4087 0.569695C29.7604 0.428872 30.1653 0.544269 30.5003 0.369861C30.7663 0.231431 30.9791 0.120553 31.2807 0.318879C31.5415 0.490424 31.8108 0.516867 32.1729 0.380788C32.4731 0.268075 32.9017 0.472279 33.2865 0.380639C33.432 0.345973 33.6028 0.431884 33.7564 0.414266C34.1594 0.368037 34.5611 0.237381 34.9599 0.249764C35.3269 0.261175 35.6854 0.450225 36.0555 0.4936C36.3061 0.522927 36.5324 0.670698 36.8434 0.501912C37.2439 0.284639 37.7478 0.617223 38.196 0.426202C38.4657 0.677734 38.7514 0.246618 38.9597 0.405961C39.2447 0.624073 39.4229 0.351291 39.6522 0.351546C40.1639 0.352085 40.6622 0.350555 41.1795 0.452563C41.8623 0.587175 42.5802 0.543399 43.2829 0.576706C43.6621 0.594684 44.0443 0.481814 44.4183 0.70682C44.5456 0.783425 44.8253 0.725536 44.9699 0.629958C45.2677 0.433059 45.4975 0.438424 45.742 0.693115C45.9579 0.918023 46.1704 0.867219 46.4426 0.73695C46.645 0.640129 46.9282 0.667007 47.167 0.699845C47.8515 0.793939 48.5303 0.929974 49.215 1.02265C49.3484 1.04071 49.4953 0.913041 49.6411 0.895802C49.8996 0.865272 50.1671 0.83008 50.4216 0.864655C50.889 0.928143 51.2767 1.23726 51.842 1.02421C52.2321 0.877193 52.7713 1.08963 53.233 1.19125C53.3724 1.22191 53.4449 1.18017 53.5583 1.15742C54.0588 1.05712 54.541 1.03999 55.0652 1.19988C55.5978 1.36234 56.2088 1.39573 56.7628 1.32023C57.2117 1.25901 57.5991 1.49243 58.0638 1.38809C58.4459 1.30234 58.8978 1.54473 59.3221 1.62441C59.7902 1.71236 60.1377 1.98718 60.449 2.31955C60.5318 2.40794 60.5817 2.52712 60.6595 2.65284Z" fill="#FF9461"/>
</svg>
