<svg width="152" height="127" viewBox="0 0 152 127" fill="none" xmlns="http://www.w3.org/2000/svg">
<path d="M111.613 104.343C111.014 105.009 110.525 105.82 109.512 105.943C108.882 106.763 107.855 107.048 107.115 107.7C106.112 108.585 104.718 108.875 103.846 109.934C103.602 110.23 103.235 109.63 102.996 110.057C102.867 110.287 102.722 110.522 102.532 110.699C102.372 110.848 102.139 111 101.934 111.006C101.187 111.028 100.638 111.375 100.113 111.87C99.8585 112.11 99.4531 112.182 99.1489 112.38C98.5926 112.743 97.7913 112.714 97.458 113.431C96.5525 113.337 95.9012 114.544 94.8799 113.936C94.8075 113.893 94.5168 114.034 94.4829 114.139C94.3296 114.617 93.9946 114.748 93.5413 114.818C93.1898 114.872 92.7776 114.972 92.54 115.203C92.289 115.447 91.8713 115.13 91.6847 115.607C91.5993 115.826 91.0438 115.844 90.7162 115.987C89.7579 116.405 88.8138 116.847 87.7714 117.043C87.0519 117.179 86.3126 117.208 85.6128 117.458C84.9315 117.702 84.2395 117.915 83.5522 118.142C83.4791 118.102 83.4062 118.062 83.3332 118.022C83.4102 118.057 83.4872 118.092 83.5642 118.127C83.4292 118.298 83.2943 118.47 83.1593 118.642C82.5815 118.031 81.9739 118.686 81.3775 118.614C81.2063 118.593 80.919 118.753 80.8385 118.91C80.6291 119.316 80.3387 119.297 80.0299 119.135C79.5551 118.884 79.2352 119.063 78.9539 119.438C78.7224 119.746 78.4896 120.042 78.2046 119.483C78.0688 119.56 77.9327 119.635 77.7973 119.712C77.6597 119.791 77.5229 119.871 77.3857 119.95C77.1607 119.178 76.5589 119.841 76.1391 119.643C75.7189 119.444 75.1504 119.542 74.6472 119.547C74.4875 119.549 74.29 119.629 74.1765 119.74C73.6274 120.281 72.6648 119.872 72.212 120.61C72.1202 120.548 72.0234 120.493 71.9373 120.424C71.6102 120.163 71.3313 120.045 70.8553 120.235C70.2314 120.484 69.4916 120.309 68.8473 120.683C68.6314 120.808 68.2106 120.693 67.9317 120.574C67.3985 120.347 66.8689 120.322 66.3059 120.363C65.9962 120.385 65.6772 120.287 65.3629 120.239C64.6868 120.137 64.024 120.276 63.4674 120.607C63.1693 120.784 63.0525 120.843 62.7939 120.616C62.5354 120.388 61.5082 120.128 61.0276 120.115C60.6094 120.104 60.0923 120.26 59.795 120.069C59.3224 119.765 58.9622 119.858 58.5405 120.036C57.9094 119.363 57.0349 119.61 56.2713 119.439C55.9631 119.371 55.6438 119.312 55.3302 119.316C54.9099 119.32 54.4734 119.438 54.314 118.863C54.2938 118.79 54.1843 118.707 54.1041 118.691C53.3085 118.539 52.5104 118.4 51.713 118.257C51.3265 118.837 50.9317 117.579 50.5456 118.261C50.1644 118.143 49.8358 117.984 49.4933 117.728C49.0159 117.371 48.3456 117.183 47.7366 117.116C47.1409 117.05 46.7101 116.48 46.072 116.657C45.6556 116.066 44.9714 116.319 44.4213 116.165C43.9315 116.027 43.6931 115.588 43.1573 115.451C42.1581 115.197 41.1991 114.703 40.2915 114.188C38.7856 113.334 37.258 112.531 35.6836 111.814C35.5598 111.757 35.4671 111.637 35.3479 111.566C34.5193 111.074 34.003 110.041 32.8457 110.119C32.4659 109.265 31.1932 109.54 30.8876 108.568C30.8419 108.423 30.6232 108.296 30.457 108.23C29.0611 107.678 28.0956 106.562 26.9563 105.663C26.0728 104.966 25.3026 104.116 24.2809 103.578C23.6424 103.241 22.9581 102.884 22.7425 102.073C22.7135 101.964 22.5776 101.877 22.4789 101.794C21.7834 101.21 21.0855 100.63 20.3866 100.05C20.041 99.7634 19.6856 99.4883 19.347 99.1937C19.1781 99.0469 18.9678 98.8938 18.8956 98.6993C18.6442 98.0217 18.138 97.6055 17.5746 97.2065C17.1246 96.8878 16.7505 96.5082 16.555 95.9336C16.407 95.4987 16.2546 94.973 15.6649 94.824C15.5052 94.7837 15.3584 94.6084 15.2497 94.4623C14.1494 92.9824 13.0713 91.4859 11.96 90.0144C11.1805 88.9821 10.2931 88.0259 9.57138 86.9565C8.31237 85.0909 7.13918 83.1672 5.94102 81.261C5.67149 80.8322 5.43778 80.5984 5.04722 81.1525C4.9586 81.2781 4.72483 81.3078 4.55275 81.3668C4.24614 81.4719 4.27592 81.6398 4.39088 81.8958C4.55783 82.2674 4.64896 82.6727 4.8078 83.0487C4.94491 83.3731 4.94541 83.6423 4.76453 83.9659C4.61888 84.2266 4.47134 84.6088 4.55928 84.8526C4.75751 85.402 4.81754 85.9336 4.73202 86.4969C4.72527 86.5412 4.69003 86.6093 4.70684 86.6251C5.66582 87.5293 4.66765 88.8565 5.39324 89.8205C5.47002 89.9224 5.34494 90.1596 5.35456 90.3318C5.39288 91.0181 5.42355 91.7065 5.50507 92.3884C5.55317 92.7905 5.70171 93.1796 5.78687 93.5784C5.95916 94.3855 5.76773 95.2396 6.19801 96.0301C6.33869 96.2885 6.13314 96.7341 6.08888 97.0944C5.97828 97.9946 5.80106 98.8935 5.78019 99.796C5.76151 100.602 5.0769 101.121 5.01918 101.891C5.01545 101.94 4.67675 102.052 4.58355 101.993C4.01136 101.63 3.60564 101.122 3.57148 100.42C3.50922 99.1401 3.27921 97.8782 3.21515 96.5963C3.17215 95.7362 2.88585 94.8908 2.78109 94.0301C2.71524 93.4889 2.82911 92.9272 2.77933 92.3823C2.73085 91.8518 2.66396 91.292 2.45045 90.814C2.01677 89.8431 1.95036 88.7987 2.02583 87.8159C2.0912 86.9648 1.95957 86.1913 1.74662 85.4221C1.57041 84.7859 1.69624 84.1648 1.62638 83.5421C1.58285 83.1543 1.72695 82.7975 1.56209 82.3626C1.31125 81.7007 1.31346 80.943 1.20823 80.226C1.83202 79.6413 1.37125 78.8941 1.51518 78.2407C1.5593 78.0405 1.71984 77.7708 1.891 77.7085C3.44156 77.1449 5.0017 76.8134 6.5399 77.771C6.77344 77.9164 7.02813 78.0274 7.27144 78.1574C8.29627 78.705 9.57073 78.8188 10.2917 79.8947C11.6394 80.2999 12.7021 81.2168 13.9038 81.8839C14.2839 82.0949 14.8075 82.2238 15.2233 82.1509C15.7922 82.0511 15.5922 82.6974 15.9934 82.7433C16.4388 82.7943 16.8645 83.0004 17.3066 83.1066C17.4812 83.1486 17.6803 83.0814 17.8606 83.1108C17.9175 83.1201 18.0113 83.313 17.9832 83.3683C17.7739 83.7791 18.0166 84.0637 18.1969 84.3917C18.2671 84.5195 18.2369 84.7894 18.1418 84.8965C18.0455 85.0053 17.7556 85.0839 17.6498 85.0174C17.2558 84.7702 16.9037 84.7663 16.4339 84.8123C16.0728 84.8476 15.2626 84.9064 15.2763 84.0527C15.2765 84.0367 14.9393 83.9811 14.9312 84.0042C14.8231 84.3124 14.6767 84.563 14.4163 84.1578C14.1547 83.7509 13.9327 83.5528 13.4314 83.831C13.0565 84.0391 13.0244 83.9793 12.9479 83.4225C12.9391 83.3586 12.9195 83.2444 12.8955 83.2418C12.3084 83.1789 11.7187 83.0793 11.1323 83.0944C10.8205 83.1024 10.9092 83.2496 11.148 83.3675C11.2634 83.4244 11.4036 83.7087 11.3678 83.7514C11.0175 84.168 11.3237 84.5235 11.5569 84.7271C11.9579 85.0773 12.2408 85.4107 12.1957 85.9736C12.1633 86.3791 12.3815 86.6241 12.7366 86.8561C13.3651 87.267 13.9288 87.7769 14.5197 88.2453C14.4349 89.2442 15.3697 89.7548 15.6407 90.5833C15.6832 90.7131 15.7024 90.9371 15.7758 90.957C16.8494 91.2486 17.0022 92.416 17.7526 93.0185C18.0625 93.2674 18.0483 93.9268 18.714 93.7227C18.7761 93.7036 18.989 93.8949 18.9764 93.9567C18.8357 94.6475 19.6256 94.5518 19.8247 94.9844C20.0306 95.4317 20.3615 95.8424 20.7091 96.1996C21.4637 96.9752 21.9766 98.0123 23.0962 98.4098C23.2753 98.4734 23.3636 98.7649 23.5202 98.9254C23.9334 99.3491 24.3131 99.8328 24.7997 100.148C25.1271 100.36 25.4268 100.494 25.5013 100.914C25.5211 101.025 25.6611 101.208 25.7353 101.203C26.6793 101.139 26.9278 102.122 27.6207 102.459C27.9421 102.615 28.1202 103.078 28.6047 103.043C28.6764 103.037 28.7983 103.124 28.8259 103.195C29.1997 104.165 30.2287 104.447 30.8542 105.148C31.0049 105.317 31.109 105.528 31.2608 105.696C31.3823 105.83 31.5307 106.004 31.6895 106.031C33.1921 106.293 34.3305 107.225 35.5157 108.072C35.6291 108.154 35.7303 108.251 35.8392 108.339C36.3939 108.786 37.1915 108.687 37.712 109.36C38.0986 109.861 38.8637 110.089 39.4867 110.382C40.1467 110.692 40.8436 110.923 41.5123 111.217C41.7131 111.305 41.8702 111.49 42.0528 111.623C42.2663 111.778 42.5308 112.092 42.695 112.048C43.437 111.848 43.878 112.409 44.4422 112.638C45.548 113.085 46.6336 113.583 47.7417 114.024C49.1801 114.597 50.7431 114.781 52.1597 115.45C52.5941 115.655 53.1502 115.591 53.6447 115.683C55.5802 116.041 57.4636 116.66 59.4409 116.819C59.7871 116.847 60.1218 117.038 60.4577 117.165C60.5546 117.202 60.6794 117.348 60.7198 117.324C61.3503 116.948 61.9713 117.267 62.6004 117.311C64.0214 117.411 65.4613 117.358 66.8638 117.567C68.0236 117.739 69.1413 117.203 70.2774 117.538C71.6498 117.048 73.0902 117.453 74.4929 117.2C76.898 116.765 79.3185 116.48 81.7022 115.855C83.574 115.364 85.4328 114.766 87.3607 114.461C88.022 114.356 88.6879 114.063 89.2688 113.717C90.3468 113.074 91.6288 112.99 92.7022 112.364C92.7405 112.342 92.801 112.355 92.8365 112.33C94.1698 111.41 95.6698 110.907 97.2318 110.548C97.393 110.51 97.5193 110.333 97.6681 110.23C98.1517 109.895 98.6147 109.52 99.1304 109.244C99.6406 108.97 100.235 108.852 100.738 108.568C101.315 108.243 101.834 107.813 102.375 107.423C102.449 107.37 102.491 107.263 102.569 107.225C103.311 106.868 104.081 106.631 104.763 106.076C105.359 105.591 106.123 105.227 106.912 104.944C107.596 104.699 108.117 104.003 108.716 103.515C108.876 103.384 109.099 103.153 109.225 103.191C109.704 103.336 109.737 103.208 109.881 102.742C109.994 102.374 110.608 102.111 111.048 101.906C112.052 101.437 112.859 100.773 113.548 99.8993C113.797 99.5838 114.339 99.4933 114.755 99.3184C115.054 99.1924 115.399 99.1264 115.192 98.6588C115.173 98.6149 115.319 98.4837 115.403 98.4105C115.819 98.0495 116.198 97.6198 116.669 97.3542C117.462 96.9067 117.853 96.097 118.484 95.5327C119.605 94.5301 120.596 93.3731 121.873 92.5459C121.976 92.4791 122.064 92.3617 122.116 92.2483C122.578 91.2564 123.633 90.6535 123.895 89.5301C123.913 89.4549 124.015 89.4011 124.073 89.3333C124.296 89.0727 124.897 89.2461 124.882 88.9534C124.856 88.4149 125.321 88.4056 125.512 88.1256C125.706 87.8407 126.123 87.6227 125.776 87.1763C125.749 87.1423 125.864 86.9937 125.919 86.9022C126.221 86.4044 127.148 86.4056 127.003 85.5458C126.998 85.5199 127.064 85.4535 127.095 85.4543C127.945 85.4783 128.056 84.9892 127.944 84.2941C127.92 84.1454 128.051 83.9484 128.155 83.8065C128.673 83.0996 129.089 82.2366 129.772 81.7549C130.354 81.3441 130.617 81.0033 130.604 80.332C130.601 80.1503 130.85 80.0904 131.028 80.2653C131.378 80.6087 131.357 81.0148 131.188 81.4186C131.064 81.7126 130.935 82.0319 130.719 82.2537C130.281 82.7054 130.113 83.2567 129.933 83.83C129.83 84.1564 129.852 84.7531 129.171 84.4977C129.123 84.4798 128.953 84.67 128.906 84.7896C128.71 85.2904 128.531 85.7983 128.362 86.3091C128.192 86.8251 128.038 87.2778 127.58 87.7027C127.037 88.2073 126.839 89.0633 126.37 89.6743C125.538 90.7596 124.764 91.884 123.861 92.9295C122.682 94.2951 121.379 95.55 120.244 96.9664C119.313 98.1279 118.047 99.0486 117.003 100.16C116.776 100.402 116.394 100.616 116.096 100.872C115.46 101.422 115.099 102.306 114.16 102.491C113.987 103.062 113.506 103.354 113.064 103.672C112.9 103.79 112.601 103.958 112.505 103.894C111.875 103.468 111.932 104.278 111.601 104.359C111.529 104.319 111.456 104.279 111.384 104.239C111.46 104.274 111.537 104.308 111.613 104.343ZM12.4818 87.9343L12.5335 87.8365L12.4305 87.8337L12.4818 87.9343ZM126.713 88.478C126.738 88.4529 126.764 88.4277 126.789 88.4026C126.738 88.4019 126.686 88.4012 126.635 88.4005C126.661 88.4263 126.687 88.4522 126.713 88.478ZM51.6938 117.707C51.6671 117.731 51.6405 117.755 51.6138 117.778C51.6395 117.804 51.6634 117.845 51.6914 117.848C51.713 117.851 51.7561 117.806 51.759 117.779C51.7613 117.757 51.7173 117.731 51.6938 117.707Z" fill="#1A3541"/>
<path d="M43.1053 16.1304C43.8275 15.6004 44.4709 14.9056 45.4876 14.9909C46.2711 14.3158 47.3343 14.2448 48.1913 13.7562C49.353 13.0938 50.777 13.092 51.8454 12.2323C52.1446 11.9916 52.3823 12.6543 52.7027 12.2849C52.8755 12.0856 53.0658 11.8849 53.2878 11.7501C53.4748 11.6365 53.7336 11.5352 53.9355 11.571C54.671 11.7011 55.2798 11.4725 55.8938 11.0944C56.1919 10.9109 56.6034 10.923 56.9415 10.7904C57.5598 10.548 58.3385 10.7396 58.8104 10.1047C59.6781 10.3802 60.5608 9.33063 61.4374 10.1335C61.4996 10.1905 61.8128 10.1112 61.8674 10.0148C62.1145 9.57835 62.4691 9.51793 62.9271 9.54178C63.2822 9.56024 63.7062 9.54573 63.9858 9.36758C64.2811 9.17948 64.6258 9.57455 64.9054 9.14528C65.0333 8.94872 65.581 9.04365 65.9307 8.97027C66.9539 8.75561 67.9681 8.51394 69.0286 8.53345C69.7606 8.54696 70.4905 8.66857 71.2264 8.56557C71.943 8.46533 72.6639 8.39673 73.383 8.31424C73.4464 8.36798 73.5098 8.42176 73.5732 8.47549C73.5049 8.42583 73.4365 8.37617 73.3682 8.32647C73.5352 8.18568 73.7022 8.04487 73.8692 7.90408C74.3109 8.61971 75.0389 8.10121 75.6082 8.2932C75.7717 8.34836 76.0854 8.24964 76.196 8.11286C76.4836 7.75727 76.764 7.83487 77.0334 8.05695C77.4475 8.39835 77.7971 8.28824 78.1485 7.97854C78.4378 7.72357 78.7259 7.48097 78.8915 8.08598C79.04 8.03878 79.1887 7.99216 79.3368 7.94413C79.4875 7.89529 79.6377 7.84497 79.7881 7.79526C79.8518 8.59637 80.5756 8.06951 80.9464 8.34883C81.3176 8.62848 81.8942 8.64792 82.3878 8.74524C82.5446 8.77614 82.7542 8.73803 82.888 8.65163C83.5355 8.23343 84.3948 8.82994 84.988 8.19906C85.0654 8.27803 85.1489 8.35196 85.2193 8.4368C85.4866 8.75905 85.7358 8.93089 86.2405 8.84135C86.902 8.72393 87.5908 9.04588 88.2975 8.81036C88.5344 8.73139 88.923 8.92975 89.172 9.10264C89.6481 9.43322 90.1616 9.56495 90.7211 9.63958C91.0289 9.68063 91.3213 9.8417 91.6193 9.95204C92.2606 10.1894 92.9378 10.1881 93.55 9.97692C93.8779 9.86377 94.0043 9.82941 94.2114 10.1047C94.4183 10.3798 95.3713 10.8433 95.8393 10.9533C96.2465 11.0491 96.7846 11.0008 97.0369 11.2484C97.4379 11.6421 97.8096 11.6239 98.2586 11.5353C98.74 12.3222 99.6464 12.2585 100.359 12.5803C100.647 12.7102 100.948 12.832 101.256 12.8925C101.668 12.9735 102.12 12.9462 102.159 13.5418C102.164 13.6172 102.254 13.7212 102.33 13.7526C103.078 14.0633 103.831 14.3615 104.583 14.6633C105.079 14.174 105.21 15.4853 105.727 14.8957C106.076 15.0895 106.366 15.311 106.649 15.6315C107.044 16.0781 107.662 16.3983 108.245 16.5877C108.815 16.773 109.121 17.4186 109.782 17.3743C110.069 18.0383 110.791 17.9291 111.298 18.192C111.75 18.4259 111.894 18.9044 112.391 19.1468C113.318 19.5989 114.157 20.2774 114.941 20.9656C116.242 22.1074 117.575 23.2036 118.971 24.2255C119.081 24.3059 119.147 24.443 119.249 24.5364C119.961 25.1859 120.257 26.3024 121.406 26.461C121.605 27.3739 122.906 27.3633 123.008 28.3769C123.024 28.5285 123.212 28.6973 123.362 28.7954C124.616 29.6196 125.335 30.9083 126.268 32.0197C126.992 32.8815 127.574 33.8696 128.465 34.6044C129.022 35.0635 129.619 35.5526 129.666 36.3899C129.672 36.5026 129.787 36.6159 129.867 36.717C130.43 37.4296 130.995 38.1398 131.562 38.8491C131.842 39.1999 132.135 39.5414 132.406 39.8985C132.542 40.0766 132.717 40.2692 132.748 40.4743C132.857 41.1888 133.268 41.6991 133.739 42.2041C134.115 42.6075 134.404 43.0551 134.479 43.6575C134.535 44.1134 134.578 44.6591 135.125 44.9246C135.273 44.9965 135.381 45.1979 135.458 45.3631C136.235 47.0355 136.987 48.7196 137.777 50.3861C138.33 51.5551 139.005 52.6715 139.495 53.8651C140.349 55.9474 141.107 58.0691 141.894 60.1789C142.071 60.6535 142.252 60.9298 142.747 60.4665C142.859 60.3615 143.094 60.3798 143.275 60.357C143.596 60.3163 143.601 60.1459 143.541 59.8719C143.452 59.4741 143.446 59.0588 143.366 58.6584C143.298 58.3128 143.352 58.0492 143.595 57.769C143.79 57.5433 144.012 57.199 143.976 56.9424C143.893 56.3642 143.942 55.8315 144.14 55.2973C144.156 55.2553 144.204 55.1958 144.191 55.1768C143.435 54.0968 144.682 52.9999 144.167 51.9087C144.113 51.7933 144.284 51.5864 144.309 51.4159C144.411 50.736 144.52 50.0558 144.579 49.3716C144.614 48.9681 144.547 48.5569 144.545 48.149C144.54 47.3238 144.901 46.5264 144.64 45.665C144.554 45.3833 144.846 44.9888 144.962 44.645C145.253 43.7859 145.609 42.9417 145.813 42.0623C145.995 41.2766 146.771 40.9073 146.983 40.1657C146.997 40.1181 147.351 40.0776 147.431 40.1543C147.917 40.6254 148.211 41.2052 148.102 41.8996C147.904 43.1654 147.873 44.4477 147.675 45.7159C147.543 46.5669 147.652 47.4527 147.58 48.3168C147.534 48.8602 147.309 49.387 147.247 49.9306C147.187 50.4599 147.139 51.0217 147.251 51.533C147.478 52.5718 147.331 53.608 147.058 54.555C146.821 55.3751 146.793 56.1592 146.845 56.9556C146.889 57.6144 146.64 58.197 146.582 58.8209C146.546 59.2095 146.332 59.5296 146.405 59.9889C146.516 60.6879 146.361 61.4294 146.318 62.1529C145.589 62.5988 145.888 63.424 145.615 64.0345C145.531 64.2217 145.319 64.4531 145.139 64.4793C143.506 64.7166 141.911 64.7246 140.599 63.4747C140.4 63.2849 140.173 63.1245 139.961 62.9478C139.069 62.2036 137.844 61.8336 137.356 60.6337C136.119 59.9634 135.264 58.8499 134.223 57.9528C133.894 57.6691 133.407 57.4366 132.985 57.4236C132.408 57.4059 132.735 56.8136 132.352 56.6872C131.926 56.5469 131.551 56.2587 131.139 56.065C130.977 55.9884 130.768 56.0138 130.598 55.9484C130.544 55.9278 130.491 55.7198 130.53 55.6714C130.818 55.3117 130.638 54.9837 130.528 54.626C130.486 54.4866 130.57 54.2284 130.685 54.1428C130.801 54.0559 131.101 54.0377 131.191 54.1243C131.527 54.4464 131.871 54.5215 132.34 54.5719C132.701 54.6106 133.506 54.7174 133.319 55.5506C133.316 55.5662 133.635 55.6892 133.648 55.6682C133.816 55.3883 134.01 55.1726 134.183 55.6223C134.356 56.0738 134.534 56.3128 135.081 56.1421C135.49 56.0145 135.51 56.0795 135.471 56.6402C135.467 56.7046 135.463 56.8204 135.486 56.8278C136.048 57.0086 136.605 57.2258 137.183 57.33C137.49 57.3854 137.433 57.2233 137.223 57.0594C137.121 56.9803 137.042 56.6734 137.085 56.6389C137.513 56.3021 137.285 55.8919 137.098 55.6451C136.777 55.2209 136.567 54.837 136.726 54.2949C136.84 53.9044 136.676 53.6203 136.375 53.321C135.843 52.7911 135.395 52.1774 134.911 51.5988C135.197 50.6379 134.385 49.9483 134.288 49.0819C134.273 48.9463 134.299 48.723 134.232 48.6886C133.24 48.1852 133.327 47.0111 132.714 46.2688C132.461 45.9622 132.609 45.3195 131.916 45.3842C131.851 45.3903 131.681 45.1598 131.706 45.1018C131.984 44.4539 131.191 44.3873 131.084 43.9233C130.973 43.4435 130.733 42.9742 130.465 42.5539C129.883 41.6413 129.592 40.5217 128.576 39.9053C128.414 39.8067 128.386 39.5033 128.266 39.3143C127.947 38.8156 127.673 38.2649 127.261 37.8575C126.983 37.5835 126.717 37.3917 126.729 36.9653C126.732 36.8523 126.632 36.645 126.559 36.6349C125.622 36.5054 125.578 35.4923 124.968 35.0223C124.684 34.8042 124.604 34.3143 124.122 34.251C124.051 34.2416 123.949 34.1321 123.937 34.0564C123.768 33.0315 122.817 32.5462 122.347 31.7326C122.234 31.5365 122.175 31.309 122.06 31.1139C121.968 30.9576 121.858 30.7577 121.708 30.6984C120.29 30.1371 119.365 28.9937 118.376 27.9231C118.282 27.8207 118.202 27.7043 118.114 27.5963C117.661 27.0458 116.86 26.9817 116.487 26.2162C116.21 25.6477 115.507 25.2691 114.957 24.8558C114.373 24.4178 113.738 24.0501 113.142 23.6271C112.964 23.5001 112.847 23.2873 112.696 23.12C112.518 22.9243 112.323 22.5633 112.153 22.5733C111.386 22.6186 111.068 21.9792 110.562 21.641C109.57 20.9783 108.608 20.2708 107.612 19.6137C106.32 18.7607 104.827 18.2639 103.576 17.321C103.192 17.0319 102.635 16.9816 102.169 16.7917C100.346 16.0484 98.6279 15.0596 96.724 14.503C96.3906 14.4056 96.1017 14.1503 95.7986 13.9578C95.7111 13.9023 95.6186 13.7337 95.5742 13.7491C94.8805 13.9891 94.3372 13.5505 93.7302 13.3795C92.3591 12.9933 90.9382 12.7536 89.6073 12.2644C88.5067 11.8599 87.3034 12.1581 86.2588 11.5999C84.8156 11.8011 83.4874 11.1118 82.0625 11.0753C79.6192 11.0129 77.1913 10.8004 74.7303 10.9288C72.7979 11.0297 70.8564 11.2378 68.9066 11.1457C68.2378 11.1141 67.5263 11.2659 66.8872 11.4869C65.7012 11.8972 64.4288 11.7198 63.2507 12.1148C63.2087 12.1289 63.1522 12.1036 63.1125 12.1203C61.6202 12.7505 60.0493 12.9388 58.4468 12.974C58.2814 12.9777 58.1217 13.1258 57.955 13.1966C57.4135 13.4266 56.884 13.6998 56.3231 13.8655C55.768 14.0294 55.1618 14.0249 54.6119 14.2004C53.9804 14.4019 53.3851 14.7179 52.7765 14.9895C52.6931 15.0268 52.6304 15.123 52.5461 15.1441C51.747 15.3435 50.9455 15.4188 50.1645 15.8239C49.4824 16.1777 48.6607 16.3792 47.831 16.496C47.1113 16.5974 46.4601 17.1729 45.7739 17.5298C45.5908 17.6251 45.3257 17.8067 45.2099 17.7435C44.771 17.5044 44.712 17.6231 44.4766 18.0504C44.2911 18.3869 43.6371 18.5202 43.1647 18.6321C42.0859 18.8876 41.1612 19.3736 40.3089 20.0892C40.0013 20.3476 39.4521 20.3262 39.0093 20.4131C38.6906 20.4757 38.3394 20.4703 38.4473 20.9702C38.4574 21.0171 38.2878 21.116 38.1904 21.1705C37.7099 21.4396 37.2517 21.7834 36.7367 21.948C35.8694 22.2252 35.3219 22.9386 34.5895 23.3632C33.2882 24.1174 32.0832 25.0492 30.6649 25.6C30.5504 25.6445 30.4408 25.7417 30.3661 25.842C29.7131 26.7196 28.5577 27.0959 28.0727 28.1426C28.0402 28.2127 27.9295 28.2447 27.8589 28.2993C27.5874 28.5091 27.0346 28.2175 26.9891 28.507C26.9054 29.0396 26.4479 28.9543 26.2046 29.1897C25.9569 29.4294 25.5041 29.5582 25.7537 30.0658C25.7726 30.1044 25.6306 30.2268 25.5578 30.3051C25.1613 30.7314 24.2535 30.5419 24.2212 31.4133C24.2202 31.4396 24.1429 31.4914 24.1123 31.4842C23.2846 31.2882 23.0771 31.7446 23.0457 32.448C23.039 32.5985 22.8711 32.7648 22.7403 32.8826C22.0889 33.4695 21.5067 34.2303 20.7407 34.5634C20.0874 34.8476 19.7601 35.1277 19.6363 35.7877C19.6028 35.9663 19.3473 35.9745 19.2081 35.767C18.9347 35.3596 19.0378 34.9662 19.2858 34.6053C19.4664 34.3425 19.6578 34.056 19.9137 33.8826C20.4349 33.5293 20.7106 33.0234 21.0039 32.4987C21.1708 32.2 21.2706 31.6113 21.8852 31.9995C21.9284 32.0268 22.1342 31.8751 22.2043 31.7675C22.4977 31.3169 22.7761 30.8559 23.0448 30.39C23.3163 29.9192 23.5588 29.5072 24.0934 29.1841C24.7282 28.8004 25.0958 28.0023 25.6788 27.4991C26.7141 26.6054 27.6994 25.6614 28.7956 24.8208C30.2274 23.723 31.7581 22.7587 33.1575 21.6022C34.305 20.6538 35.7309 20.0091 36.9788 19.133C37.2505 18.9422 37.6677 18.8102 38.0112 18.6192C38.7462 18.2107 39.2788 17.4181 40.236 17.427C40.5212 16.9032 41.0512 16.7147 41.5481 16.4935C41.7328 16.4113 42.0604 16.3069 42.1409 16.3896C42.671 16.9341 42.7805 16.1298 43.1207 16.1177C43.1834 16.1716 43.246 16.2255 43.3087 16.2793C43.2409 16.2297 43.1731 16.18 43.1053 16.1304ZM136.844 52.317L136.773 52.4022L136.873 52.4259L136.844 52.317ZM25.1003 28.601C25.0702 28.6204 25.0401 28.6399 25.0099 28.6593C25.0603 28.6705 25.1106 28.6816 25.161 28.6927C25.1407 28.6622 25.1205 28.6316 25.1003 28.601ZM104.49 15.206C104.521 15.188 104.552 15.1699 104.583 15.1519C104.563 15.1222 104.548 15.0765 104.521 15.0678C104.5 15.0613 104.449 15.0961 104.441 15.122C104.434 15.1427 104.472 15.1775 104.49 15.206Z" fill="#1A3541"/>
</svg>
