<svg width="170" height="8" viewBox="0 0 170 8" fill="none" xmlns="http://www.w3.org/2000/svg">
<path d="M0.7764 3.94857C0.44446 3.77716 0.507377 3.53438 0.744342 3.38073C0.944964 3.25064 1.25488 3.1229 1.45166 3.18843C1.83433 3.31589 2.16836 3.11237 2.52367 3.15788C2.91827 3.2084 3.28577 3.12481 3.63247 2.93277C3.74194 2.87214 3.86001 2.77921 3.97317 2.78063C4.93968 2.79289 5.90016 2.76576 6.85548 2.58541C7.05308 2.54812 7.2825 2.66068 7.49352 2.71792C7.71681 2.7785 7.91603 2.86062 8.0398 2.54192C8.07511 2.45093 8.31785 2.36271 8.43181 2.39435C8.81151 2.49979 9.14907 2.49347 9.46348 2.23145C9.50502 2.19684 9.62543 2.17995 9.64044 2.20192C9.85207 2.51141 10.0714 2.11031 10.3183 2.22701C10.8579 2.48215 11.417 2.36501 11.9953 2.2641C12.5281 2.17106 13.0624 1.92773 13.653 2.15394C13.9171 2.25506 14.2611 2.19821 14.5861 2.03897C15.0385 1.81722 15.5518 1.74844 16.0795 1.77944C16.5176 1.80515 16.9565 1.84469 17.4039 1.6291C17.6315 1.5194 18.0473 1.8224 18.2945 1.7256C18.587 1.61107 18.8915 1.52666 19.1313 1.62068C19.5785 1.79599 19.9732 1.68128 20.4007 1.61156C20.7507 1.55451 21.1167 1.59256 21.4756 1.59481C21.7671 1.59665 22.0784 1.62393 22.2945 1.39568C22.5713 1.10344 22.9475 1.4569 23.2173 1.21608C23.8181 1.63107 24.4932 1.12168 25.1263 1.38035C25.5142 1.53889 25.8915 1.10438 26.3868 1.3005C26.7489 1.44391 27.2699 1.28431 27.6866 1.15331C27.9204 1.07982 28.0792 1.13614 28.2858 1.14675C29.1422 1.19082 30.0271 1.4012 30.8479 0.959216C30.9678 0.894663 31.0413 0.912849 31.1705 0.931972C31.996 1.0541 32.851 1.15742 33.6238 0.788545C33.9397 0.637803 34.2078 0.926663 34.4823 0.703075C34.8134 0.433405 35.0707 0.800093 35.3652 0.861993C35.7327 0.939263 36.0928 0.814087 36.4475 0.776254C36.686 0.750803 36.8603 0.563428 37.1364 0.781499C37.2569 0.876694 37.5561 0.744292 37.7745 0.717598C37.8899 0.703471 38.0824 0.646671 38.1098 0.690488C38.3478 1.07212 38.6599 0.807393 38.9352 0.803498C39.19 0.799911 39.4442 0.748569 39.6987 0.748446C39.9322 0.748375 40.1669 0.814145 40.399 0.804063C40.6495 0.793188 40.8999 0.738086 41.1463 0.683738C41.421 0.623124 41.6897 0.490384 41.9636 0.483026C42.2683 0.474847 42.5815 0.552063 42.8797 0.633607C43.0118 0.669721 43.1161 0.807789 43.233 0.899592C43.3189 0.439964 43.6871 0.617772 43.9338 0.626426C44.4877 0.645832 45.0383 0.476063 45.5946 0.61392C45.7056 0.641434 45.8404 0.574185 45.964 0.549589C46.1803 0.506565 46.3958 0.46016 46.6126 0.419824C47.1004 0.329 47.5298 0.825677 48.0893 0.470278C48.4528 0.239375 48.9757 0.498206 49.4425 0.453146C50.0016 0.399177 50.5798 0.585867 51.1522 0.611177C51.4941 0.626308 51.8483 0.689223 52.1909 0.466755C52.3366 0.372159 52.7334 0.401693 52.8134 0.516267C53.0888 0.910672 53.4134 0.665872 53.6443 0.587483C54.0544 0.448119 54.4264 0.32028 54.8406 0.533345C54.9186 0.573452 55.0543 0.618566 55.102 0.581782C55.4863 0.285921 55.9226 0.462666 56.3322 0.431953C56.7216 0.402774 57.1156 0.438591 57.506 0.416435C57.8989 0.394157 58.3827 0.35533 58.6481 0.517397C59.016 0.742086 59.3412 0.153843 59.6053 0.586918C60.0286 0.301642 60.4475 0.368099 60.8641 0.603082C61.4485 0.0867882 62.1591 0.896528 62.7477 0.423804C63.2188 0.488049 63.6884 0.569052 64.1614 0.611661C64.6116 0.652217 65.0904 0.570502 65.5095 0.697723C65.8251 0.793517 66.0204 0.746895 66.3099 0.655445C66.6284 0.554901 66.9686 0.324872 67.3793 0.590065C67.5862 0.723666 67.953 0.592509 68.2444 0.617228C68.5585 0.643851 68.868 0.721262 69.1815 0.759553C69.3321 0.77791 69.5203 0.811693 69.6339 0.743147C69.889 0.58918 70.0931 0.581304 70.3498 0.741722C70.4611 0.811201 70.6643 0.798809 70.8007 0.751511C71.4311 0.532797 72.053 0.560236 72.6827 0.743981C72.8332 0.787886 73.059 0.864075 73.1431 0.795053C73.5231 0.482845 73.8654 0.814116 74.2211 0.81431C74.5986 0.814477 74.995 0.723802 75.3447 0.991436C75.4137 1.04421 75.6474 1.00838 75.6988 0.936948C76.0414 0.460549 76.4934 0.772256 76.8101 0.860084C77.422 1.02987 77.9889 1.10013 78.5805 0.859196L79.3899 1.01026C79.5964 1.0573 79.9303 1.20671 79.9883 1.13446C80.3117 0.732026 80.6845 1.0876 81.015 1.00749C81.3374 1.38717 81.7457 0.957055 82.1408 1.13941C82.4918 1.30138 82.9756 1.24176 83.3884 1.18672C83.913 1.11679 84.4187 1.09037 84.9449 1.18774C85.4743 1.28571 86.0384 1.0894 86.5575 1.38358C86.6816 1.45392 86.8808 1.37791 87.0405 1.402C87.4815 1.46854 87.9182 1.35148 88.3802 1.51429C88.722 1.63472 89.1729 1.40223 89.5729 1.4126C90.015 1.42407 90.4538 1.33124 90.9114 1.51394C91.244 1.6467 91.6434 1.30128 92.0663 1.57211C92.2608 1.69665 92.6569 1.45979 92.9534 1.48465C93.258 1.51017 93.6308 1.81814 93.8377 1.7189C94.6587 1.32502 95.4004 2.00849 96.1905 1.79703C96.5228 1.70812 96.8827 1.8619 97.2292 1.64198C97.3875 1.54148 97.6989 1.60838 97.9113 1.68324C98.2671 1.80857 98.5636 1.92943 98.993 1.84038C99.2963 1.7775 99.7313 1.80361 100.109 1.97125C100.473 2.13284 100.95 1.82789 101.319 2.1558C101.778 1.78938 102.234 2.15484 102.69 2.15058C102.965 2.14805 103.252 1.96553 103.51 2.00739C104.078 2.09951 104.644 2.17242 105.216 2.2304C105.423 2.25136 105.585 2.39974 105.816 2.23519C105.913 2.16631 106.115 2.23531 106.267 2.25606C106.517 2.29019 106.806 2.43784 107.007 2.35834C107.676 2.09431 108.334 2.28675 108.956 2.41035C109.541 2.52657 110.071 2.41008 110.587 2.27779C110.97 2.17947 111.242 2.25235 111.584 2.35796C111.916 2.4604 112.259 2.6512 112.667 2.44427C112.847 2.3529 113.238 2.1613 113.39 2.63282C113.413 2.70309 113.819 2.76092 113.871 2.6918C114.161 2.30565 114.532 2.51215 114.797 2.5991C115.367 2.78564 115.934 2.74824 116.509 2.77886C117.077 2.80919 117.675 2.61518 118.213 2.95354C118.637 2.53579 119.175 3.10693 119.627 2.79023C119.732 2.71645 119.993 2.72651 120.094 2.80755C120.706 3.29471 121.374 2.8735 122.009 2.94843C122.345 2.98808 122.733 2.61824 123.007 3.10207C123.268 3.0402 123.529 2.83522 123.79 3.10371C124.39 2.65334 125.075 3.51928 125.676 2.98659C125.699 2.96577 125.789 3.02057 125.848 3.03917C126.266 3.17066 126.812 3.21823 127.271 3.16912C127.368 3.15879 127.478 3.13636 127.563 3.16829C128.335 3.45707 129.165 3.23598 129.933 3.43801C130.249 3.5212 130.44 3.23079 130.735 3.35122C130.97 3.44737 131.213 3.6933 131.516 3.37476C131.693 3.18876 131.947 3.587 132.202 3.42763C132.425 3.28906 132.613 3.39762 132.832 3.49382C133.025 3.57909 133.276 3.52698 133.499 3.55664C134.132 3.64106 134.796 3.37943 135.404 3.73003C136.068 3.50277 136.677 3.77894 137.3 3.93402C137.361 3.94925 137.454 3.96213 137.492 3.9295C137.998 3.49118 138.574 3.88962 139.115 3.81399C139.307 3.78711 139.538 4.01092 139.819 3.85189C139.999 3.74971 140.278 4.09608 140.472 3.78156C141.029 3.8691 141.593 3.92845 142.141 4.0555C142.433 4.12335 142.693 4.20373 142.963 4.01871C143.013 3.98437 143.103 3.93553 143.133 3.95551C143.541 4.22792 144.002 3.9297 144.451 4.10496C144.779 4.23345 145.188 4.55075 145.623 4.17715C145.714 4.09921 146.027 4.3336 146.235 4.32867C146.779 4.31584 147.321 4.24195 147.864 4.20754C148.56 4.16349 149.228 4.30927 149.891 4.51058C150.063 4.56307 150.348 4.86707 150.439 4.39846C150.443 4.38046 150.505 4.35222 150.516 4.36057C151.104 4.80052 151.685 4.2227 152.263 4.34785C152.827 4.46986 153.396 4.50987 153.966 4.5722C154.367 4.61606 154.794 4.5915 155.179 4.76761C155.256 4.8027 155.399 4.86284 155.411 4.84477C155.803 4.25262 156.365 4.59198 156.702 4.76581C157.26 5.05376 157.791 4.74386 158.322 4.90028C158.65 4.997 159.005 4.99101 159.352 5.07289C159.795 5.17743 160.299 5.05479 160.772 4.99403C161.248 4.93285 161.716 4.82862 162.179 5.0567C162.26 5.09709 162.373 5.13521 162.452 5.11097C162.782 5.00963 163.075 4.84366 163.462 4.98833C163.781 5.10729 164.204 4.99314 164.486 5.15129C164.807 5.33164 165.176 4.9564 165.423 5.31548C166.204 5.21834 166.979 5.50254 167.769 5.33753C168.068 5.27508 168.405 5.24587 168.697 5.48972C168.855 5.62113 169.192 5.61475 169.259 5.75861C169.352 5.95897 169.262 6.24181 169.261 6.48939C169.26 6.95329 168.753 7.14698 168.676 7.59318C168.656 7.71015 168.247 7.89287 168.108 7.83276C167.574 7.60126 167.026 7.78159 166.491 7.72047C165.921 7.65539 165.351 7.53345 164.733 7.61892C164.031 7.71597 163.279 7.52234 162.562 7.38276C162.363 7.34395 162.219 7.26642 162.045 7.40705C162 7.44337 161.927 7.45625 161.866 7.46048C161.282 7.50083 160.719 7.25007 160.108 7.44564C159.547 7.62537 158.981 7.32633 158.434 7.18584C157.661 6.9873 156.862 6.98762 156.135 7.16053C155.63 7.2809 155.163 7.21217 154.718 7.16828C154.245 7.12162 153.719 7.0915 153.263 6.78845C153.083 6.66849 152.728 6.81506 152.452 6.83272C151.849 6.87143 151.241 7.00758 150.653 6.72097C150.545 6.66861 150.399 6.69404 150.271 6.68577C149.667 6.64683 149.04 6.83647 148.464 6.5102C148.129 6.72765 147.749 6.73437 147.416 6.58825C146.881 6.35317 146.345 6.69741 145.81 6.51058C145.55 6.41988 145.256 6.51158 144.971 6.34978C144.774 6.23807 144.467 6.29976 144.212 6.31823C143.984 6.33472 142.992 6.34926 142.861 6.28009C142.724 6.20813 142.621 6.2061 142.455 6.22152C141.954 6.26791 141.443 6.19998 140.936 6.17192C140.876 6.16856 140.789 6.10031 140.762 6.12177C140.299 6.48859 139.852 6.14101 139.397 6.11028C138.91 6.07738 138.42 6.0797 137.93 6.08441C137.231 6.09117 136.518 6.22431 135.823 5.9267C135.574 5.8198 135.243 5.91183 134.95 5.89612C133.761 5.83238 132.559 6.07351 131.379 5.72255C131.152 5.65503 130.874 5.77606 130.619 5.77712C130.386 5.77807 130.153 5.71707 129.92 5.7141C129.492 5.7087 129.069 5.46672 128.638 5.69208C128.278 5.31677 127.82 5.67685 127.413 5.53254C127.212 5.46144 126.935 5.63764 126.705 5.60776C126.496 5.58064 126.307 5.35139 126.103 5.34205C125.589 5.31855 125.061 5.31106 124.56 5.40823C124.171 5.48364 123.837 5.44051 123.456 5.39576C122.919 5.33285 122.374 4.9271 121.809 5.29896C121.209 4.87689 120.569 5.4777 119.887 5.17162C119.312 4.91355 118.554 5.05557 117.876 5.03516C117.471 5.02294 117.061 5.07537 116.66 5.03222C116.234 4.98636 115.837 4.81897 115.392 5.06106C115.226 5.15123 114.915 4.93316 114.669 4.92812C114.379 4.92217 114.092 4.53511 113.794 4.90762C113.782 4.92357 113.73 4.91668 113.699 4.9087C113.463 4.84687 113.366 4.45762 112.977 4.69562C112.763 4.82683 112.403 4.73799 112.111 4.72227C111.052 4.66541 109.993 4.60644 108.936 4.53116C107.907 4.45792 106.874 4.65965 105.84 4.41842C105.593 4.36072 105.244 4.44646 104.948 4.46895C104.286 4.51926 103.666 4.26302 103.011 4.32415C102.703 4.35291 102.39 4.27392 102.075 4.20313C101.559 4.08759 100.992 4.20248 100.446 4.22421C100.261 4.23155 99.982 4.33453 99.9088 4.25097C99.5435 3.83401 99.0778 3.97199 98.6391 3.93927C98.3213 3.91556 98.0051 3.85319 97.6876 3.84853C97.429 3.84477 97.1654 4.0005 96.9246 3.75956C96.8751 3.71004 96.7262 3.72263 96.6397 3.75329C96.0205 3.97279 95.4045 4.07567 94.7836 3.76459C94.0969 4.25136 93.4308 3.6564 92.7365 3.71588C92.0425 3.77534 91.3306 3.58667 90.6244 3.55481C89.9081 3.52248 89.1889 3.56148 88.4716 3.54371C88.1666 3.53618 87.8175 3.34955 87.5705 3.44869C87.2431 3.57994 87.0328 3.50981 86.7655 3.37511C86.6727 3.32835 86.5174 3.39178 86.3949 3.42206C86.2734 3.45208 86.1164 3.57547 86.0452 3.53488C85.366 3.14698 84.5668 3.576 83.8858 3.2015C83.7585 3.13148 83.5547 3.21253 83.4108 3.15847C83.0557 3.02506 82.7953 3.43326 82.4063 3.26949C82.0981 3.13976 81.7132 3.20067 81.3654 3.15409C81.0544 3.1125 80.7004 2.91645 80.4509 3.0119C80.1422 3.13001 79.9332 3.10685 79.6606 2.98869C79.5229 2.92894 79.3255 2.93434 79.1784 2.98207C78.7426 3.12353 78.2915 3.04416 77.8502 3.09196C77.3953 3.14127 76.9105 3.05938 76.4587 2.95136C76.021 2.84672 75.6075 2.99423 75.1837 2.96053C74.5166 2.90752 73.8567 3.02125 73.176 2.79717C72.5531 2.59214 71.8285 2.93372 71.172 2.62188C71.0892 2.58254 70.9451 2.69653 70.8277 2.70202C69.7703 2.75154 68.7098 2.92598 67.6595 2.62467C67.5083 2.58127 67.3135 2.52663 67.1881 2.58428C66.6601 2.82717 66.13 2.45992 65.6386 2.59743C65.1894 2.72312 64.736 2.60418 64.2931 2.7525C64.0644 2.8291 63.7341 2.82766 63.5341 2.71359C63.2159 2.53216 62.9043 2.58233 62.5887 2.57753C61.7082 2.56412 60.8209 2.50768 59.9493 2.59584C59.4988 2.6414 59.1045 2.25116 58.6691 2.51473C58.2897 2.74443 57.8825 2.28217 57.5088 2.569C56.9236 2.33593 56.2934 2.2902 55.7042 2.40129C55.2641 2.48423 54.836 2.58844 54.3876 2.56669C53.9433 2.54515 53.4871 2.66214 53.0612 2.40113C52.941 2.32744 52.7333 2.34862 52.5798 2.38504C51.6912 2.59582 50.809 2.49587 49.919 2.39233C49.4685 2.33994 48.9374 2.24317 48.5687 2.42361C48.1614 2.62289 47.7846 2.2373 47.4133 2.53907C47.2954 2.63486 46.987 2.49583 46.7657 2.46495C46.5773 2.43869 46.3074 2.32166 46.2147 2.4039C45.8539 2.7239 45.4559 2.27845 45.065 2.53988C44.7799 2.73057 44.2753 2.62957 44.0049 2.48248C43.5846 2.25383 43.2808 2.76959 42.9388 2.51831C42.5848 2.25813 42.2708 2.50731 41.9395 2.5629C41.8442 2.57894 41.7425 2.58006 41.6466 2.5668C41.2398 2.51058 40.8204 2.35425 40.4318 2.41164C40.0601 2.46659 39.6952 2.57636 39.3086 2.58358C38.9915 2.58946 38.6758 2.66362 38.3586 2.67139C38.0625 2.67868 37.7279 2.54358 37.4776 2.64215C37.1324 2.77813 36.8851 2.46495 36.5738 2.57019C36.4269 2.6198 36.254 2.58612 36.0983 2.61736C35.9462 2.6479 35.8043 2.73254 35.652 2.75761C35.4928 2.78379 35.2911 2.82799 35.1704 2.7575C34.858 2.57527 34.535 2.8199 34.215 2.66773C33.9983 2.56467 33.653 2.49436 33.4716 2.59711C32.7849 2.98615 31.9943 2.55057 31.3069 2.93043C31.159 3.01222 30.9023 2.65982 30.6153 2.9129C30.5244 2.99306 30.2082 2.76373 30.0003 2.77458C29.0396 2.8247 28.0795 2.8966 27.1228 2.99641C26.9843 3.01082 26.8683 3.02847 26.7218 3.02252C26.0575 2.99537 25.3717 2.7943 24.7292 3.14537C24.2031 2.98895 23.6635 3.20654 23.1589 3.13346C22.4245 3.02708 21.7475 3.16204 21.0517 3.30782C20.8334 3.35351 20.6026 3.34847 20.3774 3.35052C19.6923 3.35681 19.0062 3.37785 18.3221 3.35171C17.0955 3.30481 15.8949 3.54213 14.6814 3.63603C14.4812 3.65152 14.2718 3.54366 14.0709 3.55702C13.2721 3.61019 12.475 3.68876 11.6773 3.75792C11.328 4.13179 10.9115 3.79839 10.5371 3.8688C10.1228 3.94674 9.74425 3.92626 9.32029 3.83449C8.92725 3.74936 8.47278 3.95185 8.04464 4.02331C7.79477 4.06501 7.53255 4.16171 7.29526 4.12094C6.89607 4.05235 6.51281 4.11074 6.12159 4.13067C5.73097 4.15058 5.31895 4.06474 4.95158 4.16058C4.15603 4.36808 3.35428 4.30553 2.55368 4.34448C2.21222 4.36107 1.80865 4.60128 1.68683 4.02366C1.68476 4.01389 1.45178 4.00762 1.37991 4.0657C1.08387 4.30501 1.09148 4.3144 0.768654 3.94099C0.834036 3.87562 0.899386 3.81021 0.964768 3.74482C1.01517 3.72204 1.06562 3.69928 1.11602 3.67648C1.09025 3.65098 1.06444 3.62547 1.03867 3.59994C1.01658 3.6507 0.994517 3.70148 0.972406 3.75222C0.907086 3.81765 0.841738 3.88314 0.7764 3.94857Z" fill="#5DC58F"/>
</svg>
