<?xml version="1.0" encoding="utf-8"?>
<!-- Generator: Adobe Illustrator 26.0.1, SVG Export Plug-In . SVG Version: 6.00 Build 0)  -->
<svg version="1.1" xmlns="http://www.w3.org/2000/svg" xmlns:xlink="http://www.w3.org/1999/xlink" x="0px" y="0px"
	 viewBox="0 0 500 500" style="enable-background:new 0 0 500 500;" xml:space="preserve">
<style type="text/css">
	.st0{fill:#92E3A9;}
	.st1{opacity:0.8;fill:#FFFFFF;}
	.st2{fill:none;stroke:#263238;stroke-linecap:round;stroke-linejoin:round;stroke-miterlimit:10;}
	.st3{fill:none;stroke:#263238;stroke-miterlimit:10;}
	.st4{fill:#1A3641;stroke:#263238;stroke-linecap:round;stroke-linejoin:round;stroke-miterlimit:10;}
	.st5{fill:#1A3641;}
	.st6{fill:#00C88B;stroke:#263238;stroke-linecap:round;stroke-linejoin:round;stroke-miterlimit:10;}
	.st7{fill:#FFFFFF;stroke:#263238;stroke-linecap:round;stroke-linejoin:round;stroke-miterlimit:10;}
	.st8{fill:#B2B2B2;stroke:#263238;stroke-linecap:round;stroke-linejoin:round;stroke-miterlimit:10;}
	.st9{display:none;}
	.st10{display:inline;}
	.st11{fill:#FFFFFF;stroke:#263238;stroke-width:0.75;stroke-linecap:round;stroke-linejoin:round;stroke-miterlimit:10;}
	.st12{display:inline;fill:#FFFFFF;stroke:#263238;stroke-linecap:round;stroke-linejoin:round;stroke-miterlimit:10;}
	.st13{display:inline;fill:#00C88B;stroke:#263238;stroke-linecap:round;stroke-linejoin:round;stroke-miterlimit:10;}
	.st14{display:inline;fill:#1A3641;stroke:#263238;stroke-linecap:round;stroke-linejoin:round;stroke-miterlimit:10;}
	.st15{display:inline;fill:none;stroke:#263238;stroke-linecap:round;stroke-linejoin:round;stroke-miterlimit:10;}
</style>
<g id="Background_Simple">
	<g>
		<path class="st0" d="M465.7,377.4c27.8-59.7,29.7-139.2,10.5-203c-16.5-54.9-53.3-96.8-95.8-121.7
			c-49.3-28.9-108.1-37.5-160.9-19.3c-13.9,4.8-27.5,9.2-40.6,17.1c-53.8,32.3-43.4,112-62.3,139.8c-15.9,23.3-46.2,16.4-65.4,34.3
			c-51.6,48.2-51.8,170.1,7.8,208.2C122.3,473.3,396.9,525.2,465.7,377.4z"/>
		<path class="st1" d="M465.7,377.4c27.8-59.7,29.7-139.2,10.5-203c-16.5-54.9-53.3-96.8-95.8-121.7
			c-49.3-28.9-108.1-37.5-160.9-19.3c-13.9,4.8-27.5,9.2-40.6,17.1c-53.8,32.3-43.4,112-62.3,139.8c-15.9,23.3-46.2,16.4-65.4,34.3
			c-51.6,48.2-51.8,170.1,7.8,208.2C122.3,473.3,396.9,525.2,465.7,377.4z"/>
	</g>
</g>
<g id="Floor">
</g>
<g id="Diamonds">
</g>
<g id="Calendar">
</g>
<g id="Clock">
</g>
<g id="Board_3">
</g>
<g id="Board_2">
</g>
<g id="Board_1">
</g>
<g id="Plants">
</g>
<g id="Cards_3">
</g>
<g id="Cards_2">
</g>
<g id="Cards_1">
</g>
<g id="Character_2">
</g>
<g id="Speech_Bubble">
	<g>
		<g>
			<line class="st2" x1="8.4" y1="473.2" x2="493.8" y2="473.2"/>
			
				<rect x="96.2" y="70.8" transform="matrix(0.7071 -0.7071 0.7071 0.7071 -24.9675 96.1906)" class="st2" width="14.9" height="14.9"/>
			
				<rect x="33.1" y="363.2" transform="matrix(0.7071 -0.7071 0.7071 0.7071 -249.0521 134.5371)" class="st2" width="9.5" height="9.5"/>
			<g>
				
					<ellipse transform="matrix(0.7071 -0.7071 0.7071 0.7071 -205.4447 149.8545)" class="st3" cx="78.2" cy="322.9" rx="40.2" ry="40.2"/>
				<circle class="st3" cx="78.2" cy="322.9" r="35"/>
				<polyline class="st3" points="67.5,332.5 78.2,322.9 58.3,304.8 				"/>
			</g>
			<g>
				<path class="st2" d="M24.1,361.1V104.4c0-3.3,2.7-6,6-6h126.6c3.3,0,6,2.7,6,6v352.7H24.1v-87.2"/>
				<path class="st4" d="M162.7,119.9H24.1v-15.5c0-3.3,2.7-6,6-6h126.6c3.3,0,6,2.7,6,6V119.9z"/>
			</g>
			<g>
				<path class="st5" d="M61.3,424.5c-2,0.6-6.5-0.1-6.5-0.1c0,0,1.4-2.9,1.5-3c1.3-2,4.9-5,7.4-4.4c1.8,0.5,2.6,2.5,2,4.2
					C65,422.9,63,424,61.3,424.5z"/>
				<path class="st5" d="M18.9,422.6c0,0-0.4-3.1-0.5-3.3c0-2.3,1.3-6.9,3.8-7.7c1.8-0.6,3.5,0.6,3.9,2.4c0.4,1.8-0.6,3.8-1.8,5.1
					C23.1,420.7,18.9,422.6,18.9,422.6z"/>
				<path class="st5" d="M9.2,414.2c1.4,0.8,4.6,1.1,5.4,1.2c0.4,0.5,0.8,1.1,1.3,1.8c0.8,1.2,1.7,2.5,2.5,4
					c0.2,0.4,0.5,0.8,0.7,1.3c-0.5-0.6-1.3-1.5-1.4-1.6c-1.5-1.4-5.2-3.2-7.2-2.1c-1.4,0.8-1.7,2.7-0.8,4c0.9,1.3,2.9,1.8,4.4,1.9
					c1.6,0.1,4.7-1.2,5.4-1.5c0.5,0.9,1,1.9,1.4,3c0.8,1.8,1.5,3.8,2,5.9c-0.1,0-0.1,0-0.1,0.1c-0.4-0.6-1.3-2-1.4-2.1
					c-1.3-1.5-4.9-3.7-7-2.8c-1.5,0.7-2,2.5-1.2,3.9c0.8,1.4,2.7,2.1,4.2,2.3c1.7,0.3,5.5-0.9,5.6-0.9c0.4,2,0.7,4,0.9,6.1
					c0.1,1.5,0.2,3.1,0.2,4.6c-0.3-0.5-1.5-2.2-1.6-2.3c-1.3-1.5-4.9-3.7-7-2.8c-1.5,0.7-2,2.5-1.2,3.9c0.8,1.4,2.7,2.1,4.2,2.3
					c1.7,0.2,5.3-0.8,5.6-0.9c0,0.7,0,1.4,0.1,2.1c0.1,2.3,0.1,4.6,0.2,6.9c0,0.8,0.1,1.6,0.2,2.4c-0.4-0.7-1.3-1.9-1.4-2
					c-1.3-1.5-4.9-3.7-7-2.8c-1.5,0.7-2,2.5-1.2,3.9c0.8,1.4,2.7,2.1,4.2,2.3c1.5,0.2,4.6-0.6,5.4-0.8c0.1,1.3,0.3,2.6,0.5,3.9
					c0.1,0.5,0.2,1.1,0.3,1.6c0.1,0.5,0.2,1,0.3,1.5c0.3,1,0.5,2,0.8,3c0.1,0.5,0.3,1,0.4,1.4c-0.4-0.8-0.9-1.9-1-2
					c-1.1-1.7-4.2-4.4-6.5-3.9c-1.6,0.4-2.3,2.1-1.8,3.6c0.6,1.5,2.3,2.5,3.8,2.9c1.6,0.5,5.2,0,5.6,0c0.3,1.2,0.7,2.3,1,3.3
					c0.3,0.9,0.6,1.7,0.8,2.4h1.5c-0.3-0.9-0.7-1.9-1-2.9c-0.3-0.9-0.7-1.9-1-3c0.4-0.2,3.5-1.4,4.8-2.6c1.3,0.8,2.8,1.6,3,1.7
					c-0.4,1.2-0.7,2.3-1,3.4c-0.3,1.2-0.6,2.3-0.9,3.4h1.5c0.2-1,0.5-2,0.7-3.1c0.2-1,0.5-2,0.8-3c0.4,0.1,4,0.8,5.6,0.4
					c1.5-0.3,3.3-1.2,4-2.7c0.7-1.4,0.1-3.2-1.5-3.8c-2.2-0.7-5.5,1.8-6.7,3.4c-0.1,0.1-0.9,1.5-1.2,2.2c0.2-0.6,0.4-1.3,0.5-1.9
					c0.3-0.9,0.6-1.9,0.9-2.9c0.2-0.5,0.4-1,0.5-1.5c0.2-0.5,0.4-1,0.6-1.5c0.3-0.7,0.7-1.5,1-2.2c0.9,0.3,3.7,1.3,5.2,1.2
					c1.5-0.1,3.4-0.7,4.3-2c0.9-1.3,0.5-3.2-0.9-3.9c-2-1-5.7,0.9-7.2,2.4c0,0-0.3,0.4-0.6,0.8c0.4-0.7,0.7-1.4,1.1-2.1
					c1.1-2,2.3-4,3.5-6c0.2-0.4,0.5-0.8,0.7-1.3c0.8,0.3,3.8,1.3,5.4,1.2c1.5-0.1,3.4-0.7,4.3-2c0.9-1.3,0.5-3.2-0.9-3.9
					c-2-1-5.7,0.9-7.2,2.4c-0.1,0.1-0.4,0.5-0.7,0.9c0.6-1.1,1.2-2.2,1.8-3.3c1-1.9,1.9-3.9,2.6-5.9c0.3,0.1,3.8,1.4,5.5,1.3
					c1.5-0.1,3.4-0.7,4.3-2c0.9-1.3,0.5-3.2-0.9-3.9c-2-1-5.7,0.9-7.2,2.4c-0.1,0.1-1.3,1.6-1.7,2.1c0,0,0,0,0-0.1
					c0.7-2.1,1.2-4.1,1.5-6.1c0.3-2,0.5-3.9,0.5-5.6c0.1-1.7,0.1-3.3,0-4.8c0-0.8-0.1-1.5-0.1-2.1c0,0,0,0,0,0c0,0,1-2.6,1-2.8
					c0.5-2,0.2-6.1-1.7-7.3c-1.4-0.9-3.2-0.2-3.8,1.3c-0.7,1.5-0.2,3.4,0.5,4.8c0.7,1.4,3.2,3.5,3.9,4c0,0.7,0.1,1.4,0.1,2.2
					c0,1.4,0,3-0.1,4.7c0,0.5-0.1,1-0.1,1.4c-0.1-0.8-0.2-2-0.3-2.1c-0.5-2-2.6-5.6-4.9-5.7c-1.7-0.1-2.9,1.3-2.8,2.9
					c0,1.6,1.4,3.1,2.6,4c1.3,0.9,4.6,1.6,5.3,1.7c-0.1,1.1-0.2,2.2-0.5,3.3c-0.4,2-0.8,4-1.6,6c-0.1,0-0.1,0-0.1,0
					c0-0.8,0-2.4,0-2.5c-0.3-2-2-5.8-4.2-6.2c-1.6-0.3-3,1-3.1,2.6c-0.1,1.6,1,3.2,2.2,4.3c1.3,1.2,5,2.3,5.2,2.4
					c-0.7,1.9-1.6,3.8-2.7,5.6c-0.7,1.3-1.5,2.7-2.4,4c0-0.5,0-2.7,0-2.8c-0.3-2-2-5.8-4.2-6.2c-1.6-0.3-3,1-3.1,2.6
					c-0.1,1.6,1,3.2,2.2,4.3c1.3,1.1,4.9,2.2,5.2,2.3c-0.4,0.6-0.7,1.2-1.1,1.8c-1.2,2-2.5,3.9-3.6,5.9c-0.4,0.7-0.8,1.4-1.2,2.1
					c0-0.8,0-2.3,0-2.4c-0.3-2-2-5.8-4.2-6.2c-1.6-0.3-3,1-3.1,2.6c-0.1,1.6,1,3.2,2.2,4.3c1.2,1,4.1,2,5,2.3
					c-0.6,1.2-1.2,2.3-1.7,3.5c-0.2,0.5-0.5,1-0.6,1.5c-0.2,0.5-0.4,1-0.6,1.5c-0.4,1-0.7,2-1,2.9c-0.2,0.5-0.3,0.9-0.4,1.4
					c0.1-0.8,0.3-2.1,0.3-2.3c0-2.1-1.1-6-3.3-6.8c-1.6-0.5-3.1,0.5-3.5,2.1c0,0.2-0.1,0.4-0.1,0.6c-1.1,1.5-1.7,3.7-1.8,5
					c0,0.1,0.1,1.7,0.2,2.5c-0.2-0.6-0.4-1.2-0.6-1.9c-0.3-0.9-0.6-1.9-0.8-2.9c-0.1-0.5-0.3-1-0.4-1.5c-0.1-0.5-0.2-1-0.3-1.6
					c-0.1-0.8-0.3-1.6-0.4-2.4c1-0.2,3.8-1,5-1.9c1.2-0.9,2.5-2.5,2.5-4.1c0-1.6-1.3-3-2.9-2.8c-2.3,0.3-4.3,3.9-4.7,5.9
					c0,0.1-0.1,0.5-0.1,1c-0.1-0.8-0.2-1.6-0.2-2.4c-0.2-2.3-0.3-4.6-0.4-6.9c0-0.5-0.1-1-0.1-1.4c0.8-0.2,3.9-1,5.1-1.9
					c1.2-0.9,2.5-2.5,2.5-4.1c0-1.6-1.3-3-2.9-2.8c-2.3,0.3-4.3,3.9-4.7,5.9c0,0.1-0.1,0.6-0.1,1.2c-0.1-1.3-0.2-2.5-0.3-3.8
					c-0.2-2.2-0.6-4.3-1.1-6.3c0.3-0.1,3.9-0.9,5.3-2c1.2-0.9,2.5-2.5,2.5-4.1c0-1.6-1.3-3-2.9-2.8c-2.3,0.3-4.3,3.9-4.7,5.9
					c0,0.1-0.2,2-0.2,2.7c0,0,0,0,0-0.1c-0.5-2.1-1.3-4.1-2.1-5.9c-0.8-1.8-1.8-3.5-2.6-5c-0.9-1.5-1.8-2.8-2.6-4
					c-0.4-0.6-0.9-1.2-1.3-1.7c0,0,0,0,0,0c0,0-0.6-2.7-0.7-2.9c-0.7-1.9-3.2-5.2-5.5-5.2c-1.7,0.1-2.7,1.6-2.5,3.2
					C6.4,412.1,7.9,413.4,9.2,414.2z"/>
			</g>
			<g>
				<rect x="36.6" y="140.2" class="st6" width="16.4" height="26.7"/>
				<rect x="61.2" y="140.2" class="st6" width="16.4" height="26.7"/>
				<rect x="85.9" y="140.2" class="st6" width="16.4" height="26.7"/>
				<rect x="110.5" y="140.2" class="st6" width="16.4" height="26.7"/>
				<rect x="135.1" y="140.2" class="st6" width="16.4" height="26.7"/>
				<rect x="36.6" y="179.2" class="st4" width="16.4" height="26.7"/>
				<rect x="61.2" y="179.2" class="st4" width="16.4" height="26.7"/>
				<rect x="85.9" y="179.2" class="st4" width="16.4" height="26.7"/>
				<rect x="110.5" y="179.2" class="st7" width="16.4" height="26.7"/>
				<rect x="135.1" y="179.2" class="st7" width="16.4" height="26.7"/>
				<rect x="36.6" y="218.2" class="st7" width="16.4" height="26.7"/>
				<rect x="61.2" y="218.2" class="st8" width="16.4" height="26.7"/>
				<rect x="85.9" y="218.2" class="st8" width="16.4" height="26.7"/>
			</g>
		</g>
		<g>
			
				<rect x="363.1" y="59.9" transform="matrix(0.7071 -0.7071 0.7071 0.7071 60.8941 281.7622)" class="st2" width="14.9" height="14.9"/>
			
				<rect x="460.8" y="139.8" transform="matrix(0.7071 -0.7071 0.7071 0.7071 33.0433 374.2356)" class="st2" width="14.9" height="14.9"/>
			
				<rect x="343.8" y="80.6" transform="matrix(0.7071 -0.7071 0.7071 0.7071 41.7378 271.4426)" class="st2" width="9.5" height="9.5"/>
			
				<rect x="419.8" y="424" transform="matrix(0.7071 -0.7071 0.7071 0.7071 -178.8439 425.7802)" class="st2" width="9.5" height="9.5"/>
			<g>
				<path class="st3" d="M470.7,348.1h-54.4c-2.2,0-4-1.8-4-4v-46.7c0-2.2,1.8-4,4-4h54.4c2.2,0,4,1.8,4,4v46.7
					C474.7,346.3,472.9,348.1,470.7,348.1z"/>
				<g>
					<rect x="415.9" y="310.1" class="st3" width="5.4" height="5.4"/>
					<rect x="425.9" y="310.1" class="st3" width="5.4" height="5.4"/>
					<rect x="435.8" y="310.1" class="st3" width="5.4" height="5.4"/>
					<rect x="445.8" y="310.1" class="st3" width="5.4" height="5.4"/>
					<rect x="455.8" y="310.1" class="st3" width="5.4" height="5.4"/>
					<rect x="465.8" y="310.1" class="st3" width="5.4" height="5.4"/>
				</g>
				<g>
					<rect x="415.9" y="321.4" class="st3" width="5.4" height="5.4"/>
					<rect x="425.9" y="321.4" class="st3" width="5.4" height="5.4"/>
					<rect x="435.8" y="321.4" class="st3" width="5.4" height="5.4"/>
					<rect x="445.8" y="321.4" class="st3" width="5.4" height="5.4"/>
					<rect x="455.8" y="321.4" class="st3" width="5.4" height="5.4"/>
					<rect x="465.8" y="321.4" class="st3" width="5.4" height="5.4"/>
				</g>
				<g>
					<rect x="415.9" y="332.7" class="st3" width="5.4" height="5.4"/>
					<rect x="425.9" y="332.7" class="st3" width="5.4" height="5.4"/>
					<rect x="435.8" y="332.7" class="st3" width="5.4" height="5.4"/>
					<rect x="445.8" y="332.7" class="st3" width="5.4" height="5.4"/>
					<rect x="455.8" y="332.7" class="st3" width="5.4" height="5.4"/>
					<rect x="465.8" y="332.7" class="st3" width="5.4" height="5.4"/>
				</g>
				<rect x="425" y="299.3" class="st3" width="37" height="4.1"/>
			</g>
			<g>
				<path class="st2" d="M487.6,316.4v140.7H349V104.4c0-3.3,2.7-6,6-6h126.6c3.3,0,6,2.7,6,6v202.7"/>
				<path class="st4" d="M487.6,119.9H349v-15.5c0-3.3,2.7-6,6-6h126.6c3.3,0,6,2.7,6,6V119.9z"/>
			</g>
			<g>
				<rect x="359.2" y="140.2" class="st6" width="16.4" height="26.7"/>
				<rect x="384" y="140.2" class="st6" width="16.4" height="26.7"/>
				<rect x="359.2" y="179.2" class="st4" width="16.4" height="26.7"/>
				<rect x="384" y="179.2" class="st4" width="16.4" height="26.7"/>
				<rect x="409.3" y="179.2" class="st7" width="16.4" height="26.7"/>
			</g>
			<g class="st9">
				<g class="st10">
					<g>
						<path class="st7" d="M323.4,226.8c0,0-1.9,2.3-2.9,3.4c-1,1.1-0.9,2,0.1,1.9c1-0.1,3.4-2.7,3.4-2.7s-0.3,1.7,0,2.4
							c0.3,0.7,1.4,1.3,2.6,1.7c1.1,0.4,2.4,1.3,2.9,0.3c0.4-1-0.1-3.9-0.1-3.9L323.4,226.8z"/>
						<path class="st7" d="M357.8,247.5c0,0-20-15.1-21.9-17.3c-1.9-2.1-4.1-3-5.6-3.3c-1.4-0.3-4.7-0.7-4.7-0.7s-3.3-2.3-5-3.1
							c-1.7-0.9-2.6-2.6-2.9-1.4c-0.3,1.1,0.6,2.3,2.3,3.3c1.7,1,4.4,3.4,4.4,3.4s4,2.1,3.9,3.9c-0.1,1.7-2.4,2.7-3.3,2.6
							c-0.9-0.1-3.4-2.1-3.7-0.6s3,2.7,4.7,3.1c1.7,0.4,8,1.3,8.9,1.3c0.9,0,4,3.1,4,3.1l15,14.3L357.8,247.5z"/>
					</g>
					<g>
						<path class="st7" d="M357.4,246.3c0,0-3.9,4.6-4.6,8.1s0.4,4.3,2,5.3c1.6,1,3.4,2,3.4,2s-1.7-2.7,1.7-6.4
							c3.4-3.7,5.4-5.4,5.4-5.4S360,246.1,357.4,246.3z"/>
						<path class="st7" d="M360,255.3c0,0-3.4,3.1-3.1,4.9c0.3,1.7,2.1,2.9,2.7,3.1c0.6,0.3,3.3,3.1,4.6,4c1.3,0.9,4.1,0.7,4.4,1.3
							s1.4,3.3,1.4,3.3s6.6-6,8.1-9.4c1.6-3.4,0.1-7.1-1.9-9.3c-2-2.1-8.1-3.9-8.9-4c-0.7-0.1-2,0.7-2,0.7L360,255.3z"/>
					</g>
					<g>
						<path class="st7" d="M367.4,389.7c0,0,1.4,6.5,5.2,25.2c3.8,18.8,1.8,19.8,3.2,33.7c1.4,13.9-0.6,18.2-0.6,18.2
							s-7.5,2.4-11.9,3c-4.4,0.6-12.3,1.6-12.5,3.6c-0.2,2,9.3,5.5,17.8,6.7c8.5,1.2,14.3,3.6,15.7,2.4c1.4-1.2,2.4-5.7,2.4-7.7
							c0-2-0.6-4.6-0.6-8.3c0-3.6,2.8-25.4,4-31.5c1.2-6.1,0.6-14.3-0.6-18.8c-1.2-4.4-3.6-11.5-3.6-11.5l1-17.8L367.4,389.7z"/>
						<path class="st4" d="M369.2,394.9c0,0,1.1,0.5,8.4,0c7.3-0.5,9-1.6,9-1.6l0.4-6.3L369.2,394.9z"/>
						<path class="st4" d="M363.6,476.9c0,0-4.4-2.6-4.4-4.6c0-0.7,0.4-1.4,0.9-2c-4.2,0.6-9,1.6-9.2,3.2c-0.2,2,9.3,5.5,17.8,6.7
							c8.5,1.2,14.3,3.6,15.7,2.4c1.4-1.2,2.4-5.7,2.4-7.7c0-0.8-0.1-1.8-0.2-2.9c-1.5,0.8-3.5,2.1-4.8,2.9
							C379.7,476.1,363.6,476.9,363.6,476.9z"/>
					</g>
					<g>
						<path class="st7" d="M344.4,388.1c0,0,1.4,21.8,2.8,28.1c1.4,6.3,20.4,46.2,22.2,49.7c1.8,3.4,1.8,3.4,1.8,3.4
							s-5.5,4.4-12.9,6.5c-7.5,2-12.3,2.2-11.7,4c0.6,1.8,5.9,3.4,14.3,4s20,1.2,21.4,0.6c1.4-0.6,2.2-6.5,2.2-9.3
							c0-2.8-2.2-6.1-3-8.7c-0.8-2.6-7.1-25.2-8.3-31.3c-1.2-6.1-2.2-6.1-5.7-13.3c-3.4-7.3-3.4-4-4.6-9.1c-1.2-5,4.4-23,4.4-23
							L344.4,388.1z"/>
						<polygon class="st4" points="349.6,392.9 364.6,399 366.4,395.1 						"/>
						<path class="st4" d="M357.3,477.5c-0.3-0.5-0.4-0.9-0.4-1.4c-6.6,1.7-10.8,2-10.3,3.7c0.6,1.8,5.9,3.4,14.3,4
							c8.5,0.6,20,1.2,21.4,0.6c1.4-0.6,2.2-6.5,2.2-9.3c0,0-16.6,5.2-20.8,5.2C359.5,480.3,358.5,479.5,357.3,477.5z"/>
					</g>
					<path class="st6" d="M345.2,356.4c0,0-2.2,16.2-2,23.2c0.2,7.1-0.2,11.7-0.2,11.7s14.5,4.8,23.4,3.8c8.9-1,21.6-6.3,21.6-6.3
						s1.6-20.6,1.6-21.4c0-0.8,1.4-9.8,1.2-15.7c-0.2-6-0.2-10.1-0.2-10.1s-19.8,4.8-26.6,4.2c-6.9-0.6-16.6-1-16.6-1L345.2,356.4z"
						/>
					<path class="st7" d="M369.1,270.4c0,0-14,12.8-15.8,22.8c-1.7,9.9-9.9,62.5-9.2,66.8c0,0,14.4-2.9,17.8-2.9s16.4,10.6,19,11.6
						c2.6,1,2.6-1.9,5.3-5.3c2.7-3.4,2.7-7.2,3.3-10.8c0.5-3.6,1.2-6.8,1.2-6.8s1.7-6.3,1.9-9.1c0.2-2.7-1.5-10.8-1.5-14.2
						c0-3.4,8.6-22.9,9.2-36.5c0.7-13.5,0.3-16.4,0.3-16.4l-1.7-7.2C398.9,262.4,374,266.5,369.1,270.4z"/>
					<path class="st7" d="M373.2,303.7c0,0,3.5,10.1,7.4,16.1"/>
					<path class="st7" d="M378.7,330.1c0.4,1.1,0.9,2.1,1.3,3.1"/>
					<path class="st7" d="M373.4,312.6c0,0,1.6,7.1,4,14.1"/>
					<g>
						<g>
							<path class="st7" d="M394.2,230.2c0,0-3.9-9.9-11.3-10.8c-7.4-0.9-14.7,1.7-17.3,7c-2.6,5.3-3.9,8.2-3.9,11
								c0,2.7,1.9,3.1,1.2,5.7c-0.7,2.6-2.6,2.7-1.7,3.9c0.9,1.2,2.4,1.7,2.4,1.7s3.3,9.2,5.3,9.8c2.1,0.5,4.3-1.5,4.3-1.5l3.8,6.3
								l13.7-3.8c0,0-1.4-11.5-0.5-14.4c0.9-2.9,5.3-7,5.6-9.2C396.1,233.6,394.2,230.2,394.2,230.2z"/>
						</g>
						<path class="st5" d="M364.7,242.8c0,1-0.3,1.8-0.6,1.8c-0.3,0-0.6-0.8-0.6-1.8c0-1,0.3-1.8,0.6-1.8
							C364.4,241,364.7,241.8,364.7,242.8z"/>
						<path class="st11" d="M362.5,239.8c0,0,1.2-1.8,2.2-0.3"/>
						<line class="st11" x1="365" y1="252.2" x2="366.7" y2="251"/>
					</g>
					<path class="st7" d="M391.5,258.3c0,0-15.2,3.9-17.5,6c-2.2,2.1-5,6.2-5,6.2s12.7-4.3,16.4-5c3.8-0.7,7.5-1.4,7.5-1.4
						S392.2,259.8,391.5,258.3z"/>
					<path class="st4" d="M394.2,230.2c0,0-3.9-9.9-11.3-10.8c-6-0.7-11.9,0.9-15.4,4.3l-0.6,0.1c0,0-4.3-0.3-5.8,2.4
						c-1.2,2.1,1.2,5.1,2.2,6.3c-0.2,1.4-0.1,2.7,0.7,3.3c2.4,1.9,4.5,1.2,5,3.3c0.5,2.1,1.2,3.4,2.2,2.7c1-0.7,0.5-3.9,2.9-4.1
						c2.4-0.2,3.6,2.1,3.3,4.5c-0.3,2.4-1.2,3.6-1,4.1c0.2,0.5,6.7,6,11.3,5.6c0.7,0,1.4-0.4,2.2-0.9c-0.1-2.5-0.1-4.8,0.2-5.9
						c0.9-2.9,5.3-7,5.6-9.2C396.1,233.6,394.2,230.2,394.2,230.2z"/>
					<path class="st4" d="M394.2,230.2c0,0-9.2,3.9-9.9,14.7c-0.7,10.8,5.3,15.1,4.6,17.3c-0.7,2.2-3.1,3.6-1.4,5
						c1.7,1.4,3.3,1.5,2.7,2.9c-0.5,1.4-1,3.9-1,5.1c0,1.2,3.4,3.1,3.1,4.6c-0.3,1.5-1.9,1.9-0.5,2.9c1.4,1,1.2,1.7,3.3,1.4
						c2.1-0.3,1.2-3.6,2.7-3.8s2.1,1.2,4.5-0.9c2.4-2.1,1.7-5,2.1-5.8c0.3-0.9,1.7-0.7,2.6-1.9c0.9-1.2,1.2-2.9,0.7-4.6
						c-0.5-1.7-0.7-2.7-0.2-4.3c0.5-1.5,1.2-3.6,0.7-5.1c-0.5-1.5-0.7-3.3-0.7-3.3s2.2-3.1,2.2-5.3c0-2.2-0.3-5.5-1.4-7.7
						c-1-2.2-3.3-4.1-3.4-5.1c-0.2-1-0.5-3.4-2.6-4.8C400.2,230.2,396.3,229.5,394.2,230.2z"/>
					<g>
						<polygon class="st4" points="319.6,272.8 334,298.2 343.9,297.3 329.7,272.6 						"/>
						<path class="st7" d="M338.9,300.2c0,0-0.9-5.3-1.6-6.5c-0.7-1.2-0.9-1.7-1.2-3.7c-0.4-2-0.7-2.2-2-1.2c-1.2,1-0.9,3.2-0.7,3.8
							c0.1,0.6-0.6,0.1-1.7-1c-1.1-1.1-3.8-3.2-3.8-3.2s-1.9,0.4-1.1,2.1c0.7,1.7,1.1,3.3,1.1,3.3s-0.6,4.8,0.1,6.5
							c0.7,1.7,3.7,3.5,3.7,3.5l3.1,1.7l8,12.3c0,0-1.7-0.1,1.1-3.8c2.8-3.7,4.6-4.9,4.4-5.3c-0.1-0.4-8.8-7-8.8-7L338.9,300.2z"/>
						<g>
							<path class="st7" d="M347.1,306.8c0,0-4.3,0.5-5.8,3.5c-1.5,3-2.5,3.8-1.7,5.2c0.7,1.4,2.3,4.3,3.3,4.9c1,0.6,1.9,1,1.9,1
								s-1.6-4.2,0.7-7s5.6-4.3,5.6-4.3S348.7,307.7,347.1,306.8z"/>
							<g>
								<path class="st7" d="M378.2,285.2c0,0,0.1,3.5,0,6.5c-0.1,3.1-3,7.5-3,7.5s-1.7,2.2-2,4.4c-0.2,2.2-0.5,5.7-0.9,6.5
									c-0.4,0.9-8.9,19.8-10.6,20.7c-1.7,1-3.5,0.6-6.5-1c-3.1-1.6-10.5-8.6-10.5-8.6s-2.5-3.3,0.7-7c3.2-3.7,5.6-4.3,5.6-4.3
									l2.2,0.6c0,0,0.9-6.9,2-10c1.1-3.1,1.9-6.8,1.9-8.4s0.2-3.8,1.5-5.7c1.2-1.9,3.1-4.9,5.9-6.1"/>
								<path class="st7" d="M353.2,310.7c0,0,0.7,8.6,2.1,11.5"/>
								<path class="st7" d="M353.3,322.1c0.3,1,0.6,2,0.9,2.7"/>
								<path class="st7" d="M351.8,315.4c0,0,0.4,2.2,1,4.6"/>
							</g>
						</g>
					</g>
				</g>
				<g class="st10">
					<path class="st7" d="M459.8,197.5h-32.8c-4.6,0-8.3,3.7-8.3,8.3v20.1c0,4.6,3.7,8.3,8.3,8.3h3.7l-14.1,14.1l23.9-14.1h19.3
						c4.6,0,8.3-3.7,8.3-8.3v-20.1C468,201.2,464.3,197.5,459.8,197.5z"/>
					<g>
						<path class="st5" d="M435.6,216.4c0-1.5-1.2-2.8-2.8-2.8c-1.5,0-2.8,1.2-2.8,2.8c0,1.5,1.2,2.8,2.8,2.8
							C434.3,219.2,435.6,218,435.6,216.4z"/>
						<path class="st5" d="M446.5,216.4c0-1.5-1.2-2.8-2.8-2.8c-1.5,0-2.8,1.2-2.8,2.8c0,1.5,1.2,2.8,2.8,2.8
							C445.3,219.2,446.5,218,446.5,216.4z"/>
						<path class="st5" d="M457.5,216.4c0-1.5-1.2-2.8-2.8-2.8s-2.8,1.2-2.8,2.8c0,1.5,1.2,2.8,2.8,2.8S457.5,218,457.5,216.4z"/>
					</g>
				</g>
			</g>
		</g>
	</g>
</g>
<g id="Character_1">
	<g>
		<path class="st2" d="M266.8,392.2h-79.2V39.5c0-3.3,2.7-6,6-6h126.6c3.3,0,6,2.7,6,6v352.7h-50.1"/>
		<path class="st4" d="M326.3,55H187.7V39.5c0-3.3,2.7-6,6-6h126.6c3.3,0,6,2.7,6,6V55z"/>
		<g>
			<rect x="201.4" y="75.4" class="st6" width="16.4" height="26.7"/>
			<rect x="226.1" y="75.4" class="st6" width="16.4" height="26.7"/>
			<rect x="201.4" y="114.4" class="st4" width="16.4" height="26.7"/>
			<rect x="226.7" y="114.4" class="st7" width="16.4" height="26.7"/>
			<rect x="201.2" y="153.4" class="st8" width="16.4" height="26.7"/>
		</g>
		
			<rect x="284.8" y="351.2" transform="matrix(0.7071 -0.7071 0.7071 0.7071 -168.023 311.7429)" class="st2" width="14.9" height="14.9"/>
		
			<rect x="302.2" y="333.9" transform="matrix(0.7071 -0.7071 0.7071 0.7071 -150.6499 318.9391)" class="st2" width="14.9" height="14.9"/>
		
			<rect x="252" y="85" transform="matrix(-1 -1.224647e-16 1.224647e-16 -1 520.4346 196.5684)" class="st6" width="16.4" height="26.7"/>
		<g class="st9">
			<path class="st12" d="M178.6,239.8c0,0-1.2,5.8-3.7,11.6c-2.6,5.9-3.1,10.5-3.1,10.5s2.7,5.3,2.3,7.3s-2,5.8-2,6.7
				c-0.1,1-0.7,2.7-2,2.3c-1.2-0.4-2-1.6-2.8-1.9s-4.3-1.9-4.6-3.1c-0.4-1.2,0.1-5,0.1-5s1.2-7.6,1.2-7.9c0-0.4-0.2-8.2,0.6-14.4
				s2-11.1,2-11.1S171.7,239.7,178.6,239.8z"/>
			<path class="st12" d="M172.2,274.6c0,0-1.2,0-1.7-1.2c-0.4-1.2,0-3.5,0-3.5s-2.1-1.2-2.1-3.3"/>
			<path class="st12" d="M167.8,267.4c0,0,0.4,1.2-1.4,1.8"/>
			<path class="st12" d="M164.2,273.5c0,0,0.1-1.9,0.6-2.1c0.5-0.3,1.2-0.4,1.4,0.6c0.3,0.9,1,2.3,0.5,3c-0.5,0.7-0.3,0.8-1.5,0.4"
				/>
			<path class="st12" d="M166.8,271.9c0,0,0.9-0.6,1.4-0.3c0.5,0.3,1.3,1.9,1.1,3c-0.2,1.2-0.6,1.9-1.6,1.7"/>
			<path class="st12" d="M169.1,272.7c0,0,0.4-0.2,0.9,0.3c0.5,0.4,1,2.7,0.7,3.4c-0.4,0.7-0.6,1.1-1.4,1.1"/>
			<path class="st13" d="M169.8,227.5c0,0,0.3,4.7,1.3,6.1c1.1,1.4,5.9,2.3,7.3,2.5c1.4,0.2,3.7,0.1,3.7,0.1s-1.2,2.7-1.8,3.7
				c-0.6,1-2,1.2-5.7,1c-3.7-0.3-8.5-3.9-9-5.1c-0.4-1.2,1.2-4,1.8-5.3C168,229.1,169.8,227.5,169.8,227.5z"/>
			<path class="st12" d="M236.1,164.2c0,0,0.3,6.4-0.2,8.3c-0.5,2-3.9,4.3-3.9,4.3l-0.2,4.8c0,0-3.9,0.9-7.2,1.7
				c-3.2,0.9-8.5,2.7-10.7,1.2l0.1-13.1c0,0-3-8.6,3.7-13.7c6.7-5.1,13.1-1.4,14.9,0.9S236.1,164.2,236.1,164.2z"/>
			<path class="st14" d="M227.3,144.6c0,0,3.1-1.2,6.1,0.3s0.2,6.1,0.2,6.1s3.7,1.7,3.3,4.5c-0.3,2.8-1.2,3.5-1.2,3.5l0.3,5.1
				c0,0-1.7-2.6-2.8-0.5c-1,2.1-2.6,4.5-2.8,6.6s-2.4,6.6-6.5,7.3s-10.1-0.5-11-1.9c-0.9-1.4-4.5-11-3.5-18.9
				c1-7.9,7-12.1,10.8-12.8C224.2,143.4,227.3,144.6,227.3,144.6z"/>
			<path class="st12" d="M234.5,164.9c0,0-0.5,0-0.2,3c0.2,3-0.5,4.2-1.4,3c-0.9-1.2-1.1-3.5-0.4-5.3
				C233.3,163.7,234.6,162.7,234.5,164.9z"/>
			<path class="st12" d="M222.5,403.7c0,0,1.9,2.6,3.3,4.9c1.4,2.3,2.5,3.7,0.4,5.2c-2,1.5-3.4,1.6-6.4,1.4c-3-0.3-11-3-12.5-4.4
				c-1.5-1.4-0.3-4.2-0.3-4.2l1.5-3.7L222.5,403.7z"/>
			<path class="st12" d="M206.6,408.2c3.8,1.6,9.8,4.1,13.8,4.4c4,0.3,6-0.4,7-0.9c0.1,0.7-0.2,1.3-1.1,2c-2,1.5-3.4,1.6-6.4,1.4
				c-3-0.3-11-3-12.5-4.4C206.6,410.1,206.5,409.1,206.6,408.2z"/>
			<path class="st12" d="M157.8,414.1c0.2-0.6,0.5-1.1,0.6-1.3c0.4-0.5,4.6-12.3,9.4-13c3.2-0.4,5.6,1.6,6.8,3
				c0,1.1-0.1,2.3-0.5,3.3c0,0-1.5-4.4-6-3.9c-4.5,0.4-5.9,4.9-6.9,7.4c-1.1,2.5-2.9,5.3-2.7,7.6c0,0.2,0,0.4,0.1,0.6
				C158.2,416.7,157.9,415.4,157.8,414.1z"/>
			<path class="st14" d="M241.1,261.6l-0.8,38.2l-17.8,97c0,0,2,1.3,1.6,3.3c-0.5,2-1.3,4.7-1.3,4.7s-5.2,3-9.1,2.3
				c-3.9-0.6-5.3-4.2-5.3-4.2s0.2-5.3,0.5-7c0.3-1.7,1.6-4.7,1.7-7.2c0.2-2.5,2-9.2,2-9.2l-0.2-82.6h-3.1L185.5,357l-7.5,31.6
				c0,0,0.9,2.3-1.3,4.2c-2.2,1.9-2.7,3.6-2.7,3.6l0.5,3.4c0,0-2.8-0.9-5.8-0.9c-3,0-6.7,0.9-6.7,0.9l-0.6-4.5c0,0-1.9-1.3-1.7-2.3
				c0.2-1.1,2.5-4.8,2.7-5.8c0.2-0.9-1.3-6.4-0.8-7.8c0.5-1.4,12-46.8,12-46.8l10.6-50.8l7-19.2L241.1,261.6z"/>
			<g class="st10">
				<path class="st7" d="M257.4,108c0,0-1.8,0.1-2.1,1.2c-0.3,1.1,1.2,3.2,1.2,3.2S257.3,109.1,257.4,108z"/>
				<path class="st7" d="M255.3,109.2c0,0-1.4,1-1.3,2.2c0.1,1.2,1.2,2.5,1.8,2.5c0.6,0,0.7-1.5,0.7-1.5S255.6,110.2,255.3,109.2z"
					/>
				<path class="st7" d="M254,111.4c0,0-1.2,1-0.6,2.4c0.6,1.4,1.6,1.9,1.6,1.9l0.8-1.8C255.8,113.9,254.5,112.4,254,111.4z"/>
			</g>
			<g class="st10">
				<path class="st7" d="M253.2,154.2c0,0,2.8-13.6,3.6-17.3c0.8-3.7,0.6-10.3,0.6-10.3s-1.7-2.1-2-3.2c-0.3-1.1,0.6-3.5,0.6-3.5
					s-1-2-1-3.6c0-1.6,1.5-4.1,1.5-4.1s0.8-2.4,0.9-4.3c0.1-2,0.4-3.5,1.5-3.2c1.1,0.3,1.7,0.9,1.7,2.4c0,1.5-0.1,4.2-0.1,4.2
					l5.6,0.2c0,0-1.9,13.4-1.8,14.3c0.1,0.9,3.5,26.6,3.3,29c-0.2,2.5-0.5,5.7-0.5,5.7s-6.6-5.5-9.2-5.6
					C255.3,155,253.2,154.2,253.2,154.2z"/>
				<line class="st2" x1="256" y1="120.1" x2="258.1" y2="122.8"/>
			</g>
			<path class="st13" d="M231.7,181.7l14.7-12.2l6.7-12.1c0,0,5.8-1.1,9.1,1.7c3.3,2.8,3.5,5.8,2.7,7.3
				c-0.7,1.5-12.9,29.4-13.1,29.8c-0.2,0.4-6.1,32.1-6.1,32.1s-4.3,29.9-3.9,31.5c0.4,1.6,0.5,4.3-0.9,4.6
				c-1.5,0.3-32.2,0.8-34.9,1.2s-8.5-1.1-12.8-1.8c-4.3-0.7-2.7-5-2.3-6.7c0.4-1.8,3.5-37.7,3.5-37.7l-13.3,18.1c0,0-0.9,2-6.1,0.7
				c-5.1-1.3-6.5-6.9-6.5-7.5c0-0.7,11.1-19.1,12.7-22.2s6.1-15.5,10.1-18.1c4-2.6,20.8-5.7,20.8-5.7L231.7,181.7z"/>
			<path class="st15" d="M223.7,258c-1.3,1-2.6,1.9-4,2.7"/>
			<path class="st15" d="M244.6,230.9c0,0-7.8,15.6-18.8,25.3"/>
			<path class="st15" d="M236.3,250c0,0-8.6,10.1-16.2,14.1"/>
			<path class="st15" d="M226.8,243.8c0,0-10.4,11-16.2,14.4"/>
			<path class="st15" d="M241.4,207.6c-0.7,0.9-1.5,1.8-2.3,2.8"/>
			<path class="st15" d="M249.2,196.3c0,0-1.7,3.3-5.8,8.8"/>
			<polygon class="st14" points="194.4,219.4 196.4,209.2 189.8,225.6 			"/>
			<path class="st13" d="M234.4,179.7c0,0-1.8-0.8-2.7-0.9c-0.9-0.1-16.6,2.3-17.7,2.4c-1.1,0.1-3.4,3.8-3.4,3.8l20.9-3.2
				L234.4,179.7z"/>
			<path class="st13" d="M251.4,160.3c0,0-0.7-2.6,0-3.9c0.7-1.4,2.3-3.1,3.8-3.1c1.5,0,5.1,0,8.9,3c3.8,3,3.9,5,3.4,6.7
				c-0.6,1.7-2.2,4.3-2.6,4.3s-2.1-7.3-6.6-8.1C253.6,158.4,251.4,160.3,251.4,160.3z"/>
			<path class="st12" d="M174.5,399.8c0,0,0.5,4-0.3,6.3c-0.8,2.3-2,4.4-1.9,5.3c0.1,1,3,4.6,1.1,6c-1.9,1.4-11.4,2.7-13.2,2.3
				c-1.8-0.4-3-6.3-2.2-9c0.8-2.7,4-10.9,4-10.9S169.4,396.6,174.5,399.8z"/>
		</g>
	</g>
</g>
</svg>
