<svg width="85" height="43" viewBox="0 0 85 43" fill="none" xmlns="http://www.w3.org/2000/svg">
<path d="M57.4805 14.8492C57.4094 15.0492 57.3907 15.3089 57.0555 15.1682C56.6446 14.9959 56.2299 14.8324 55.8141 14.672C55.3938 14.5098 54.9933 14.2405 54.5035 14.4954C54.4003 14.5491 54.1582 14.5184 54.0958 14.4374C53.7618 14.0036 53.267 14.1079 52.834 14.0181C52.4437 13.9371 52.0306 13.9369 51.6567 13.8131C50.9996 13.5955 50.3667 13.8961 49.7232 13.8314L49.7329 13.8467C49.5355 13.4017 49.2445 13.3291 48.8601 13.6291L48.8727 13.621C48.7325 13.6277 48.5887 13.6179 48.453 13.6465C48.3466 13.6689 48.164 13.7858 48.1615 13.7811C47.7943 13.1048 47.2277 13.4019 46.7562 13.5455C46.4627 13.6349 46.4148 13.6318 46.332 13.344C46.3122 13.2753 45.8411 13.2305 45.6776 13.3336C45.412 13.5009 45.3998 13.5363 45.144 13.2485C44.8836 12.9555 44.3242 12.781 43.8362 13.0817C43.5708 13.2453 43.3747 13.2547 43.3069 12.8542C43.2673 12.6204 43.0624 12.649 42.8758 12.7481C42.712 12.8351 42.7014 12.9272 42.7701 13.0954C42.8093 13.1913 43.1456 13.4076 42.7331 13.4345C42.6211 13.4419 42.4454 13.2636 42.3917 13.1325C42.345 13.0183 42.4529 12.8493 42.4465 12.7067C42.4425 12.6202 42.3511 12.5376 42.2989 12.4533C42.2524 12.3699 42.2189 12.2729 42.153 12.2096C42.1264 12.184 42.0293 12.232 41.9642 12.2465C42.0109 12.2938 42.0505 12.3538 42.1063 12.3849C42.1671 12.4188 42.2428 12.4258 42.312 12.4445C42.2073 12.9712 41.7035 13.0372 41.3482 13.2722C41.2959 13.3067 41.1744 13.319 41.1398 13.2852C40.6759 12.8322 40.1444 13.0641 39.6239 13.0957C39.5449 13.1005 39.45 12.8418 39.3623 12.705C38.9091 13.234 38.474 12.5718 37.9877 12.6808C37.516 12.7865 36.9864 12.634 36.4823 12.5943C36.2506 12.5761 35.9235 12.3526 35.9347 12.8516C35.865 12.8443 35.7745 12.8629 35.7289 12.8259C35.1822 12.3826 34.41 12.2279 33.8257 12.4498C33.7318 12.4855 33.5626 12.5461 33.5413 12.5157C33.2131 12.0482 32.7219 12.4033 32.3199 12.2714C31.9217 12.1408 31.4372 12.2688 31.0429 12.1322C30.5711 11.9687 30.2871 12.3593 29.8868 12.372C29.6396 12.3799 29.3718 12.5868 29.3373 12.1357C29.3348 12.1032 29.2185 12.0463 29.2136 12.0518C28.8362 12.4848 28.5535 12.1601 28.178 12.0041C27.7701 11.8347 27.2723 11.8544 26.8134 11.8516C26.6691 11.8507 26.5237 12.0436 26.3788 12.1479L26.3912 12.1394C26.1169 12.171 25.8406 12.3468 25.5715 12.1137C25.1414 11.741 25.3091 12.3555 25.1308 12.3833C24.8642 12.4247 25.0557 11.8563 24.6803 12.0314C24.622 12.0586 24.586 12.1337 24.5396 12.1867C24.2519 12.5148 23.9322 12.5882 23.6164 12.248C23.3332 11.9428 23.0319 12.0711 22.7225 12.1525C22.6784 12.1039 22.6343 12.0554 22.5902 12.0068C22.6388 12.0525 22.6873 12.0982 22.7358 12.1439C22.5781 12.178 22.3909 12.2844 22.2674 12.2342C21.5441 11.9397 21.0196 11.9336 20.2748 12.2466C20.0297 12.3496 19.6365 12.5541 19.5327 12.3044C19.3678 11.908 19.126 12.043 18.8653 11.9675C18.4944 11.86 18.2215 11.7049 18.1055 12.2241C17.5872 12.1694 17.1941 12.7322 16.6043 12.4672C15.992 12.1921 15.3271 12.2787 14.6807 12.43C14.3822 12.4998 14.2966 12.6124 14.547 12.8543C14.5852 12.8912 14.5653 12.9884 14.5723 13.0577C14.4292 13.0314 14.2617 13.0433 14.148 12.9708C13.8997 12.8124 13.6795 12.6303 13.4717 13.0079C13.3828 12.9199 13.294 12.8319 13.2052 12.7439C13.254 12.7007 13.3028 12.6575 13.3517 12.6144C13.3058 12.6622 13.26 12.7101 13.2141 12.758C13.0307 12.7383 12.7382 12.55 12.8531 12.9917C12.6493 12.9876 12.4304 12.9332 12.2444 12.9889C11.6807 13.1576 11.1298 13.3697 10.618 12.8761C10.1291 12.9478 9.63982 13.0174 9.15298 13.101C9.13813 13.1036 9.1142 13.2934 9.15292 13.3256C9.29244 13.4416 9.33462 13.6388 9.12707 13.5283C8.59229 13.2437 8.24324 13.4049 7.88068 13.7942C7.76903 13.9141 7.53314 13.9186 7.42245 14.0389C7.27323 14.2011 7.21351 14.1711 7.10677 14.0166C6.9629 13.8085 6.81335 13.6007 6.63807 13.4202C6.58066 13.361 6.43537 13.3873 6.33026 13.3745C6.38242 13.4714 6.45784 13.5633 6.47969 13.6667C6.49823 13.7544 6.45499 13.8552 6.4391 13.9503C6.34105 13.9338 6.20404 13.9528 6.15137 13.8949C5.83739 13.5499 5.66779 13.657 5.56729 14.0547C5.56729 14.0547 5.57996 14.046 5.57995 14.046C5.35333 14.1539 5.10326 14.2303 4.90588 14.3775C4.64605 14.5713 4.69192 14.8009 4.99552 15.0465C5.45581 15.4189 5.93045 15.7748 6.37446 16.1657C6.82665 16.5637 7.24192 17.0036 7.68935 17.4075C7.81458 17.5205 8.00481 17.6519 8.15032 17.6362C8.76612 17.5698 8.99491 18.0162 9.26456 18.4138C9.29478 18.4583 9.24914 18.5544 9.2387 18.6265C9.2037 18.6169 9.1679 18.597 9.13389 18.5997C9.03392 18.6077 8.93463 18.6247 8.8351 18.6382C8.85354 18.6695 8.88019 18.7301 8.88911 18.7276C9.00476 18.6951 9.11787 18.6536 9.23164 18.6143C9.44267 19.0027 10.0437 19.1669 9.89134 19.7641C10.0118 19.719 10.1881 19.6005 10.2428 19.6421C10.442 19.7938 10.6067 19.9936 10.7732 20.1851C11.0181 20.4668 11.5575 20.1643 11.7054 20.7254C11.7908 21.0491 12.2099 21.278 12.3206 21.6035C12.4413 21.9581 12.5657 21.9701 12.8688 21.8787C13.1219 21.8024 13.1337 22.0256 13.1689 22.2143C13.255 22.6763 13.3717 23.0951 14.0228 22.8487C14.1005 22.8194 14.4426 23.1433 14.4193 23.2509C14.2874 23.8604 14.6675 24.2126 15.0861 24.3779C15.5797 24.5728 15.4581 24.8487 15.3657 25.1598C15.3161 25.3266 15.1779 25.4655 15.1139 25.6303C15.0675 25.7499 15.063 25.8916 15.0656 26.0229C15.0685 26.1694 15.1007 26.3152 15.1201 26.4613C14.9846 26.4161 14.8331 26.396 14.716 26.3216C13.2914 25.4172 12.0148 24.3343 10.8343 23.1288C10.2013 22.4826 9.52807 21.8747 8.85451 21.2701C8.39233 20.8552 7.83808 20.5358 7.55709 19.9433C7.52691 19.8797 7.47292 19.8111 7.41205 19.7806C6.29434 19.2198 5.68784 18.1257 4.82141 17.3035C4.64783 17.1388 4.31994 17.0395 4.60254 16.7097C4.40146 16.5291 4.22491 16.3039 3.99431 16.1769C3.48259 15.8952 3.17185 15.4584 2.93981 14.952C2.86493 14.7885 2.81724 14.5972 2.81569 14.4181C2.8094 13.6898 3.12285 13.1326 3.7607 12.7673C3.45488 11.9442 3.9879 11.4213 4.57255 11.167C4.97416 10.9922 4.96526 10.502 5.32861 10.4677C5.74127 10.4287 5.83587 10.1307 6.02495 9.87406C6.14601 9.70976 6.34083 9.59656 6.51176 9.47321C6.74202 9.30699 6.97186 9.03732 7.21831 9.01751C7.75737 8.97435 7.20764 8.47992 7.54886 8.37044C7.73764 8.30987 7.89392 8.14406 8.06103 8.02054C8.23267 7.89365 8.40899 7.77083 8.56666 7.62785C8.85708 7.36457 9.08448 7.07157 9.50533 6.9197C9.76554 6.82583 10.0136 6.57683 10.3208 6.4243C10.958 6.10786 11.4761 5.55644 12.0614 5.12657C12.2137 5.01477 12.4434 4.92792 12.6185 4.95455C12.7503 4.97457 12.8516 5.19426 12.9666 5.32506C12.8602 5.39881 12.7467 5.46429 12.6499 5.54897C12.5746 5.6148 12.4493 5.73372 12.4679 5.77913C12.6164 6.14177 12.3998 6.26203 12.121 6.28537C11.7196 6.31904 11.5475 6.54122 11.4526 6.90111C11.4221 7.01694 11.2876 7.1793 11.1875 7.18945C10.8357 7.22502 10.7021 7.40272 10.7181 7.73316C10.2653 7.84405 10.2951 8.51655 9.77279 8.54656C9.81772 9.05774 9.34008 9.2459 9.1133 9.58666C8.96554 9.80868 8.79872 10.1142 8.41834 9.96933C8.38927 9.95827 8.34896 9.97674 8.31389 9.98143C8.51282 10.6585 7.61468 10.7827 7.61887 11.3616C7.57089 11.405 7.5229 11.4483 7.47492 11.4917C7.52101 11.4454 7.5671 11.3991 7.61322 11.3528C7.7268 11.4312 7.87367 11.6016 7.94901 11.5743C9.47242 11.0224 11.0917 11.2231 12.6489 10.9541C12.8996 10.9109 13.1514 10.7934 13.3949 10.8121C13.6219 10.8294 13.8501 10.963 14.0531 11.0861C14.1238 11.1289 14.0907 11.4441 14.2631 11.2017C14.617 10.7044 15.1559 10.6747 15.6363 10.7076C16.2624 10.7503 16.8865 10.2694 17.5312 10.7476C17.6805 10.8584 18.0653 10.6197 18.3468 10.5895C19.0983 10.5089 19.8516 10.4317 20.6061 10.4034C20.8281 10.3951 21.0564 10.555 21.2817 10.6378C21.3259 10.6866 21.37 10.7354 21.4141 10.7842C21.3653 10.7384 21.3165 10.6926 21.2678 10.6468C21.3476 10.5339 21.4161 10.336 21.5093 10.3235C21.8303 10.2806 22.1608 10.2855 22.486 10.3026C23.7701 10.3702 25.0536 10.4494 26.3373 10.5243C26.3813 10.573 26.4254 10.6217 26.4694 10.6704C26.4205 10.6249 26.3716 10.5793 26.3227 10.5337C26.4125 10.4916 26.5039 10.4102 26.5917 10.4138C27.1574 10.4371 27.7257 10.4518 28.2864 10.5227C28.8076 10.5886 29.3383 10.5468 29.8414 10.6002C30.7413 10.6958 31.6175 11.0127 32.5042 11.2351C32.5874 11.256 32.7378 11.2957 32.7501 11.2718C33.1156 10.5588 33.8988 11.2699 34.3286 10.8025C34.3714 10.8449 34.4453 10.8828 34.4519 10.9303C34.4994 11.2667 34.6915 11.2552 34.9185 11.1254C35.2775 10.9201 35.6552 10.9974 36.0386 10.9754C36.5961 10.9435 37.0998 11.4847 37.6649 11.0942C38.2367 11.2786 38.8176 11.2289 39.4041 11.1877C39.9404 11.15 40.1321 11.6353 40.4334 11.947C40.76 11.6625 41.1879 11.2375 41.5442 11.4781C42.0391 11.8123 42.4924 11.2851 42.989 11.6338C43.3232 11.8685 43.9007 11.7722 44.3707 11.7933C44.8891 11.8165 45.4336 11.8124 45.9183 11.8993C46.4356 11.9921 46.92 12.2759 47.4811 12.1435C47.9713 12.6459 48.56 12.3002 49.1056 12.3395C49.6484 12.3785 50.2072 12.3965 50.7239 12.5454C51.4862 12.7651 52.3141 12.6506 53.0363 13.0339C54.304 12.8939 55.4427 13.5505 56.7041 13.6014C57.825 13.6467 58.9296 14.0936 60.0417 14.3623C60.3739 14.4425 60.1216 14.608 60.0985 14.7403C60.2187 14.7347 60.3421 14.7443 60.4584 14.7199C60.6169 14.6865 60.7701 14.6273 60.9256 14.5791C61.2412 14.4815 61.1601 15.422 61.7123 14.8627C61.8343 14.739 62.2938 14.9242 62.5889 15.0016C63.1409 15.1465 63.7113 15.2618 64.2247 15.4971C64.5259 15.6351 64.72 15.9944 64.9849 16.2284C65.1667 16.389 65.3758 16.5325 65.5967 16.6279C65.6832 16.6652 65.9225 16.5744 65.9432 16.5003C66.0585 16.0882 66.3171 16.1272 66.6287 16.2162C67.019 16.3277 67.4114 16.4394 67.81 16.5124C68.2436 16.592 67.9767 16.7712 67.9592 16.9944C67.9302 17.365 67.9062 17.5454 67.5135 17.3199C67.4211 17.2668 67.3344 17.0885 67.2797 17.1025C66.5063 17.302 65.8268 16.8229 65.0973 16.8229C64.8268 16.8229 64.6462 16.7264 64.4199 16.6677C64.0097 16.5613 63.6396 16.3536 63.2194 16.2711C62.8358 16.1957 62.4522 16.1273 62.1069 15.8425C61.9091 15.6795 61.4831 15.8162 61.17 15.7609C61.0229 15.7349 60.7731 15.5528 60.7856 15.4771C60.901 14.7788 60.3476 15.069 60.237 15.1841C59.7712 15.6687 59.3384 15.3038 58.9384 15.1581C58.7957 15.1061 58.7788 14.7086 58.7045 14.4688L58.8522 14.3369C58.806 14.3855 58.7597 14.4341 58.7134 14.4828C58.3995 14.4786 58.4227 14.7431 58.3686 14.9322C58.2693 15.2795 58.1266 15.2509 58.0037 14.966C57.8631 14.6403 57.645 14.887 57.4661 14.8583C57.4225 14.8092 57.3789 14.7602 57.3353 14.7111C57.3837 14.7571 57.4321 14.8031 57.4805 14.8492ZM4.28073 15.5512C4.32997 15.5074 4.37925 15.4636 4.42849 15.4198C4.38219 15.4682 4.33585 15.5165 4.28957 15.5649C4.24108 15.609 4.1926 15.653 4.14411 15.6971L4.28073 15.5512ZM33.809 11.4136C33.6662 11.3129 33.5847 11.2095 33.5109 11.2147C33.4138 11.2216 33.3226 11.3139 33.229 11.3695C33.2827 11.4388 33.3248 11.5447 33.3935 11.5664C33.4567 11.5863 33.5484 11.5154 33.809 11.4136ZM9.87231 11.7025C9.78716 11.776 9.69626 11.832 9.64385 11.9129C9.6274 11.9383 9.71428 12.0306 9.75386 12.0924C9.82273 12.0363 9.90246 11.9885 9.95442 11.9198C9.97194 11.8965 9.91902 11.8201 9.87231 11.7025ZM7.31021 13.3602C7.27128 13.3864 7.22904 13.4148 7.18686 13.4432C7.23422 13.4793 7.27803 13.5356 7.33012 13.5448C7.36947 13.5517 7.41947 13.4984 7.46471 13.4719C7.41617 13.4368 7.36761 13.4017 7.31021 13.3602ZM5.1615 16.3531C5.12055 16.3103 5.08581 16.2438 5.03696 16.231C4.98346 16.2169 4.91693 16.2522 4.85608 16.266C4.89846 16.3099 4.93427 16.3769 4.98507 16.3914C5.03605 16.406 5.10198 16.3683 5.1615 16.3531ZM13.8013 24.4198C13.8306 24.4674 13.8502 24.54 13.8899 24.5535C13.9426 24.5714 14.0109 24.5431 14.0724 24.5347C14.0456 24.4904 14.0272 24.4201 13.9898 24.4079C13.9351 24.3899 13.8668 24.4135 13.8013 24.4198ZM53.7976 13.6275C53.8376 13.574 53.8943 13.5293 53.9033 13.4765C53.9102 13.4359 53.857 13.3852 53.8305 13.3389C53.7952 13.3885 53.7413 13.4343 53.7307 13.4887C53.723 13.5282 53.7722 13.5789 53.7976 13.6275ZM44.0711 12.2521C44.046 12.2644 44.0209 12.2766 43.9958 12.2889C44.034 12.3022 44.0723 12.3155 44.1105 12.3288C44.0974 12.3032 44.0842 12.2777 44.0711 12.2521ZM39.0171 11.4509C38.9919 11.4628 38.9666 11.4747 38.9414 11.4866C38.9796 11.5002 39.0177 11.5137 39.0558 11.5272C39.0429 11.5018 39.03 11.4764 39.0171 11.4509ZM35.6692 11.3742C35.6566 11.3486 35.6439 11.323 35.6313 11.2974C35.6178 11.336 35.6044 11.3745 35.591 11.413C35.6171 11.4001 35.6431 11.3872 35.6692 11.3742ZM23.8917 11.871C23.8795 11.8463 23.8672 11.8216 23.855 11.7969L23.8154 11.9082C23.8408 11.8958 23.8663 11.8834 23.8917 11.871ZM5.49322 13.2404C5.48184 13.2141 5.47046 13.1878 5.45905 13.1615C5.43355 13.1745 5.39607 13.1819 5.38645 13.2024C5.37916 13.2179 5.402 13.2625 5.42159 13.2711C5.43776 13.2783 5.46879 13.2518 5.49322 13.2404ZM3.72072 14.8555C3.70898 14.8289 3.6972 14.8023 3.68548 14.7757C3.65962 14.789 3.63376 14.8022 3.60791 14.8155C3.62074 14.8405 3.62814 14.878 3.64806 14.8867C3.66459 14.8939 3.69593 14.8672 3.72072 14.8555Z" fill="black" stroke="black" stroke-linejoin="round"/>
<path d="M69.8684 17.9848C69.3355 18.2428 69.0224 17.8464 68.6968 17.5194C68.6137 17.4358 68.5655 17.2255 68.6134 17.1295C68.6593 17.0376 68.8566 16.9647 68.9778 16.977C69.4393 17.0241 69.9663 16.9899 70.3397 17.2077C70.8979 17.5334 71.4956 17.6417 72.0872 17.8109C72.3386 17.8828 72.4587 18.0032 72.3881 18.2838C72.3179 18.563 72.2345 18.7608 71.8744 18.6745C71.6336 18.6168 71.3746 18.6397 71.1258 18.6095C70.9957 18.5936 70.767 18.5577 70.7582 18.5027C70.6697 17.9499 70.0667 18.4043 69.8684 17.9848Z" fill="black" stroke="black" stroke-linejoin="round"/>
<path d="M74.7787 19.5474C74.5169 19.4716 74.1744 19.608 74.1769 19.1326C74.1046 19.1657 74.035 19.2165 73.9594 19.2278C73.841 19.2454 73.6166 19.2561 73.6127 19.2358C73.5064 18.684 73.2852 18.7759 72.9882 19.0981C72.9647 19.1236 72.7509 19.0498 72.7395 18.9973C72.6864 18.7529 72.6618 18.5001 72.6553 18.2496C72.6539 18.1953 72.7872 18.0787 72.8277 18.0911C73.42 18.273 74.0132 18.4556 74.5919 18.6759C74.781 18.7479 74.962 18.9034 75.0851 19.0671C75.1819 19.1958 75.1841 19.3959 75.2283 19.5643C75.0785 19.5587 74.9286 19.553 74.7787 19.5474Z" fill="black" stroke="black" stroke-linejoin="round"/>
<path d="M79.1043 21.0419C79.1769 20.7689 79.5435 20.5855 79.8033 20.6449C80.0271 20.6962 80.2592 20.7879 80.1338 21.0614C80.0561 21.2307 79.8151 21.4759 79.7065 21.449C79.4794 21.3928 79.2914 21.1787 79.1043 21.0419ZM79.6292 20.8783L79.5545 20.9146C79.5924 20.9279 79.6303 20.9412 79.6682 20.9545C79.6552 20.9291 79.6422 20.9037 79.6292 20.8783Z" fill="black" stroke="black" stroke-linejoin="round"/>
<path d="M77.5923 20.3294C77.7318 20.0788 77.9512 19.9472 78.2211 20.04C78.3718 20.0918 78.5906 20.2556 78.5922 20.3715C78.5964 20.6875 78.3475 20.4866 78.2184 20.4708C78.0036 20.4445 77.7948 20.3689 77.5835 20.3141L77.5923 20.3294Z" fill="black" stroke="black" stroke-linejoin="round"/>
<path d="M76.7415 19.6353C76.437 19.764 76.2599 19.8389 76.0828 19.9138C76.0392 19.7966 75.9259 19.6268 75.9663 19.5733C76.0523 19.4596 76.2121 19.3652 76.3537 19.3441C76.4356 19.3318 76.5411 19.4775 76.7415 19.6353Z" fill="black" stroke="black" stroke-linejoin="round"/>
<path d="M14.047 3.99299C14.0835 4.14198 14.143 4.24499 14.1137 4.30317C14.0825 4.36501 13.967 4.3843 13.8883 4.42215C13.8522 4.34207 13.7754 4.25213 13.7917 4.18479C13.807 4.12156 13.9208 4.08222 14.047 3.99299Z" fill="black" stroke="black" stroke-linejoin="round"/>
<path d="M82.2508 22.1722C82.2213 22.1391 82.1479 22.0571 82.0746 21.975C82.2989 22.0286 82.5231 22.0822 82.7474 22.1359C82.7126 22.1732 82.6768 22.2431 82.6433 22.2419C82.5393 22.2384 82.4362 22.208 82.2508 22.1722Z" fill="black" stroke="black" stroke-linejoin="round"/>
<path d="M77.3755 19.8106C77.2866 19.834 77.1919 19.8589 77.0971 19.8839C77.1007 19.8159 77.0809 19.7058 77.1126 19.6881C77.1925 19.6434 77.2956 19.6403 77.3894 19.6205C77.3853 19.6766 77.3812 19.7327 77.3755 19.8106Z" fill="black" stroke="black" stroke-linejoin="round"/>
<path d="M81.3902 21.3628C81.3106 21.4265 81.2426 21.5041 81.1574 21.5369C81.1262 21.549 81.0541 21.455 81.0007 21.4093C81.0722 21.355 81.1374 21.2827 81.218 21.2544C81.2543 21.2416 81.3213 21.3169 81.3902 21.3628Z" fill="black" stroke="black" stroke-linejoin="round"/>
<path d="M77.5842 20.3132C77.4718 20.3521 77.36 20.3933 77.2457 20.4255C77.2368 20.4281 77.2104 20.3684 77.1921 20.3376C77.2912 20.3251 77.3901 20.3093 77.4895 20.3021C77.5232 20.2996 77.5585 20.319 77.593 20.3284L77.5842 20.3132Z" fill="black" stroke="black" stroke-linejoin="round"/>
<path d="M5.56755 14.056C5.63506 14.0741 5.70868 14.0809 5.76826 14.1135C5.82374 14.1438 5.86427 14.2014 5.91135 14.2471C5.84846 14.2603 5.75648 14.3056 5.72857 14.2802C5.66285 14.2206 5.6277 14.1272 5.58022 14.0474L5.56755 14.056Z" fill="black" stroke="black" stroke-linejoin="round"/>
<path d="M26.3762 12.1485C26.4439 12.1684 26.5175 12.1777 26.5775 12.2113C26.6331 12.2426 26.674 12.3 26.7214 12.3459C26.6574 12.3588 26.5632 12.4041 26.5354 12.3781C26.4697 12.3168 26.4355 12.2216 26.3886 12.1401C26.3886 12.1401 26.3762 12.1485 26.3762 12.1485Z" fill="black" stroke="black" stroke-linejoin="round"/>
<path d="M80.7117 21.0478C80.6993 21.0221 80.671 20.9894 80.6785 20.9726C80.6878 20.9517 80.7342 20.9274 80.7509 20.9349C80.7725 20.9447 80.7807 20.9844 80.7947 21.0112C80.767 21.0234 80.7394 21.0356 80.7117 21.0478Z" fill="black" stroke="black" stroke-linejoin="round"/>
<path d="M48.8587 13.6299C48.9076 13.6762 48.9565 13.7225 49.0055 13.7689C48.9608 13.7198 48.9162 13.6707 48.8715 13.6217C48.8715 13.6217 48.8587 13.6299 48.8587 13.6299Z" fill="black" stroke="black" stroke-linejoin="round"/>
<path d="M49.726 13.8308C49.6798 13.8785 49.6336 13.9261 49.5873 13.9737C49.6368 13.9313 49.6863 13.8888 49.7358 13.8463L49.726 13.8308Z" fill="black" stroke="black" stroke-linejoin="round"/>
<path d="M83.5655 22.4444C83.553 22.4187 83.5245 22.3858 83.532 22.3691C83.5413 22.3482 83.5878 22.3239 83.6046 22.3315C83.6263 22.3412 83.6345 22.3809 83.6486 22.4078C83.6209 22.42 83.5932 22.4322 83.5655 22.4444Z" fill="black" stroke="black" stroke-linejoin="round"/>
<path d="M18.513 12.3564C18.4884 12.3689 18.4637 12.3814 18.439 12.394L18.4771 12.2848C18.4891 12.3087 18.5011 12.3325 18.513 12.3564Z" fill="black" stroke="black" stroke-linejoin="round"/>
<path d="M33.8083 11.4135C33.5473 11.5154 33.4555 11.5864 33.3923 11.5665C33.3235 11.5448 33.2813 11.4387 33.2275 11.3693C33.3213 11.3137 33.4125 11.2212 33.5098 11.2143C33.5837 11.2091 33.6653 11.3126 33.8083 11.4135Z" fill="white" stroke="black" stroke-linejoin="round"/>
<path d="M9.87113 11.7025C9.91773 11.8197 9.97054 11.896 9.95305 11.9192C9.90122 11.9878 9.82167 12.0355 9.75296 12.0914C9.71347 12.0298 9.62678 11.9376 9.6432 11.9123C9.69549 11.8316 9.78618 11.7758 9.87113 11.7025Z" fill="white" stroke="black" stroke-linejoin="round"/>
<path d="M7.3095 13.36C7.36686 13.4015 7.41538 13.4366 7.46391 13.4717C7.41869 13.4981 7.36872 13.5514 7.3294 13.5445C7.27733 13.5353 7.23357 13.479 7.18623 13.443C7.2284 13.4146 7.2706 13.3862 7.3095 13.36Z" fill="white" stroke="black" stroke-linejoin="round"/>
<path d="M42.3091 12.4443C42.24 12.4257 42.1644 12.4187 42.1038 12.3849C42.0482 12.3539 42.0087 12.294 41.9621 12.2468C42.027 12.2323 42.124 12.1845 42.1505 12.21C42.2162 12.2732 42.2497 12.3699 42.2961 12.4532L42.3091 12.4443Z" fill="white" stroke="black" stroke-linejoin="round"/>
<path d="M5.16129 16.3513C5.10195 16.3661 5.03611 16.4037 4.98515 16.3891C4.93441 16.3746 4.8986 16.3077 4.85624 16.2638C4.91706 16.25 4.98354 16.2147 5.03701 16.2288C5.08584 16.2417 5.12051 16.3081 5.16129 16.3513Z" fill="white" stroke="black" stroke-linejoin="round"/>
<path d="M9.23023 18.6168C9.11673 18.6559 9.00388 18.6973 8.88849 18.7298C8.87959 18.7323 8.85299 18.6718 8.83461 18.6406C8.9339 18.6271 9.03293 18.6101 9.13267 18.6021C9.16661 18.5994 9.20236 18.6193 9.23728 18.6289C9.23728 18.6289 9.23022 18.6168 9.23023 18.6168Z" fill="white" stroke="black" stroke-linejoin="round"/>
<path d="M13.8006 24.419C13.8661 24.4128 13.9344 24.3892 13.9891 24.4071C14.0264 24.4193 14.0448 24.4895 14.0716 24.5338C14.0101 24.5422 13.9418 24.5705 13.8892 24.5526C13.8496 24.5391 13.83 24.4666 13.8006 24.419Z" fill="white" stroke="black" stroke-linejoin="round"/>
<path d="M53.7975 13.6273C53.7722 13.5788 53.723 13.5281 53.7307 13.4886C53.7413 13.4343 53.7951 13.3884 53.8305 13.3389C53.8569 13.3851 53.9101 13.4359 53.9032 13.4764C53.8942 13.5292 53.8376 13.5739 53.7975 13.6273Z" fill="white" stroke="black" stroke-linejoin="round"/>
<path d="M58.7134 14.4843C58.7599 14.4354 58.8064 14.3865 58.8529 14.3376L58.7044 14.4702C58.7044 14.4702 58.7133 14.4843 58.7134 14.4843Z" fill="white" stroke="black" stroke-linejoin="round"/>
<path d="M57.4807 14.8504C57.4318 14.8039 57.3829 14.7574 57.334 14.7109C57.378 14.7605 57.4221 14.8101 57.4661 14.8597L57.4807 14.8504Z" fill="white" stroke="black" stroke-linejoin="round"/>
<path d="M44.0735 12.2512C44.087 12.2774 44.1004 12.3035 44.1138 12.3296C44.0747 12.316 44.0356 12.3024 43.9965 12.2888C44.0221 12.2763 44.0478 12.2638 44.0735 12.2512Z" fill="white" stroke="black" stroke-linejoin="round"/>
<path d="M39.0194 11.4516C39.0326 11.4776 39.0458 11.5036 39.059 11.5296C39.02 11.5158 38.981 11.5019 38.942 11.4881C38.9678 11.4759 38.9936 11.4637 39.0194 11.4516Z" fill="white" stroke="black" stroke-linejoin="round"/>
<path d="M35.6691 11.3753C35.6424 11.3885 35.6157 11.4017 35.589 11.4149C35.6028 11.3755 35.6166 11.3361 35.6303 11.2967C35.6433 11.3229 35.6561 11.3491 35.6691 11.3753Z" fill="white" stroke="black" stroke-linejoin="round"/>
<path d="M26.3192 10.5348C26.3683 10.5806 26.4175 10.6264 26.4666 10.6721C26.4224 10.6232 26.3781 10.5743 26.3338 10.5253L26.3192 10.5348Z" fill="white" stroke="black" stroke-linejoin="round"/>
<path d="M21.2647 10.6485C21.3137 10.6945 21.3626 10.7405 21.4117 10.7865C21.3673 10.7375 21.323 10.6885 21.2787 10.6395C21.2787 10.6395 21.2647 10.6485 21.2647 10.6485Z" fill="white" stroke="black" stroke-linejoin="round"/>
<path d="M23.8907 11.8726C23.8647 11.8853 23.8387 11.898 23.8127 11.9107L23.8532 11.7968C23.8657 11.8221 23.8782 11.8474 23.8907 11.8726Z" fill="white" stroke="black" stroke-linejoin="round"/>
<path d="M22.7369 12.1462C22.6879 12.1001 22.6389 12.054 22.5898 12.0078C22.6344 12.0568 22.6789 12.1059 22.7234 12.1549L22.7369 12.1462Z" fill="white" stroke="black" stroke-linejoin="round"/>
<path d="M13.2119 12.759C13.2582 12.7107 13.3045 12.6623 13.3508 12.614C13.3015 12.6576 13.2522 12.7012 13.2029 12.7448L13.2119 12.759Z" fill="white" stroke="black" stroke-linejoin="round"/>
<path d="M7.61232 11.3527C7.56575 11.3995 7.51918 11.4462 7.47262 11.493C7.5211 11.4492 7.56956 11.4054 7.61803 11.3616L7.61232 11.3527Z" fill="white" stroke="black" stroke-linejoin="round"/>
<path d="M5.49222 13.2417C5.46763 13.2532 5.43642 13.2798 5.42014 13.2726C5.40042 13.2639 5.3774 13.2191 5.38474 13.2035C5.39442 13.1828 5.43216 13.1754 5.45785 13.1623C5.46933 13.1887 5.48077 13.2152 5.49222 13.2417Z" fill="white" stroke="black" stroke-linejoin="round"/>
<path d="M3.72228 14.8575C3.69693 14.8695 3.66487 14.8969 3.64796 14.8895C3.62759 14.8806 3.62004 14.8422 3.60693 14.8167C3.63337 14.8031 3.65983 14.7896 3.68627 14.776C3.69827 14.8032 3.71028 14.8303 3.72228 14.8575Z" fill="white" stroke="black" stroke-linejoin="round"/>
<path d="M4.29137 15.5673C4.33815 15.5185 4.38492 15.4696 4.43169 15.4208C4.38195 15.465 4.33219 15.5093 4.28244 15.5535L4.29137 15.5673Z" fill="white" stroke="black" stroke-linejoin="round"/>
<path d="M4.28045 15.5519L4.14317 15.6985C4.1919 15.6542 4.24062 15.61 4.28933 15.5657L4.28045 15.5519Z" fill="white" stroke="black" stroke-linejoin="round"/>
<path d="M79.6276 20.8761C79.6409 20.9021 79.6542 20.928 79.6674 20.954C79.6287 20.9403 79.59 20.9268 79.5513 20.9132C79.5767 20.9008 79.6022 20.8884 79.6276 20.8761Z" fill="white" stroke="black" stroke-linejoin="round"/>
</svg>
