<?xml version="1.0" encoding="utf-8"?>
<!-- Generator: Adobe Illustrator 26.0.1, SVG Export Plug-In . SVG Version: 6.00 Build 0)  -->
<svg version="1.1" id="Слой_1" xmlns="http://www.w3.org/2000/svg" xmlns:xlink="http://www.w3.org/1999/xlink" x="0px" y="0px"
	 viewBox="0 0 913.8 141.7" style="enable-background:new 0 0 913.8 141.7;" xml:space="preserve">
<style type="text/css">
	.st0{fill:#1A3641;}
	.st1{fill:#DB2778;}
	.st2{fill:#1D1D1B;}
</style>
<path class="st0" d="M43-288.7h65.9c1.6,0,2.9,1.3,2.9,2.9v25c0,1.6-1.3,2.9-2.9,2.9H43c-1.6,0-2.9-1.3-2.9-2.9v-25
	C40.1-287.4,41.4-288.7,43-288.7z"/>
<path class="st0" d="M43-219.9h65.9c1.6,0,2.9,1.3,2.9,2.9v25c0,1.6-1.3,2.9-2.9,2.9H43c-1.6,0-2.9-1.3-2.9-2.9v-25
	C40.1-218.6,41.4-219.9,43-219.9z"/>
<path class="st0" d="M19.9-254.3h65.9c1.6,0,2.9,1.3,2.9,2.9v25c0,1.6-1.3,2.9-2.9,2.9H19.9c-1.6,0-2.9-1.3-2.9-2.9v-25
	C17-253,18.3-254.3,19.9-254.3z"/>
<path class="st0" d="M117.2-289h4.9c0.8,0,1.4,0.6,1.4,1.4v97.2c0,0.8-0.6,1.4-1.4,1.4h-4.9c-0.8,0-1.4-0.6-1.4-1.4v-97.2
	C115.8-288.3,116.4-289,117.2-289z"/>
<g>
	<path class="st0" d="M176.2-238.1c0.4,0,0.8-0.3,1-0.9c0.3-0.6,0.5-1.3,0.6-2c0.1-0.8,0.2-1.6,0.2-2.3c0.1-0.8,0.1-1.4,0.1-1.9
		v-29.6h26.5v36.3c0,1.3-0.2,2.5-0.5,3.8c-0.3,1.5-0.8,2.9-1.5,4.3c-0.6,1.3-1.3,2.5-2.3,3.6c-0.7,0.9-1.8,1.5-3,1.7L195-225
		l9.6,23.4h-26.5l-9.6-23.4h-13.6v23.4h-26.4v-73l-0.1-0.1h26.5v36.7L176.2-238.1L176.2-238.1z"/>
	<path class="st0" d="M296.8-201.7h-26.3v-17.8h-31.7l-0.6,1.7v16.1H212v-17.8c3.1-8.9,6.3-17.3,9.7-25.2s6.9-16.1,10.4-24.4
		c0.2-0.5,0.5-0.9,0.8-1.3c0.5-0.6,1-1.3,1.5-1.9s1.1-1.2,1.7-1.7c0.4-0.4,0.9-0.7,1.5-0.8h59.2V-201.7z M255.9-263.4L244-232.8
		h26.5v-30.6H255.9z"/>
	<path class="st0" d="M304.2-274.8h15.5c0.5,0,1.1,0.2,1.6,0.4c0.8,0.3,1.6,0.6,2.3,1c0.8,0.4,1.6,0.9,2.3,1.5
		c0.7,0.5,1.3,1.1,1.8,1.8c4.2,4.3,8.3,8.8,12.4,13.3c4.1,4.6,8.2,9.3,12.2,14.1v-32.1h26.5v73.1h-15.7c-0.8-0.1-1.5-0.5-2.2-1
		c-0.8-0.6-1.6-1.3-2.3-2.1c-0.8-0.8-1.5-1.6-2.2-2.5l-2-2.3L330.7-235v33.3h-26.5L304.2-274.8L304.2-274.8z"/>
	<path class="st0" d="M471.2-221.1c0,1.9-0.1,3.9-0.2,6.1c-0.1,2.1-0.4,4.3-1,6.4c-0.5,1.8-1.3,3.5-2.5,5c-1.2,1.4-2.9,2.1-4.7,2
		h-76.7v-73.2h48.4c1,0,1.9,0.3,2.8,0.6c1,0.3,1.9,0.9,2.7,1.5c5.1,4.4,9.9,9.2,14.3,14.2c4.7,5.4,9,11,13.1,16.8
		c1.6,3.1,2.7,6.4,3.2,9.8C471-228.3,471.2-224.7,471.2-221.1z M412.7-214.7h30.2l1.9-1.8v-8l-7-9.9h-18.7v-13.3h9.4l-7.6-11.1
		c-0.5-0.5-1-1-1.6-1.5c-0.7-0.6-1.4-1.2-2.2-1.6c-0.8-0.5-1.6-1-2.4-1.4c-0.6-0.3-1.4-0.5-2.1-0.6L412.7-214.7z"/>
	<path class="st0" d="M563.4-201.7h-26.3v-17.8h-31.7l-0.6,1.7v16.1h-26.2v-17.8c3-8.9,6.3-17.3,9.7-25.2s6.9-16.1,10.3-24.4
		c0.2-0.5,0.5-0.9,0.8-1.3c0.5-0.6,1-1.3,1.5-1.9s1.1-1.2,1.7-1.7c0.4-0.4,0.9-0.7,1.5-0.8h59.2v73.1H563.4z M522.5-263.4
		l-11.9,30.6h26.5v-30.6H522.5z"/>
	<path class="st0" d="M570.8-274.8h15.5c0.5,0,1.1,0.2,1.6,0.4c0.8,0.3,1.6,0.6,2.3,1c0.8,0.4,1.6,0.9,2.3,1.5
		c0.7,0.5,1.3,1.1,1.8,1.8c4.1,4.3,8.3,8.8,12.4,13.3c4.1,4.6,8.2,9.3,12.2,14.1v-32.1h26.5v73.1h-15.7c-0.8-0.1-1.5-0.5-2.2-1
		c-0.8-0.6-1.6-1.3-2.3-2.1c-0.8-0.8-1.5-1.6-2.2-2.5l-2-2.3L597.3-235v33.3h-26.5L570.8-274.8L570.8-274.8z"/>
	<path class="st0" d="M652.8-221.1c0-3.6,0.2-7.2,0.6-10.7c0.5-3.4,1.5-6.8,3.2-9.8l0.2-0.5c4.3-5.8,8.7-11.3,13.1-16.3
		c4.4-5,9-9.6,14-14c0.8-0.7,1.7-1.3,2.7-1.6c0.9-0.4,1.9-0.6,2.8-0.6h44.1v10.9h-22.3c-0.7,0-1.4,0.2-2.1,0.6
		c-0.8,0.4-1.6,0.8-2.4,1.3c-0.8,0.5-1.5,1.1-2.2,1.7c-0.6,0.5-1.1,1-1.6,1.5l-7.7,11.1h29.2v13.3H686l-6.7,9.9v8l1.8,1.8h52.6v13.1
		h-72.5c-1.8,0.1-3.5-0.6-4.7-2c-1.2-1.5-2-3.2-2.5-5c-0.6-2.1-0.9-4.2-1-6.3C652.8-217.2,652.8-219.2,652.8-221.1z"/>
	<path class="st0" d="M791.5-274.8v11.4h-7c-0.4,0-1.1,0.9-2,2.6s-1.9,3.9-3.1,6.6s-2.4,5.6-3.6,8.9c-1.2,3.3-2.3,6.5-3.4,9.6
		s-1.9,5.9-2.5,8.4c-0.5,1.8-0.9,3.7-1,5.6c0,0.2,0,0.8,0.1,1.5s0.2,1.5,0.4,2.3c0.2,0.7,0.3,1.4,0.6,2.1c0.2,0.6,0.5,1,0.8,1h34.9
		v13.1h-59.4c-1.1,0-2.2-0.6-2.9-1.5c-0.8-1.1-1.5-2.4-2-3.7c-0.6-1.4-1-2.9-1.2-4.4c-0.2-1.3-0.4-2.5-0.4-3.8c0-0.4,0-0.9,0.1-1.5
		s0.1-0.9,0.1-1c3-8.7,6.3-17.3,9.7-25.7s6.9-17,10.3-25.8c0.1-0.1,0.3-0.3,0.6-0.7c0.3-0.4,0.6-0.8,1-1.3s0.8-1,1.1-1.5
		c0.3-0.4,0.6-0.7,1-1.1c0.3-0.3,0.6-0.5,1-0.7c0.3-0.2,0.6-0.4,1-0.5L791.5-274.8L791.5-274.8z"/>
</g>
<g>
	<path class="st0" d="M130.4,36.5l0,69.3c0,1.7-1.5,3-3.4,3l-29.2,0c-1.9,0-3.4-1.4-3.4-3l0-69.3c0-1.7,1.5-3,3.4-3l29.2,0
		C128.9,33.5,130.4,34.8,130.4,36.5z"/>
	<path class="st0" d="M50.2,36.5l0,69.3c0,1.7-1.5,3-3.4,3l-29.2,0c-1.9,0-3.4-1.4-3.4-3l0-69.3c0-1.7,1.5-3,3.4-3l29.2,0
		C48.6,33.5,50.2,34.8,50.2,36.5z"/>
	<path class="st0" d="M90.3,30.3l0,69.3c0,1.7-1.5,3-3.4,3H57.7c-1.9,0-3.4-1.4-3.4-3l0-69.3c0-1.7,1.5-3,3.4-3l29.2,0
		C88.8,27.2,90.3,28.6,90.3,30.3z"/>
	<path class="st0" d="M136.2,20.8h4.9c0.8,0,1.4,0.6,1.4,1.4v97.2c0,0.8-0.6,1.4-1.4,1.4h-4.9c-0.8,0-1.4-0.6-1.4-1.4V22.2
		C134.8,21.5,135.4,20.8,136.2,20.8z"/>
	<g>
		<path class="st0" d="M173.9,71.7h21.3c0.4,0,0.8-0.3,1-0.9c0.3-0.6,0.4-1.3,0.6-2s0.2-1.5,0.3-2.3c0-0.8,0.1-1.4,0.1-1.8V35h26.5
			v36.3c0,1-0.2,2.3-0.5,3.7c-0.3,1.5-0.8,2.9-1.5,4.3s-1.4,2.6-2.3,3.6s-1.9,1.6-3,1.7l-2.4,0.1l9.6,23.4h-26.5l-9.6-23.4h-13.6
			v23.4h-26.4v-73l-0.1-0.1h26.5L173.9,71.7L173.9,71.7z"/>
		<path class="st0" d="M289.5,108.1V90.4h-31.7l-0.6,1.7v16.1H231V90.4c3-8.9,6.3-17.3,9.7-25.2s6.9-16.1,10.3-24.4
			c0.1-0.3,0.4-0.7,0.8-1.3c0.5-0.6,1-1.3,1.5-1.9c0.5-0.6,1.1-1.2,1.7-1.7c0.6-0.5,1.1-0.8,1.5-0.8h59.2v73.1L289.5,108.1
			L289.5,108.1z M263,77h26.5V46.4h-14.6L263,77z"/>
		<path class="st0" d="M338.7,35c0.3,0,0.9,0.1,1.6,0.4c0.7,0.3,1.5,0.6,2.3,1s1.6,0.9,2.3,1.5c0.7,0.6,1.3,1.2,1.8,1.8
			c4.1,4.3,8.3,8.8,12.4,13.3c4.1,4.6,8.2,9.3,12.3,14.1V35h26.5v73.1h-15.7c-0.7-0.1-1.4-0.4-2.2-1c-0.8-0.6-1.5-1.3-2.3-2.1
			c-0.8-0.8-1.5-1.6-2.2-2.5c-0.7-0.8-1.4-1.6-2-2.3l-23.7-25.4v33.3h-26.5V35H338.7z"/>
		<path class="st0" d="M490.1,94.9c-0.1,2.2-0.5,4.4-1,6.3c-0.6,2-1.4,3.6-2.5,5c-1.1,1.3-2.7,2-4.7,2h-76.7V35h48.4
			c0.8,0,1.7,0.2,2.8,0.6c1.1,0.4,2,0.9,2.7,1.5c5.1,4.4,9.8,9.1,14.3,14.2c4.4,5.1,8.8,10.7,13.1,16.8c1.7,3.2,2.7,6.5,3.2,9.8
			c0.4,3.3,0.6,6.9,0.6,10.7C490.2,90.6,490.2,92.6,490.1,94.9z M461.9,95.1l1.9-1.8v-8l-7-9.9h-18.7V62h9.4L440,51
			c-0.3-0.4-0.8-0.9-1.5-1.5s-1.4-1.1-2.2-1.6c-0.8-0.5-1.6-1-2.4-1.3c-0.8-0.4-1.5-0.6-2.1-0.6v49.1
			C431.8,95.1,461.9,95.1,461.9,95.1z"/>
		<path class="st0" d="M556.1,108.1V90.4h-31.7l-0.6,1.7v16.1h-26.2V90.4c3-8.9,6.3-17.3,9.7-25.2c3.4-7.9,6.9-16.1,10.3-24.4
			c0.1-0.3,0.4-0.7,0.8-1.3c0.5-0.6,1-1.3,1.5-1.9c0.5-0.6,1.1-1.2,1.7-1.7c0.6-0.5,1.1-0.8,1.5-0.8h59.2v73.1L556.1,108.1
			L556.1,108.1z M529.6,77h26.5V46.4h-14.6L529.6,77z"/>
		<path class="st0" d="M605.3,35c0.3,0,0.9,0.1,1.6,0.4c0.7,0.3,1.5,0.6,2.3,1s1.6,0.9,2.3,1.5s1.3,1.2,1.8,1.8
			c4.1,4.3,8.3,8.8,12.4,13.3c4.1,4.6,8.2,9.3,12.3,14.1V35h26.5v73.1h-15.7c-0.7-0.1-1.4-0.4-2.2-1s-1.5-1.3-2.3-2.1
			c-0.8-0.8-1.5-1.6-2.2-2.5c-0.7-0.8-1.4-1.6-2-2.3l-23.7-25.4v33.3h-26.5V35H605.3z"/>
		<path class="st0" d="M698.3,35v73.1h-26.5V35H698.3z"/>
		<path class="st0" d="M705.8,94.9h24.9L707.3,59c-0.7-0.9-1.1-2-1.3-3.2s-0.3-2.3-0.3-3.4v-1.1c0-1.8,0.3-3.6,1-5.5
			s1.5-3.6,2.6-5.2c1.1-1.6,2.3-2.9,3.6-3.9c1.4-1.1,2.7-1.6,3.9-1.6h43.5c2.2,0,3.8,0.6,4.9,1.8c1.1,1.2,1.6,3.6,1.6,7.1v7.4h-18.2
			v-5.3h-14.2c-0.2,0-0.4,0.3-0.6,0.9c-0.3,0.6-0.4,1-0.4,1.1L766,98.4c0.4,0.6,0.7,1.4,0.8,2.3c0.1,1,0.1,1.9,0.1,2.9
			c0,1.6-0.2,2.8-0.5,3.6c-0.3,0.8-0.7,1.1-1.1,1.1h-59.5L705.8,94.9L705.8,94.9z"/>
		<path class="st0" d="M851.3,108.1V49.4c0-0.1-0.1-0.4-0.4-1c-0.3-0.6-0.5-1-0.8-1.3L849,46h-9.8v62.2h-26.4V49.4
			c-0.1-0.2-0.3-0.5-0.5-1.1c-0.3-0.5-0.5-1-0.6-1.2l-1.1-1.1h-9.8v62.2h-26.4V35h91.5c1.7,0,3.3,0.4,4.7,1.3
			c1.4,0.9,2.7,2.1,3.7,3.6c1.1,1.5,1.9,3.2,2.5,5.1c0.6,1.9,0.9,3.9,0.9,5.9V108L851.3,108.1L851.3,108.1z"/>
	</g>
</g>
<path class="st1" d="M43,288.3h65.9c1.6,0,2.9,1.3,2.9,2.9v25c0,1.6-1.3,2.9-2.9,2.9H43c-1.6,0-2.9-1.3-2.9-2.9v-25
	C40.1,289.6,41.4,288.3,43,288.3z"/>
<path class="st1" d="M43,357h65.9c1.6,0,2.9,1.3,2.9,2.9v25c0,1.6-1.3,2.9-2.9,2.9H43c-1.6,0-2.9-1.3-2.9-2.9v-25
	C40.1,358.3,41.4,357,43,357z"/>
<path class="st2" d="M19.9,322.6h65.9c1.6,0,2.9,1.3,2.9,2.9v25c0,1.6-1.3,2.9-2.9,2.9H19.9c-1.6,0-2.9-1.3-2.9-2.9v-25
	C17,323.9,18.3,322.6,19.9,322.6z"/>
<path class="st1" d="M117.2,287.9h4.9c0.8,0,1.4,0.6,1.4,1.4v97.2c0,0.8-0.6,1.4-1.4,1.4h-4.9c-0.8,0-1.4-0.6-1.4-1.4v-97.2
	C115.8,288.6,116.4,287.9,117.2,287.9z"/>
<text transform="matrix(1 0 0 1 124.66 375.2445)" class="st1" style="font-family:'GlobalDynamicsCondensed'; font-size:126.95px;">KANBANism</text>
</svg>
