<svg width="84" height="43" viewBox="0 0 84 43" fill="none" xmlns="http://www.w3.org/2000/svg">
<path d="M26.9141 14.8482C26.9851 15.0482 27.0038 15.3079 27.3391 15.1673C27.75 14.9949 28.1647 14.8314 28.5804 14.671C29.0008 14.5089 29.4012 14.2395 29.891 14.4944C29.9942 14.5481 30.2363 14.5175 30.2987 14.4365C30.6328 14.0027 31.1275 14.107 31.5606 14.0171C31.9508 13.9361 32.3639 13.9359 32.7378 13.8121C33.395 13.5945 34.0278 13.8951 34.6714 13.8304L34.6616 13.8457C34.8591 13.4007 35.15 13.3281 35.5345 13.6281L35.5218 13.62C35.6621 13.6267 35.8058 13.6169 35.9415 13.6455C36.0479 13.668 36.2305 13.7848 36.233 13.7802C36.6002 13.1038 37.1668 13.401 37.6383 13.5445C37.9318 13.6339 37.9797 13.6309 38.0626 13.343C38.0823 13.2743 38.5534 13.2295 38.717 13.3326C38.9825 13.4999 38.9947 13.5353 39.2505 13.2475C39.511 12.9546 40.0703 12.78 40.5583 13.0807C40.8238 13.2443 41.0198 13.2537 41.0877 12.8532C41.1273 12.6194 41.3321 12.648 41.5187 12.7471C41.6825 12.8341 41.6932 12.9262 41.6245 13.0944C41.5853 13.1904 41.2489 13.4066 41.6614 13.4336C41.7734 13.4409 41.9491 13.2626 42.0028 13.1315C42.0496 13.0173 41.9416 12.8484 41.9481 12.7057C41.952 12.6192 42.0435 12.5367 42.0956 12.4523C42.1421 12.3689 42.1757 12.2719 42.2415 12.2086C42.2681 12.1831 42.3653 12.231 42.4303 12.2455C42.3836 12.2928 42.344 12.3529 42.2883 12.3839C42.2275 12.4178 42.1517 12.4248 42.0825 12.4435C42.1872 12.9702 42.691 13.0362 43.0463 13.2712C43.0986 13.3057 43.2201 13.318 43.2547 13.2842C43.7186 12.8312 44.2502 13.0631 44.7706 13.0947C44.8497 13.0995 44.9446 12.8408 45.0322 12.704C45.4854 13.233 45.9205 12.5708 46.4068 12.6798C46.8786 12.7855 47.4081 12.6331 47.9122 12.5934C48.1439 12.5751 48.471 12.3517 48.4599 12.8506C48.5295 12.8433 48.6201 12.8619 48.6656 12.8249C49.2124 12.3817 49.9845 12.2269 50.5689 12.4489C50.6627 12.4845 50.8319 12.5451 50.8532 12.5148C51.1814 12.0472 51.6726 12.4023 52.0747 12.2704C52.4728 12.1398 52.9573 12.2678 53.3516 12.1312C53.8235 11.9678 54.1074 12.3583 54.5077 12.3711C54.7549 12.379 55.0228 12.5858 55.0572 12.1347C55.0597 12.1022 55.176 12.0453 55.1809 12.0509C55.5583 12.4838 55.8411 12.1591 56.2166 12.0032C56.6244 11.8338 57.1222 11.8534 57.5812 11.8506C57.7254 11.8498 57.8709 12.0427 58.0158 12.1469L58.0033 12.1384C58.2777 12.17 58.5539 12.3459 58.823 12.1127C59.2531 11.7401 59.0854 12.3545 59.2638 12.3823C59.5303 12.4238 59.3389 11.8553 59.7142 12.0304C59.7726 12.0576 59.8086 12.1327 59.855 12.1857C60.1427 12.5138 60.4624 12.5872 60.7782 12.247C61.0614 11.9418 61.3627 12.0702 61.6721 12.1515C61.7161 12.1029 61.7602 12.0544 61.8043 12.0059C61.7558 12.0515 61.7072 12.0972 61.6587 12.1429C61.8165 12.177 62.0036 12.2834 62.1271 12.2332C62.8504 11.9388 63.3749 11.9326 64.1197 12.2456C64.3649 12.3486 64.758 12.5531 64.8618 12.3034C65.0267 11.907 65.2686 12.0421 65.5292 11.9665C65.9001 11.859 66.173 11.7039 66.2891 12.2231C66.8073 12.1684 67.2004 12.7312 67.7902 12.4662C68.4025 12.1911 69.0674 12.2777 69.7139 12.429C70.0123 12.4989 70.0979 12.6114 69.8475 12.8533C69.8093 12.8902 69.8292 12.9874 69.8222 13.0567C69.9654 13.0304 70.1329 13.0423 70.2466 12.9699C70.4949 12.8114 70.715 12.6293 70.9229 13.0069C71.0117 12.9189 71.1005 12.831 71.1894 12.743C71.1405 12.6998 71.0917 12.6566 71.0429 12.6134C71.0887 12.6612 71.1346 12.7092 71.1804 12.757C71.3639 12.7373 71.6563 12.549 71.5414 12.9908C71.7452 12.9867 71.9641 12.9323 72.1502 12.9879C72.7138 13.1566 73.2647 13.3687 73.7766 12.8751C74.2654 12.9468 74.7547 13.0164 75.2415 13.1001C75.2564 13.1026 75.2803 13.2924 75.2416 13.3246C75.1021 13.4407 75.0599 13.6378 75.2675 13.5273C75.8022 13.2427 76.1513 13.4039 76.5139 13.7932C76.6255 13.9131 76.8614 13.9176 76.9721 14.0379C77.1213 14.2001 77.181 14.1701 77.2878 14.0157C77.4316 13.8076 77.5812 13.5998 77.7565 13.4192C77.8139 13.3601 77.9592 13.3863 78.0643 13.3735C78.0121 13.4704 77.9367 13.5624 77.9148 13.6657C77.8963 13.7534 77.9395 13.8543 77.9554 13.9493C78.0535 13.9328 78.1905 13.9518 78.2432 13.894C78.5571 13.5489 78.7267 13.656 78.8272 14.0537C78.8272 14.0537 78.8146 14.045 78.8146 14.045C79.0412 14.1529 79.2913 14.2294 79.4887 14.3766C79.7485 14.5703 79.7026 14.7999 79.399 15.0455C78.9387 15.4179 78.4641 15.7739 78.0201 16.1647C77.5679 16.5627 77.1526 17.0026 76.7052 17.4065C76.58 17.5195 76.3897 17.651 76.2442 17.6352C75.6284 17.5688 75.3996 18.0152 75.13 18.4128C75.0998 18.4574 75.1454 18.5534 75.1558 18.6256C75.1908 18.616 75.2266 18.596 75.2606 18.5987C75.3606 18.6067 75.4599 18.6237 75.5594 18.6372C75.541 18.6685 75.5143 18.7292 75.5054 18.7266C75.3898 18.6941 75.2767 18.6526 75.1629 18.6134C74.9519 19.0017 74.3509 19.166 74.5032 19.7631C74.3827 19.7181 74.2064 19.5996 74.1518 19.6411C73.9525 19.7928 73.7878 19.9926 73.6213 20.1841C73.3765 20.4658 72.8371 20.1634 72.6891 20.7244C72.6037 21.0482 72.1846 21.2771 72.0739 21.6025C71.9532 21.9572 71.8289 21.9692 71.5257 21.8777C71.2726 21.8014 71.2609 22.0247 71.2257 22.2134C71.1396 22.6753 71.0228 23.0941 70.3717 22.8478C70.294 22.8184 69.952 23.1423 69.9753 23.2499C70.1072 23.8594 69.727 24.2116 69.3084 24.3769C68.8148 24.5719 68.9365 24.8477 69.0289 25.1588C69.0784 25.3257 69.2166 25.4645 69.2806 25.6293C69.3271 25.7489 69.3316 25.8906 69.3289 26.0219C69.326 26.1684 69.2938 26.3142 69.2744 26.4604C69.4099 26.4151 69.5615 26.395 69.6786 26.3207C71.1032 25.4162 72.3797 24.3333 73.5603 23.1279C74.1932 22.4816 74.8665 21.8737 75.54 21.2691C76.0022 20.8542 76.5565 20.5348 76.8374 19.9423C76.8676 19.8787 76.9216 19.8102 76.9825 19.7797C78.1002 19.2188 78.7067 18.1247 79.5731 17.3026C79.7467 17.1378 80.0746 17.0385 79.792 16.7087C79.9931 16.5281 80.1696 16.3029 80.4002 16.176C80.9119 15.8942 81.2227 15.4575 81.4547 14.951C81.5296 14.7875 81.5773 14.5962 81.5788 14.4171C81.5851 13.6889 81.2717 13.1316 80.6338 12.7663C80.9397 11.9433 80.4066 11.4203 79.822 11.166C79.4204 10.9912 79.4293 10.501 79.0659 10.4667C78.6533 10.4277 78.5587 10.1297 78.3696 9.87308C78.2485 9.70878 78.0537 9.59558 77.8828 9.47223C77.6525 9.30601 77.4227 9.03634 77.1762 9.01653C76.6372 8.97337 77.1869 8.47895 76.8457 8.36946C76.6569 8.30889 76.5006 8.14309 76.3335 8.01956C76.1619 7.89268 75.9855 7.76986 75.8279 7.62687C75.5375 7.36359 75.3101 7.07059 74.8892 6.91872C74.629 6.82485 74.3809 6.57586 74.0738 6.42332C73.4366 6.10688 72.9184 5.55546 72.3331 5.12559C72.1809 5.0138 71.9511 4.92694 71.776 4.95357C71.6442 4.97359 71.5429 5.19328 71.428 5.32408C71.5343 5.39783 71.6479 5.46331 71.7447 5.54799C71.8199 5.61383 71.9452 5.73274 71.9266 5.77815C71.7781 6.14079 71.9947 6.26105 72.2735 6.28439C72.6749 6.31806 72.847 6.54024 72.9419 6.90014C72.9724 7.01596 73.1069 7.17832 73.207 7.18848C73.5588 7.22404 73.6924 7.40174 73.6765 7.73218C74.1293 7.84308 74.0994 8.51558 74.6217 8.54558C74.5768 9.05676 75.0545 9.24492 75.2812 9.58569C75.429 9.8077 75.5958 10.1132 75.9762 9.96836C76.0053 9.95729 76.0456 9.97576 76.0806 9.98046C75.8817 10.6575 76.7799 10.7817 76.7757 11.3606C76.8236 11.404 76.8716 11.4474 76.9196 11.4907C76.8735 11.4444 76.8274 11.3981 76.7813 11.3518C76.6677 11.4302 76.5209 11.6007 76.4455 11.5734C74.9221 11.0214 73.3028 11.2221 71.7456 10.9532C71.4949 10.9099 71.2431 10.7924 70.9996 10.8111C70.7727 10.8284 70.5444 10.962 70.3414 11.0851C70.2707 11.128 70.3039 11.4431 70.1314 11.2008C69.7775 10.7034 69.2386 10.6738 68.7582 10.7066C68.1321 10.7493 67.508 10.2684 66.8633 10.7467C66.7141 10.8574 66.3292 10.6188 66.0477 10.5886C65.2963 10.508 64.5429 10.4307 63.7884 10.4025C63.5664 10.3942 63.3382 10.5541 63.1128 10.6369C63.0687 10.6856 63.0246 10.7344 62.9805 10.7832C63.0292 10.7374 63.078 10.6916 63.1267 10.6458C63.0469 10.5329 62.9784 10.335 62.8852 10.3225C62.5643 10.2796 62.2338 10.2845 61.9086 10.3016C60.6245 10.3692 59.341 10.4484 58.0573 10.5234C58.0132 10.5721 57.9692 10.6208 57.9251 10.6695C57.974 10.6239 58.0229 10.5783 58.0718 10.5327C57.9821 10.4906 57.8907 10.4092 57.8028 10.4128C57.2372 10.4362 56.6688 10.4509 56.1082 10.5218C55.5869 10.5877 55.0563 10.5458 54.5531 10.5993C53.6532 10.6948 52.777 11.0118 51.8904 11.2342C51.8071 11.2551 51.6567 11.2947 51.6444 11.2708C51.279 10.5578 50.4958 11.2689 50.0659 10.8016C50.0232 10.8439 49.9493 10.8818 49.9426 10.9293C49.8952 11.2657 49.703 11.2542 49.4761 11.1245C49.1171 10.9191 48.7394 10.9964 48.3559 10.9744C47.7985 10.9425 47.2948 11.4837 46.7296 11.0933C46.1579 11.2776 45.5769 11.2279 44.9904 11.1867C44.4542 11.1491 44.2625 11.6343 43.9611 11.946C43.6345 11.6615 43.2067 11.2365 42.8503 11.4772C42.3554 11.8114 41.9022 11.2841 41.4056 11.6328C41.0714 11.8675 40.4938 11.7712 40.0238 11.7923C39.5054 11.8155 38.961 11.8114 38.4762 11.8984C37.9589 11.9911 37.4745 12.275 36.9134 12.1425C36.4232 12.6449 35.8345 12.2992 35.2889 12.3385C34.7462 12.3775 34.1874 12.3955 33.6706 12.5445C32.9083 12.7641 32.0805 12.6496 31.3582 13.0329C30.0905 12.893 28.9518 13.5495 27.6905 13.6004C26.5695 13.6457 25.4649 14.0926 24.3528 14.3613C24.0207 14.4416 24.2729 14.607 24.296 14.7393C24.1758 14.7337 24.0524 14.7433 23.9362 14.7189C23.7776 14.6855 23.6244 14.6263 23.469 14.5782C23.1533 14.4805 23.2344 15.421 22.6823 14.8617C22.5602 14.7381 22.1007 14.9232 21.8056 15.0006C21.2537 15.1455 20.6833 15.2608 20.1698 15.4961C19.8687 15.6341 19.6746 15.9934 19.4096 16.2274C19.2278 16.388 19.0187 16.5315 18.7978 16.6269C18.7113 16.6642 18.4721 16.5734 18.4513 16.4993C18.336 16.0872 18.0775 16.1262 17.7658 16.2153C17.3755 16.3268 16.9831 16.4384 16.5846 16.5115C16.1509 16.591 16.4179 16.7703 16.4353 16.9934C16.4643 17.364 16.4884 17.5444 16.8811 17.3189C16.9735 17.2659 17.0602 17.0875 17.1148 17.1016C17.8882 17.301 18.5677 16.8219 19.2972 16.8219C19.5678 16.822 19.7484 16.7254 19.9746 16.6668C20.3848 16.5604 20.755 16.3527 21.1751 16.2701C21.5588 16.1947 21.9423 16.1263 22.2877 15.8415C22.4854 15.6785 22.9114 15.8153 23.2245 15.7599C23.3716 15.7339 23.6215 15.5519 23.609 15.4761C23.4936 14.7779 24.0469 15.068 24.1576 15.1831C24.6233 15.6677 25.0562 15.3028 25.4561 15.1571C25.5988 15.1051 25.6157 14.7076 25.6901 14.4678L25.5423 14.3359C25.5886 14.3845 25.6348 14.4332 25.6811 14.4818C25.9951 14.4776 25.9719 14.7421 26.0259 14.9313C26.1252 15.2786 26.268 15.2499 26.3909 14.9651C26.5314 14.6393 26.7496 14.8861 26.9285 14.8574C26.9721 14.8083 27.0157 14.7592 27.0593 14.7101C27.0108 14.7561 26.9625 14.8022 26.9141 14.8482ZM80.1138 15.5502C80.0646 15.5064 80.0153 15.4626 79.966 15.4188C80.0123 15.4672 80.0587 15.5156 80.105 15.5639C80.1535 15.608 80.2019 15.652 80.2504 15.6961L80.1138 15.5502ZM50.5855 11.4126C50.7284 11.3119 50.8099 11.2085 50.8837 11.2138C50.9808 11.2206 51.0719 11.313 51.1656 11.3686C51.1119 11.4378 51.0697 11.5438 51.001 11.5654C50.9379 11.5853 50.8462 11.5144 50.5855 11.4126ZM74.5222 11.7016C74.6074 11.775 74.6983 11.831 74.7507 11.9119C74.7671 11.9373 74.6802 12.0297 74.6407 12.0914C74.5718 12.0354 74.4921 11.9876 74.4401 11.9188C74.4226 11.8956 74.4755 11.8191 74.5222 11.7016ZM77.0843 13.3592C77.1232 13.3854 77.1655 13.4138 77.2077 13.4423C77.1603 13.4783 77.1165 13.5346 77.0644 13.5438C77.0251 13.5507 76.9751 13.4974 76.9298 13.4709C76.9784 13.4358 77.0269 13.4007 77.0843 13.3592ZM79.233 16.3521C79.274 16.3093 79.3087 16.2429 79.3576 16.23C79.4111 16.2159 79.4776 16.2512 79.5385 16.265C79.4961 16.3089 79.4603 16.3759 79.4095 16.3904C79.3585 16.405 79.2926 16.3673 79.233 16.3521ZM70.5933 24.4188C70.5639 24.4664 70.5443 24.539 70.5046 24.5525C70.452 24.5704 70.3837 24.5421 70.3221 24.5337C70.349 24.4894 70.3673 24.4191 70.4047 24.4069C70.4594 24.389 70.5277 24.4126 70.5933 24.4188ZM30.597 13.6265C30.5569 13.5731 30.5002 13.5284 30.4913 13.4756C30.4844 13.435 30.5375 13.3842 30.564 13.3379C30.5994 13.3875 30.6532 13.4333 30.6638 13.4877C30.6716 13.5272 30.6223 13.5779 30.597 13.6265ZM40.3234 12.2511C40.3485 12.2634 40.3737 12.2756 40.3988 12.2879C40.3605 12.3012 40.3223 12.3145 40.284 12.3278C40.2972 12.3023 40.3103 12.2767 40.3234 12.2511ZM45.3775 11.4499C45.4027 11.4618 45.4279 11.4737 45.4531 11.4856C45.415 11.4992 45.3769 11.5127 45.3387 11.5263C45.3516 11.5008 45.3645 11.4754 45.3775 11.4499ZM48.7253 11.3733C48.7379 11.3477 48.7506 11.322 48.7632 11.2965C48.7767 11.335 48.7901 11.3735 48.8036 11.412C48.7775 11.3991 48.7514 11.3862 48.7253 11.3733ZM60.5029 11.8701C60.5151 11.8453 60.5273 11.8206 60.5395 11.7959L60.5791 11.9073C60.5537 11.8948 60.5283 11.8825 60.5029 11.8701ZM78.9013 13.2394C78.9127 13.2131 78.9241 13.1868 78.9355 13.1605C78.961 13.1735 78.9985 13.1809 79.0081 13.2015C79.0154 13.217 78.9925 13.2615 78.9729 13.2702C78.9568 13.2773 78.9257 13.2509 78.9013 13.2394ZM80.6738 14.8545C80.6856 14.8279 80.6973 14.8014 80.7091 14.7748C80.7349 14.788 80.7608 14.8013 80.7866 14.8145C80.7738 14.8395 80.7664 14.877 80.7465 14.8857C80.7299 14.8929 80.6986 14.8662 80.6738 14.8545Z" fill="black" stroke="black" stroke-linejoin="round"/>
<path d="M14.5261 17.9848C15.059 18.2428 15.3721 17.8464 15.6977 17.5194C15.7809 17.4358 15.829 17.2255 15.7811 17.1295C15.7352 17.0376 15.5379 16.9647 15.4167 16.977C14.9552 17.0241 14.4282 16.9899 14.0549 17.2077C13.4966 17.5334 12.899 17.6417 12.3073 17.8109C12.0559 17.8828 11.9359 18.0032 12.0065 18.2838C12.0767 18.563 12.16 18.7608 12.5202 18.6745C12.7609 18.6168 13.0199 18.6397 13.2687 18.6095C13.3989 18.5936 13.6276 18.5577 13.6364 18.5027C13.7248 17.9499 14.3279 18.4043 14.5261 17.9848Z" fill="black" stroke="black" stroke-linejoin="round"/>
<path d="M9.61581 19.5464C9.87761 19.4706 10.2201 19.6071 10.2176 19.1316C10.2899 19.1647 10.3596 19.2156 10.4351 19.2268C10.5536 19.2445 10.7779 19.2551 10.7819 19.2348C10.8881 18.683 11.1093 18.775 11.4063 19.0972C11.4299 19.1227 11.6436 19.0488 11.655 18.9963C11.7081 18.7519 11.7327 18.4991 11.7392 18.2486C11.7406 18.1944 11.6073 18.0777 11.5669 18.0901C10.9745 18.272 10.3813 18.4547 9.80262 18.675C9.61351 18.7469 9.43255 18.9024 9.30946 19.0661C9.21262 19.1949 9.21042 19.3949 9.16622 19.5633C9.31606 19.5577 9.46597 19.552 9.61581 19.5464Z" fill="black" stroke="black" stroke-linejoin="round"/>
<path d="M5.29216 21.0409C5.2196 20.7679 4.853 20.5845 4.5932 20.644C4.36939 20.6952 4.1373 20.7869 4.26273 21.0604C4.34041 21.2298 4.58136 21.475 4.69003 21.4481C4.9171 21.3918 5.10508 21.1778 5.29216 21.0409ZM4.76727 20.8773L4.84201 20.9136C4.80412 20.9269 4.7662 20.9402 4.72829 20.9535C4.74128 20.9281 4.7543 20.9027 4.76727 20.8773Z" fill="black" stroke="black" stroke-linejoin="round"/>
<path d="M6.80223 20.3284C6.66271 20.0778 6.44337 19.9462 6.17343 20.039C6.02274 20.0908 5.80392 20.2546 5.80238 20.3705C5.79816 20.6865 6.04702 20.4857 6.17612 20.4698C6.39093 20.4435 6.5997 20.3679 6.81102 20.3132L6.80223 20.3284Z" fill="black" stroke="black" stroke-linejoin="round"/>
<path d="M7.65302 19.6343C7.95749 19.763 8.13464 19.8379 8.31173 19.9128C8.35537 19.7957 8.46865 19.6259 8.4282 19.5723C8.34222 19.4586 8.18244 19.3643 8.04082 19.3431C7.95891 19.3309 7.85347 19.4766 7.65302 19.6343Z" fill="black" stroke="black" stroke-linejoin="round"/>
<path d="M70.3475 3.99202C70.311 4.141 70.2515 4.24402 70.2809 4.3022C70.3121 4.36403 70.4275 4.38332 70.5062 4.42117C70.5423 4.34109 70.6192 4.25115 70.6028 4.18381C70.5875 4.12058 70.4737 4.08124 70.3475 3.99202Z" fill="black" stroke="black" stroke-linejoin="round"/>
<path d="M2.14376 22.1712C2.17328 22.1381 2.2466 22.0561 2.31993 21.9741C2.09565 22.0277 1.87142 22.0813 1.64717 22.1349C1.68191 22.1722 1.71777 22.2421 1.75122 22.241C1.85525 22.2375 1.95834 22.207 2.14376 22.1712Z" fill="black" stroke="black" stroke-linejoin="round"/>
<path d="M7.01898 19.8096C7.1079 19.833 7.20266 19.858 7.29741 19.8829C7.29379 19.8149 7.31366 19.7048 7.28195 19.6871C7.20206 19.6424 7.09894 19.6393 7.00514 19.6196C7.00923 19.6756 7.0133 19.7317 7.01898 19.8096Z" fill="black" stroke="black" stroke-linejoin="round"/>
<path d="M3.00633 21.3618C3.08589 21.4255 3.15386 21.5032 3.23906 21.536C3.27031 21.548 3.34238 21.454 3.39583 21.4084C3.32433 21.354 3.25907 21.2817 3.17845 21.2534C3.14223 21.2407 3.07521 21.316 3.00633 21.3618Z" fill="black" stroke="black" stroke-linejoin="round"/>
<path d="M6.81031 20.3122C6.92274 20.3511 7.03455 20.3923 7.14884 20.4246C7.15774 20.4271 7.18418 20.3674 7.20245 20.3366C7.10333 20.3242 7.00447 20.3083 6.90499 20.3011C6.8713 20.2986 6.83608 20.318 6.80155 20.3274L6.81031 20.3122Z" fill="black" stroke="black" stroke-linejoin="round"/>
<path d="M78.8289 14.055C78.7614 14.0731 78.6878 14.08 78.6282 14.1125C78.5727 14.1428 78.5322 14.2005 78.4851 14.2461C78.548 14.2593 78.64 14.3046 78.6679 14.2793C78.7336 14.2196 78.7688 14.1262 78.8163 14.0464L78.8289 14.055Z" fill="black" stroke="black" stroke-linejoin="round"/>
<path d="M58.0183 12.1476C57.9507 12.1674 57.877 12.1767 57.8171 12.2104C57.7615 12.2416 57.7205 12.299 57.6731 12.3449C57.7372 12.3578 57.8313 12.4031 57.8591 12.3772C57.9248 12.3158 57.959 12.2206 58.0059 12.1391C58.0059 12.1391 58.0183 12.1475 58.0183 12.1476Z" fill="black" stroke="black" stroke-linejoin="round"/>
<path d="M3.68279 21.0468C3.69524 21.0211 3.72351 20.9884 3.71602 20.9716C3.70677 20.9507 3.66038 20.9265 3.64366 20.934C3.622 20.9437 3.61381 20.9834 3.59984 21.0102C3.62749 21.0224 3.65514 21.0346 3.68279 21.0468Z" fill="black" stroke="black" stroke-linejoin="round"/>
<path d="M35.5359 13.6289C35.4869 13.6752 35.438 13.7216 35.389 13.7679C35.4337 13.7188 35.4784 13.6698 35.5231 13.6207C35.5231 13.6207 35.5359 13.6289 35.5359 13.6289Z" fill="black" stroke="black" stroke-linejoin="round"/>
<path d="M34.6705 13.8298C34.7167 13.8775 34.7629 13.9251 34.8092 13.9728C34.7597 13.9303 34.7102 13.8878 34.6606 13.8453L34.6705 13.8298Z" fill="black" stroke="black" stroke-linejoin="round"/>
<path d="M0.829052 22.4434C0.84154 22.4177 0.869982 22.3849 0.862525 22.3681C0.853188 22.3473 0.806779 22.3229 0.789976 22.3305C0.768267 22.3402 0.76001 22.38 0.745975 22.4068C0.77367 22.419 0.801345 22.4312 0.829052 22.4434Z" fill="black" stroke="black" stroke-linejoin="round"/>
<path d="M65.8835 12.3564C65.9081 12.3689 65.9328 12.3814 65.9575 12.394L65.9194 12.2848C65.9074 12.3087 65.8954 12.3325 65.8835 12.3564Z" fill="black" stroke="black" stroke-linejoin="round"/>
<path d="M50.5862 11.4135C50.8472 11.5154 50.939 11.5864 51.0023 11.5665C51.071 11.5448 51.1133 11.4387 51.1671 11.3693C51.0733 11.3137 50.982 11.2212 50.8848 11.2143C50.8109 11.2091 50.7293 11.3126 50.5862 11.4135Z" fill="white" stroke="black" stroke-linejoin="round"/>
<path d="M74.5234 11.7015C74.4768 11.8187 74.424 11.895 74.4415 11.9182C74.4933 11.9868 74.5729 12.0345 74.6416 12.0904C74.6811 12.0288 74.7677 11.9366 74.7513 11.9113C74.699 11.8306 74.6083 11.7748 74.5234 11.7015Z" fill="white" stroke="black" stroke-linejoin="round"/>
<path d="M77.085 13.359C77.0277 13.4005 76.9791 13.4356 76.9306 13.4707C76.9758 13.4972 77.0258 13.5505 77.0651 13.5435C77.1172 13.5343 77.161 13.4781 77.2083 13.442C77.1661 13.4136 77.1239 13.3852 77.085 13.359Z" fill="white" stroke="black" stroke-linejoin="round"/>
<path d="M42.0854 12.4433C42.1545 12.4247 42.2301 12.4177 42.2907 12.3839C42.3464 12.3529 42.3859 12.293 42.4325 12.2458C42.3676 12.2313 42.2706 12.1836 42.244 12.209C42.1783 12.2722 42.1449 12.3689 42.0985 12.4522L42.0854 12.4433Z" fill="white" stroke="black" stroke-linejoin="round"/>
<path d="M79.2352 16.3513C79.2945 16.3661 79.3604 16.4037 79.4113 16.3891C79.4621 16.3746 79.4979 16.3077 79.5402 16.2638C79.4794 16.25 79.4129 16.2147 79.3595 16.2288C79.3106 16.2417 79.276 16.3081 79.2352 16.3513Z" fill="white" stroke="black" stroke-linejoin="round"/>
<path d="M75.1643 18.6158C75.2778 18.6549 75.3907 18.6964 75.506 18.7288C75.5149 18.7313 75.5415 18.6708 75.5599 18.6396C75.4606 18.6261 75.3616 18.6091 75.2619 18.6011C75.2279 18.5985 75.1922 18.6183 75.1573 18.6279C75.1573 18.6279 75.1643 18.6158 75.1643 18.6158Z" fill="white" stroke="black" stroke-linejoin="round"/>
<path d="M70.5939 24.419C70.5284 24.4128 70.4601 24.3892 70.4054 24.4071C70.3681 24.4193 70.3498 24.4895 70.3229 24.5338C70.3845 24.5422 70.4527 24.5705 70.5053 24.5526C70.545 24.5391 70.5646 24.4666 70.5939 24.419Z" fill="white" stroke="black" stroke-linejoin="round"/>
<path d="M30.597 13.6264C30.6223 13.5778 30.6716 13.5271 30.6638 13.4876C30.6532 13.4333 30.5994 13.3874 30.5641 13.3379C30.5376 13.3842 30.4845 13.4349 30.4914 13.4755C30.5003 13.5282 30.5569 13.5729 30.597 13.6264Z" fill="white" stroke="black" stroke-linejoin="round"/>
<path d="M25.6812 14.4833C25.6347 14.4344 25.5882 14.3855 25.5417 14.3366L25.6901 14.4692C25.6901 14.4692 25.6812 14.4833 25.6812 14.4833Z" fill="white" stroke="black" stroke-linejoin="round"/>
<path d="M26.9139 14.8494C26.9628 14.8029 27.0116 14.7564 27.0605 14.71C27.0165 14.7596 26.9725 14.8091 26.9284 14.8587L26.9139 14.8494Z" fill="white" stroke="black" stroke-linejoin="round"/>
<path d="M40.323 12.2502C40.3095 12.2764 40.2961 12.3025 40.2827 12.3287C40.3218 12.315 40.3609 12.3014 40.4 12.2878C40.3743 12.2753 40.3486 12.2628 40.323 12.2502Z" fill="white" stroke="black" stroke-linejoin="round"/>
<path d="M45.3771 11.4516C45.3639 11.4776 45.3506 11.5036 45.3374 11.5296C45.3764 11.5158 45.4155 11.5019 45.4545 11.4881C45.4287 11.4759 45.4029 11.4637 45.3771 11.4516Z" fill="white" stroke="black" stroke-linejoin="round"/>
<path d="M48.7255 11.3743C48.7521 11.3875 48.7788 11.4007 48.8055 11.4139C48.7918 11.3745 48.778 11.3352 48.7642 11.2958C48.7513 11.3219 48.7384 11.3481 48.7255 11.3743Z" fill="white" stroke="black" stroke-linejoin="round"/>
<path d="M58.0753 10.5338C58.0262 10.5796 57.977 10.6254 57.9279 10.6712C57.9722 10.6223 58.0164 10.5733 58.0607 10.5244L58.0753 10.5338Z" fill="white" stroke="black" stroke-linejoin="round"/>
<path d="M63.1299 10.6475C63.0809 10.6935 63.0319 10.7396 62.9829 10.7856C63.0272 10.7365 63.0715 10.6875 63.1158 10.6385C63.1158 10.6385 63.1298 10.6475 63.1299 10.6475Z" fill="white" stroke="black" stroke-linejoin="round"/>
<path d="M60.5019 11.8717C60.5279 11.8843 60.5539 11.8971 60.5799 11.9098L60.5394 11.7958C60.5269 11.8211 60.5144 11.8464 60.5019 11.8717Z" fill="white" stroke="black" stroke-linejoin="round"/>
<path d="M61.6596 12.1453C61.7086 12.0991 61.7576 12.053 61.8066 12.0068C61.7621 12.0559 61.7176 12.1049 61.6731 12.1539L61.6596 12.1453Z" fill="white" stroke="black" stroke-linejoin="round"/>
<path d="M71.1826 12.7581C71.1363 12.7097 71.09 12.6613 71.0437 12.613C71.093 12.6566 71.1423 12.7002 71.1917 12.7439L71.1826 12.7581Z" fill="white" stroke="black" stroke-linejoin="round"/>
<path d="M76.7803 11.3517C76.8268 11.3985 76.8734 11.4452 76.92 11.492C76.8715 11.4482 76.823 11.4044 76.7746 11.3606L76.7803 11.3517Z" fill="white" stroke="black" stroke-linejoin="round"/>
<path d="M78.9023 13.2407C78.9269 13.2523 78.9581 13.2789 78.9744 13.2717C78.9941 13.2629 79.0171 13.2181 79.0098 13.2025C79.0001 13.1818 78.9624 13.1744 78.9367 13.1613C78.9252 13.1877 78.9138 13.2142 78.9023 13.2407Z" fill="white" stroke="black" stroke-linejoin="round"/>
<path d="M80.6723 14.8566C80.6976 14.8685 80.7297 14.8959 80.7466 14.8885C80.7669 14.8796 80.7745 14.8413 80.7876 14.8157C80.7612 14.8021 80.7347 14.7886 80.7083 14.775C80.6963 14.8022 80.6842 14.8294 80.6723 14.8566Z" fill="white" stroke="black" stroke-linejoin="round"/>
<path d="M80.1051 15.5664C80.0583 15.5175 80.0116 15.4686 79.9648 15.4198C80.0145 15.464 80.0643 15.5083 80.114 15.5525L80.1051 15.5664Z" fill="white" stroke="black" stroke-linejoin="round"/>
<path d="M80.1141 15.551L80.2514 15.6975C80.2026 15.6533 80.1539 15.609 80.1052 15.5647L80.1141 15.551Z" fill="white" stroke="black" stroke-linejoin="round"/>
<path d="M4.76494 20.8751C4.75168 20.9011 4.7384 20.927 4.72514 20.953C4.76384 20.9394 4.80259 20.9258 4.84128 20.9122C4.81583 20.8998 4.79038 20.8875 4.76494 20.8751Z" fill="white" stroke="black" stroke-linejoin="round"/>
</svg>
