<svg width="22" height="19" viewBox="0 0 22 19" fill="none" xmlns="http://www.w3.org/2000/svg">
<path d="M11.8471 4.47215C11.8842 3.69036 11.87 2.90229 11.8613 2.11344C11.8558 1.64609 11.8613 1.17874 11.8708 0.712173C11.8732 0.60004 11.8937 0.484771 11.9253 0.376559C12.0368 -0.00218341 12.3254 -0.114317 12.64 0.127984C13.3752 0.692568 14.146 1.22579 14.8076 1.86722C15.4954 2.53374 16.2551 3.1046 16.9801 3.72172C17.6488 4.29101 18.3263 4.85246 19.026 5.38333C19.6141 5.83029 20.177 6.31097 20.8047 6.70931C21.1391 6.92182 21.4347 7.19313 21.7573 7.42446C22.1589 7.71302 22.0087 7.96552 21.6933 8.14744C21.4751 8.2729 21.3209 8.43365 21.1541 8.59832C20.6687 9.07822 20.0987 9.45696 19.5762 9.89216C18.9627 10.4034 18.2742 10.8104 17.6615 11.3224C16.5935 12.2156 15.4899 13.0656 14.4274 13.965C13.8946 14.4167 13.308 14.797 12.7831 15.2557C12.6582 15.3647 12.5032 15.4047 12.357 15.4408C12.0985 15.5051 11.855 15.2181 11.8502 14.8433C11.8455 14.4888 11.8558 14.1328 11.8779 13.7784C11.9206 13.0993 11.9277 12.4195 11.9309 11.7396C11.9317 11.4675 11.8755 11.204 11.8447 10.9366C11.8297 10.8073 11.7933 10.743 11.636 10.7414C10.7213 10.7304 9.79641 10.6826 8.90073 10.8661C7.96631 11.0574 7.05719 11.3436 6.23108 11.8674C5.37334 12.4108 4.56699 13.0154 3.7891 13.6608C3.12663 14.2105 2.51001 14.8111 2.15031 15.6047C1.95267 16.0406 1.82223 16.5088 1.68468 16.9699C1.53211 17.4803 1.35028 17.9845 1.28467 18.5178C1.27597 18.5876 1.24909 18.655 1.22933 18.7232C1.18031 18.8957 1.05383 18.982 0.883862 18.9984C0.702829 19.0165 0.63405 18.8745 0.585827 18.742C0.532861 18.5962 0.498867 18.4417 0.471198 18.2888C0.336806 17.5509 0.170793 16.8154 0.086205 16.0712C-0.0236801 15.1005 -0.0600451 14.1226 0.170002 13.1558C0.258543 12.7841 0.278307 12.3928 0.398469 12.0329C0.5463 11.5898 0.659347 11.135 0.827732 10.7006C1.21035 9.71416 1.7748 8.83121 2.48945 8.04628C2.86179 7.63696 3.23256 7.22529 3.6302 6.84027C4.83735 5.67268 6.25558 4.86109 7.90465 4.49646C8.55526 4.35218 9.21457 4.18985 9.8897 4.20867C10.4613 4.22436 11.0249 4.33179 11.5822 4.46274C11.6653 4.48234 11.7475 4.51528 11.8471 4.47215Z" fill="#1A3541"/>
</svg>
