<?xml version="1.0" encoding="utf-8"?>
<!-- Generator: Adobe Illustrator 26.0.1, SVG Export Plug-In . SVG Version: 6.00 Build 0)  -->
<svg version="1.1" xmlns="http://www.w3.org/2000/svg" xmlns:xlink="http://www.w3.org/1999/xlink" x="0px" y="0px"
	 viewBox="0 0 474.9 471.1" style="enable-background:new 0 0 474.9 471.1;" xml:space="preserve">
<style type="text/css">
	.st0{fill:#92E3A9;}
	.st1{opacity:0.88;fill:#FFCA46;}
	.st2{fill:#293843;}
	.st3{fill:#FFFFFF;stroke:#263238;stroke-linecap:round;stroke-linejoin:round;stroke-miterlimit:10;}
	.st4{fill:#00C88B;stroke:#263238;stroke-linecap:round;stroke-linejoin:round;stroke-miterlimit:10;}
	.st5{fill:none;stroke:#263238;stroke-linecap:round;stroke-linejoin:round;stroke-miterlimit:10;}
	.st6{fill:none;stroke:#FFFFFF;stroke-linecap:round;stroke-linejoin:round;stroke-miterlimit:10;}
</style>
<g id="Background_Simple">
	<g>
		<path class="st0" d="M393,142.1c-11.5-6.6-23.6-11.9-35.8-15.9c-25.8-8.4-53.2-11.7-80.3-11.4c-76.5,0.9-101.7,38.5-151.2,37.6
			S14.2,183.9,10.3,239.4c-3.9,55.5,10.6,85.3,54.8,108.7c44.2,23.4,122.4-10.2,186.1,0.9c63.7,11.1,121.6,27.8,165.3,2.2
			c41.5-24.3,57-78.5,46.2-123.5C453.8,190.3,425.5,160.8,393,142.1z"/>
		<path class="st1" d="M393,142.1c-11.5-6.6-23.6-11.9-35.8-15.9c-25.8-8.4-53.2-11.7-80.3-11.4c-76.5,0.9-101.7,38.5-151.2,37.6
			S14.2,183.9,10.3,239.4c-3.9,55.5,10.6,85.3,54.8,108.7c44.2,23.4,122.4-10.2,186.1,0.9c63.7,11.1,121.6,27.8,165.3,2.2
			c41.5-24.3,57-78.5,46.2-123.5C453.8,190.3,425.5,160.8,393,142.1z"/>
	</g>
</g>
<g id="Text">
</g>
<g id="Chart_5">
</g>
<g id="Chart_4">
</g>
<g id="Chart_3">
</g>
<g id="Chart_2">
</g>
<g id="Chart_1">
</g>
<g id="Device">
	<g>
		<g>
			<path class="st2" d="M388.4,347.1H88.2c-5.3,0-9.6-4.3-9.6-9.6V159.2c0-5.3,4.3-9.6,9.6-9.6h300.3c5.3,0,9.6,4.3,9.6,9.6v178.3
				C398,342.8,393.7,347.1,388.4,347.1z"/>
			<path class="st3" d="M386.9,169.7v157.2c0,5.1-4.2,9.3-9.3,9.3H99c-5.1,0-9.3-4.2-9.3-9.3V169.7c0-5.1,4.2-9.3,9.3-9.3h278.6
				C382.7,160.5,386.9,164.6,386.9,169.7z"/>
			<path class="st3" d="M386.9,312.7v14.2c0,5.1-4.2,9.3-9.3,9.3H99c-5.1,0-9.3-4.2-9.3-9.3v-14.2H386.9z"/>
			<g>
				<g>
					<path class="st3" d="M194.8,269.7h-20.5c-4.5,0-8.2-3.7-8.2-8.2c0-4.5,3.7-8.2,8.2-8.2h12.3v-6.6c0-4.5,3.7-8.2,8.2-8.2
						c4.5,0,8.2,3.7,8.2,8.2v14.8C203,266,199.3,269.7,194.8,269.7z"/>
				</g>
				<path class="st2" d="M199.1,255.2L199.1,255.2c-1.9,0-3.4-1.5-3.4-3.4v-15.6h6.8v15.6C202.5,253.7,200.9,255.2,199.1,255.2z"/>
				<circle class="st4" cx="170.4" cy="260.5" r="14.5"/>
				<path class="st4" d="M170.8,276.9h-33.7c-3.4,0-6.1-2.8-6.1-6.1v-12.1c0-3.4,2.8-6.1,6.1-6.1h33.7c3.4,0,6.1,2.8,6.1,6.1v12.1
					C176.9,274.1,174.2,276.9,170.8,276.9z"/>
				<g>
					<path class="st3" d="M186.4,307.4c-4.3,0-7.8-3.5-7.8-7.8v-12.9h-5.5c-4.3,0-7.8-3.5-7.8-7.8s3.5-7.8,7.8-7.8h13.4
						c4.3,0,7.8,3.5,7.8,7.8v20.8C194.3,303.9,190.8,307.4,186.4,307.4z"/>
				</g>
				<path class="st3" d="M178.6,286.6v12.9c0,4.3,3.5,7.8,7.8,7.8s7.8-3.5,7.8-7.8v-12.9H178.6z"/>
				<g>
					<path class="st3" d="M138.3,303.4h-19c-4.3,0-7.8-3.5-7.8-7.8c0-4.3,3.5-7.8,7.8-7.8h11.2v-8.2c0-4.3,3.5-7.8,7.8-7.8
						c4.3,0,7.8,3.5,7.8,7.8v16C146.2,299.9,142.7,303.4,138.3,303.4z"/>
				</g>
				<path class="st3" d="M130.9,286.1h-0.4v1.7h-11.2c-4.3,0-7.8,3.5-7.8,7.8c0,4.3,3.5,7.8,7.8,7.8h11.6V286.1z"/>
				<path class="st2" d="M104.9,312.3v-25.5h16.3v15.8c0,5.4-4.3,9.7-9.7,9.7H104.9z"/>
				<path class="st3" d="M103,312.8v-25.2c0-1.1,0.9-1.9,1.9-1.9l0,0c1.1,0,1.9,0.9,1.9,1.9v25.2c0,1.1-0.9,1.9-1.9,1.9l0,0
					C103.9,314.7,103,313.9,103,312.8z"/>
				<rect x="131.5" y="270.3" class="st2" width="45.4" height="17.2"/>
				<rect x="131.5" y="270.3" class="st4" width="45.4" height="4.3"/>
				<rect x="147.3" y="270.3" class="st4" width="13.9" height="28.4"/>
				<path class="st3" d="M161.8,255.5h-20c-3.1,0-5.6-2.5-5.6-5.6v-8.7c0-3.1,2.5-5.6,5.6-5.6h20c3.1,0,5.6,2.5,5.6,5.6v8.7
					C167.4,253,164.9,255.5,161.8,255.5z"/>
				<path class="st2" d="M152,240.3v8.3h16.9v16.9l-15.6-4.1c-2-0.5-3.4-2.3-3.4-4.4v-1.5H139c-1.9,0-3.4-1.5-3.4-3.4V240
					C135.7,240,152,239.2,152,240.3z"/>
				<circle class="st3" cx="166.5" cy="246.3" r="4.2"/>
				<path class="st4" d="M161.8,228.5l-11.3-5.4l-9.5,5.2c-3.5,1.9-5.6,5.6-5.6,9.5v4.2H168v-3.8C168,234.1,165.6,230.3,161.8,228.5
					z"/>
				<circle class="st2" cx="138.9" cy="239.2" r="1.2"/>
				<path class="st2" d="M146.7,239.2c0-0.7-0.5-1.2-1.2-1.2c-0.7,0-1.2,0.5-1.2,1.2c0,0.7,0.5,1.2,1.2,1.2
					C146.1,240.3,146.7,239.8,146.7,239.2z"/>
				<path class="st2" d="M153.2,239.2c0-0.7-0.5-1.2-1.2-1.2c-0.7,0-1.2,0.5-1.2,1.2c0,0.7,0.5,1.2,1.2,1.2
					C152.7,240.3,153.2,239.8,153.2,239.2z"/>
				<path class="st2" d="M159.7,239.2c0-0.7-0.5-1.2-1.2-1.2s-1.2,0.5-1.2,1.2c0,0.7,0.5,1.2,1.2,1.2S159.7,239.8,159.7,239.2z"/>
				<path class="st2" d="M166.3,239.2c0-0.7-0.5-1.2-1.2-1.2c-0.7,0-1.2,0.5-1.2,1.2c0,0.7,0.5,1.2,1.2,1.2
					C165.7,240.3,166.3,239.8,166.3,239.2z"/>
				<path class="st3" d="M203.4,251.3h-0.1c-2.7,0-4.8-2.2-4.8-4.8v-2.8c0-2.7,2.2-4.8,4.8-4.8h0.1c2.7,0,4.8,2.2,4.8,4.8v2.8
					C208.2,249.2,206,251.3,203.4,251.3z"/>
				<path class="st3" d="M186.5,246.6v-2.7c0-2.8,2.2-5,5-5h4.4c1.6,0,3,1.3,3,3l0,0c0,1.6-1.3,3-3,3h-1.2v5.9"/>
				<polygon class="st3" points="205.7,203.8 199.5,198.8 192.7,203.8 192.7,235.3 205.7,235.3 				"/>
				<path class="st3" d="M208.9,238.3h-21.1c-0.9,0-1.6-0.7-1.6-1.6l0,0c0-0.9,0.7-1.6,1.6-1.6h21.1c0.9,0,1.6,0.7,1.6,1.6l0,0
					C210.5,237.5,209.8,238.3,208.9,238.3z"/>
				<line class="st5" x1="199.5" y1="198.8" x2="199.5" y2="234.4"/>
				<path class="st2" d="M204,311.9h-25.5v-16.3h15.8c5.4,0,9.7,4.3,9.7,9.7V311.9z"/>
				<path class="st3" d="M204.4,312.5h-25.2c-1.1,0-1.9-0.9-1.9-1.9l0,0c0-1.1,0.9-1.9,1.9-1.9h25.2c1.1,0,1.9,0.9,1.9,1.9l0,0
					C206.3,311.6,205.5,312.5,204.4,312.5z"/>
				<circle class="st4" cx="125.6" cy="260.5" r="14.5"/>
				<g>
					<circle class="st3" cx="118.7" cy="275.1" r="23.8"/>
					<circle class="st3" cx="118.7" cy="275.1" r="16.9"/>
					<g>
						<path class="st2" d="M118.7,275.4l-15,7.4c0.8,1.5,1.8,3,3.1,4.2c1.4,1.4,3,2.5,4.8,3.3l7.3-14.8l-0.3,0.2L118.7,275.4z"/>
						<path class="st2" d="M126.3,260l-7.6,15.4l0.3-0.2l-0.2,0.3l15.2-7.5c-0.8-1.8-1.9-3.4-3.4-4.9
							C129.4,261.8,127.9,260.8,126.3,260z"/>
					</g>
					<path class="st3" d="M120.9,277.2c1.2-1.2,1.2-3.1,0-4.3c-1.2-1.2-3.1-1.2-4.3,0c-1.2,1.2-1.2,3.1,0,4.3
						C117.8,278.4,119.7,278.4,120.9,277.2z"/>
					<path class="st3" d="M105.7,261.6c0.7-0.7,0.7-1.8,0-2.5c-0.7-0.7-1.8-0.7-2.5,0c-0.7,0.7-0.7,1.8,0,2.5
						C103.9,262.3,105,262.3,105.7,261.6z"/>
					<path class="st3" d="M134.5,290.4c0.7-0.7,0.7-1.8,0-2.5s-1.8-0.7-2.5,0c-0.7,0.7-0.7,1.8,0,2.5
						C132.7,291.1,133.8,291.1,134.5,290.4z"/>
					<path class="st3" d="M132,261.6c0.7,0.7,1.8,0.7,2.5,0c0.7-0.7,0.7-1.8,0-2.5c-0.7-0.7-1.8-0.7-2.5,0
						C131.3,259.8,131.3,260.9,132,261.6z"/>
					<path class="st3" d="M103.2,290.4c0.7,0.7,1.8,0.7,2.5,0c0.7-0.7,0.7-1.8,0-2.5c-0.7-0.7-1.8-0.7-2.5,0
						C102.5,288.6,102.5,289.7,103.2,290.4z"/>
					<circle class="st3" cx="139.2" cy="274.8" r="1.8"/>
					<circle class="st3" cx="98.5" cy="274.8" r="1.8"/>
					<path class="st3" d="M118.8,256.2c1,0,1.8-0.8,1.8-1.8c0-1-0.8-1.8-1.8-1.8c-1,0-1.8,0.8-1.8,1.8
						C117.1,255.4,117.9,256.2,118.8,256.2z"/>
					<path class="st3" d="M118.8,296.9c1,0,1.8-0.8,1.8-1.8c0-1-0.8-1.8-1.8-1.8c-1,0-1.8,0.8-1.8,1.8
						C117.1,296.1,117.9,296.9,118.8,296.9z"/>
				</g>
			</g>
			<path class="st2" d="M138.2,218.8h-32.8c-4,0-7.3-3.3-7.3-7.3v-32.8c0-4,3.3-7.3,7.3-7.3h32.8c4,0,7.3,3.3,7.3,7.3v32.8
				C145.5,215.5,142.2,218.8,138.2,218.8z"/>
			<g>
				<path class="st0" d="M125.3,202.2h-8.9v-0.9c0-1.5,0.2-2.7,0.5-3.7c0.3-0.9,0.9-1.8,1.5-2.6c0.7-0.8,2.2-2.1,4.6-4.1
					c1.3-1,1.9-2,1.9-2.8c0-0.9-0.3-1.5-0.8-2c-0.5-0.5-1.3-0.7-2.3-0.7c-1.1,0-2,0.4-2.7,1.1c-0.7,0.7-1.2,2-1.4,3.8l-9-1.1
					c0.3-3.3,1.5-6,3.6-8c2.1-2,5.3-3,9.7-3c3.4,0,6.1,0.7,8.2,2.1c2.8,1.9,4.2,4.5,4.2,7.6c0,1.3-0.4,2.6-1.1,3.8
					c-0.7,1.2-2.2,2.7-4.5,4.5c-1.6,1.2-2.6,2.2-3,3C125.5,200,125.3,200.9,125.3,202.2z M116.2,204.5h9.5v8.4h-9.5V204.5z"/>
			</g>
			<rect x="126.9" y="321.6" class="st4" width="93.7" height="5.4"/>
			<rect x="225.5" y="321.6" class="st4" width="12.3" height="5.4"/>
			<g>
				<g>
					<polyline class="st5" points="264.5,233 318.6,233 318.6,297.8 					"/>
					<polyline class="st5" points="319.1,282.9 366.2,282.9 366.2,297.6 					"/>
					<line class="st5" x1="343.4" y1="283.3" x2="343.4" y2="297.6"/>
					<polyline class="st5" points="244,246 244,294.1 265,294.1 					"/>
					<path class="st2" d="M288.2,306h-29.7c-3.1,0-5.7-2.5-5.7-5.7v-16c0-3.1,2.5-5.7,5.7-5.7h29.7c3.1,0,5.7,2.5,5.7,5.7v16
						C293.8,303.5,291.3,306,288.2,306z"/>
					<path class="st3" d="M338.1,274.8h-29.7c-3.1,0-5.7-2.5-5.7-5.7v-16c0-3.1,2.5-5.7,5.7-5.7h29.7c3.1,0,5.7,2.5,5.7,5.7v16
						C343.8,272.2,341.2,274.8,338.1,274.8z"/>
					<path class="st4" d="M323.7,304.4h-11.6c-2.4,0-4.4-2-4.4-4.4v-4.8c0-2.4,2-4.4,4.4-4.4h11.6c2.4,0,4.4,2,4.4,4.4v4.8
						C328.2,302.4,326.2,304.4,323.7,304.4z"/>
					<path class="st4" d="M347.8,304.4h-11.6c-2.4,0-4.4-2-4.4-4.4v-4.8c0-2.4,2-4.4,4.4-4.4h11.6c2.4,0,4.4,2,4.4,4.4v4.8
						C352.2,302.4,350.2,304.4,347.8,304.4z"/>
					<path class="st4" d="M371.8,304.4h-11.6c-2.4,0-4.4-2-4.4-4.4v-4.8c0-2.4,2-4.4,4.4-4.4h11.6c2.4,0,4.4,2,4.4,4.4v4.8
						C376.3,302.4,374.3,304.4,371.8,304.4z"/>
				</g>
				<path class="st5" d="M255,234.5"/>
				<path class="st5" d="M237.9,234.5"/>
				<line class="st6" x1="264.7" y1="292.1" x2="281.8" y2="292.1"/>
				<line class="st6" x1="264.7" y1="295.5" x2="281.8" y2="295.5"/>
				<line class="st5" x1="313.2" y1="262.5" x2="337.1" y2="262.5"/>
				<line class="st5" x1="313.2" y1="259.3" x2="337.1" y2="259.3"/>
			</g>
		</g>
		<g>
			<g>
				<g>
					<path class="st3" d="M112.2,347.1H87.9c-5.1,0-9.3-4.2-9.3-9.3V229.3c-6.6,4.9-20.2,15.2-24.8,20.6
						c-6.2,7.2-10.9,18.6-12.9,30.5c-2.1,11.9-9.8,22.2-7.8,27.9c2.1,5.7,9.8,40.3,12.4,54.3c2.6,14,3.1,25.3,3.1,28.4
						s-7.8,42.4-7.8,42.4l56.3,2.1c0,0-1-19.6,1-25.8c2.1-6.2,10.9-20.7,9.8-29.5C107,371.5,113,356.4,112.2,347.1z"/>
					<path class="st2" d="M78.6,248.8l-5.7,6.6c0,0-2.1,11.1-3.1,16.2c-1,5.2-3.1,9.3-3.1,9.3s3.6,8.3,5.7,11.4
						c2.1,3.1,3.1,6.2,3.1,6.2l3.1,2V248.8z"/>
					<path class="st5" d="M52.6,282.2c0,0,4.2-0.6,8.4-0.6"/>
					<path class="st5" d="M66.9,251.2c0,0,6,1.8,6,4.2"/>
				</g>
				<path class="st3" d="M31,440.1c0,0,2.6-24.5,2.6-27.1c0-2.6,0-5.2,0-7.7s2.6-4.5,2.6-4.5s25.2-5.2,50.4,3.2
					c25.2,8.4,19.4,22,19.4,22l-1.3,19.4"/>
			</g>
			<g>
				<path class="st3" d="M64.6,318.7c0,0,9.3-20.2,10.3-28c1-7.8-1-25.8,1.6-33.1c2.6-7.2,1-16.5,7.2-20.2c6.2-3.6,14.5-2.6,16,11.9
					c1.6,14.5,0,37.2,0.5,45c0.5,7.8,14,19.1,14.5,35.7c0.5,16.5-5.2,33.6-6.7,40.8c-1.6,7.2-7.8,24.3-7.8,24.3"/>
				<path class="st5" d="M79.1,254.2c0,0,4.2-1.2,9.3-0.2c5.2,1,8.3,2.1,8.3,2.1s0.5-5.2,0-10.3c0,0,0.7-5.9-2.9-8.3
					c-3.6-2.4-10.7-1.8-13.1,3.6C78.3,246.4,79.1,254.2,79.1,254.2z"/>
				<path class="st5" d="M92,263.7c0,0-11.9-3.6-14.9,1.2"/>
				<path class="st5" d="M80,266.7c0,0,3.6,1.2,11.3,0.6"/>
			</g>
		</g>
		<g>
			<g>
				<g>
					<path class="st3" d="M445.5,308.3c2.1-5.7-5.7-16-7.8-27.9c-2.1-11.9-6.7-23.3-12.9-30.5c-5.2-6-21.5-18.2-26.8-22.1v110
						c0,5.1-4.2,9.3-9.3,9.3h-22.4c-0.8,9.4,5.2,24.5,4.2,33.1c-1,8.8,7.8,23.3,9.8,29.5c2.1,6.2,1,25.8,1,25.8l56.3-2.1
						c0,0-7.8-39.3-7.8-42.4s0.5-14.5,3.1-28.4C435.7,348.6,443.4,314,445.5,308.3z"/>
					<path class="st2" d="M408.8,271.6c-1-5.2-3.1-16.2-3.1-16.2l-7.7-8.9v55.2l5.1-3.2c0,0,1-3.1,3.1-6.2
						c2.1-3.1,5.7-11.4,5.7-11.4S409.8,276.8,408.8,271.6z"/>
					<path class="st5" d="M426,282.2c0,0-4.2-0.6-8.4-0.6"/>
					<path class="st5" d="M411.7,251.2c0,0-6,1.8-6,4.2"/>
				</g>
				<path class="st3" d="M447.5,440.1c0,0-2.6-24.5-2.6-27.1c0-2.6,0-5.2,0-7.7s-2.6-4.5-2.6-4.5s-25.2-5.2-50.4,3.2
					c-25.2,8.4-19.4,22-19.4,22l1.3,19.4"/>
			</g>
			<g>
				<path class="st3" d="M409.2,323.4c0,0-14.4-28-17.2-35.3c-2.8-7.3-5-25.4-9.2-31.8c-4.2-6.4-4.9-15.8-11.7-17.9
					c-6.9-2.1-14.7,0.9-12.8,15.3c1.9,14.4,8.7,36.2,10,43.9c1.3,7.7-9.1,21.8-5.8,38.1c3.3,16.2,12.8,31.5,16,38.2"/>
				<path class="st5" d="M379.4,253.5c0,0-4.3-0.2-9.1,2c-4.8,2.2-7.6,3.9-7.6,3.9s-1.7-4.9-2.4-10.1c0,0-2-5.6,0.9-8.7
					s10-4.2,13.6,0.4C378.4,245.7,379.4,253.5,379.4,253.5z"/>
				<path class="st5" d="M369.1,265.7c0,0,10.8-6.3,14.8-2.3"/>
				<path class="st5" d="M381.4,265.9c0,0-3.2,2-10.9,3.2"/>
			</g>
		</g>
	</g>
	<g>
		<path class="st4" d="M261.6,248.7h-29.7c-3.1,0-5.7-2.5-5.7-5.7v-16c0-3.1,2.5-5.7,5.7-5.7h29.7c3.1,0,5.7,2.5,5.7,5.7v16
			C267.3,246.1,264.7,248.7,261.6,248.7z"/>
		<line class="st5" x1="237.9" y1="234.5" x2="255" y2="234.5"/>
	</g>
</g>
</svg>
